G04*
G04 #@! TF.GenerationSoftware,Altium Limited,Altium Designer,26.9.1 (10)*
G04*
G04 Layer_Color=16711935*
G04 Board_Origin=100000000|100000000*
%FSLAX25Y25*%
%MOIN*%
G70*
G04*
G04 #@! TF.SameCoordinates,6EF0B23D-BCFA-4A29-A2E0-F4787A1BABFB*
G04*
G04*
G04 #@! TF.FilePolarity,Negative*
G04*
G01*
G75*
%ADD54C,0.06200*%
G04:AMPARAMS|DCode=55|XSize=39.37mil|YSize=86.61mil|CornerRadius=19.68mil|HoleSize=0mil|Usage=FLASHONLY|Rotation=270.000|XOffset=0mil|YOffset=0mil|HoleType=Round|Shape=RoundedRectangle|*
%AMROUNDEDRECTD55*
21,1,0.03937,0.04724,0,0,270.0*
21,1,0.00000,0.08661,0,0,270.0*
1,1,0.03937,-0.02362,0.00000*
1,1,0.03937,-0.02362,0.00000*
1,1,0.03937,0.02362,0.00000*
1,1,0.03937,0.02362,0.00000*
%
%ADD55ROUNDEDRECTD55*%
G04:AMPARAMS|DCode=56|XSize=39.37mil|YSize=70.87mil|CornerRadius=19.68mil|HoleSize=0mil|Usage=FLASHONLY|Rotation=270.000|XOffset=0mil|YOffset=0mil|HoleType=Round|Shape=RoundedRectangle|*
%AMROUNDEDRECTD56*
21,1,0.03937,0.03150,0,0,270.0*
21,1,0.00000,0.07087,0,0,270.0*
1,1,0.03937,-0.01575,0.00000*
1,1,0.03937,-0.01575,0.00000*
1,1,0.03937,0.01575,0.00000*
1,1,0.03937,0.01575,0.00000*
%
%ADD56ROUNDEDRECTD56*%
%ADD57C,0.04400*%
%ADD58R,0.04400X0.04400*%
%ADD59R,0.04400X0.04400*%
D54*
X123000Y94000D02*
D03*
X53000D02*
D03*
X133000D02*
D03*
X83000D02*
D03*
X93000D02*
D03*
X43000D02*
D03*
X73000D02*
D03*
X63000D02*
D03*
X103000D02*
D03*
X113000D02*
D03*
X243000D02*
D03*
X253000D02*
D03*
X213000D02*
D03*
X233000D02*
D03*
X223000D02*
D03*
X263000D02*
D03*
X273000D02*
D03*
X173000D02*
D03*
X143000D02*
D03*
X163000D02*
D03*
X153000D02*
D03*
X183000D02*
D03*
X203000D02*
D03*
X193000D02*
D03*
X123000Y6000D02*
D03*
X43000D02*
D03*
X133000D02*
D03*
X83000D02*
D03*
X93000D02*
D03*
X53000D02*
D03*
X73000D02*
D03*
X63000D02*
D03*
X103000D02*
D03*
X113000D02*
D03*
X243000D02*
D03*
X253000D02*
D03*
X213000D02*
D03*
X233000D02*
D03*
X223000D02*
D03*
X273000D02*
D03*
X263000D02*
D03*
X173000D02*
D03*
X143000D02*
D03*
X163000D02*
D03*
X153000D02*
D03*
X183000D02*
D03*
X203000D02*
D03*
X193000D02*
D03*
D55*
X7252Y7000D02*
D03*
Y41016D02*
D03*
Y58984D02*
D03*
Y93000D02*
D03*
D56*
X23000Y7000D02*
D03*
Y41016D02*
D03*
Y58984D02*
D03*
Y93000D02*
D03*
D57*
X37500Y44500D02*
D03*
Y49500D02*
D03*
X162500Y50000D02*
D03*
D58*
X37500Y54500D02*
D03*
D59*
X157500Y50000D02*
D03*
M02*
