G04*
G04 #@! TF.GenerationSoftware,Altium Limited,Altium Designer,26.9.1 (10)*
G04*
G04 Layer_Physical_Order=4*
G04 Layer_Color=16711680*
G04 Board_Origin=100000000|100000000*
%FSLAX25Y25*%
%MOIN*%
G70*
G04*
G04 #@! TF.SameCoordinates,6EF0B23D-BCFA-4A29-A2E0-F4787A1BABFB*
G04*
G04*
G04 #@! TF.FilePolarity,Positive*
G04*
G01*
G75*
%ADD11C,0.02000*%
%ADD54C,0.06200*%
G04:AMPARAMS|DCode=55|XSize=39.37mil|YSize=86.61mil|CornerRadius=19.68mil|HoleSize=0mil|Usage=FLASHONLY|Rotation=270.000|XOffset=0mil|YOffset=0mil|HoleType=Round|Shape=RoundedRectangle|*
%AMROUNDEDRECTD55*
21,1,0.03937,0.04724,0,0,270.0*
21,1,0.00000,0.08661,0,0,270.0*
1,1,0.03937,-0.02362,0.00000*
1,1,0.03937,-0.02362,0.00000*
1,1,0.03937,0.02362,0.00000*
1,1,0.03937,0.02362,0.00000*
%
%ADD55ROUNDEDRECTD55*%
G04:AMPARAMS|DCode=56|XSize=39.37mil|YSize=70.87mil|CornerRadius=19.68mil|HoleSize=0mil|Usage=FLASHONLY|Rotation=270.000|XOffset=0mil|YOffset=0mil|HoleType=Round|Shape=RoundedRectangle|*
%AMROUNDEDRECTD56*
21,1,0.03937,0.03150,0,0,270.0*
21,1,0.00000,0.07087,0,0,270.0*
1,1,0.03937,-0.01575,0.00000*
1,1,0.03937,-0.01575,0.00000*
1,1,0.03937,0.01575,0.00000*
1,1,0.03937,0.01575,0.00000*
%
%ADD56ROUNDEDRECTD56*%
%ADD61C,0.01500*%
%ADD62C,0.00603*%
%ADD63C,0.02500*%
%ADD68C,0.04000*%
%ADD69R,0.04000X0.04000*%
%ADD70R,0.04000X0.04000*%
%ADD71C,0.02400*%
D11*
X64786Y67800D02*
X71360D01*
X83223Y79664D01*
Y83324D02*
X83300Y83400D01*
X83223Y79664D02*
Y83324D01*
D54*
X123000Y94000D02*
D03*
X53000D02*
D03*
X133000D02*
D03*
X83000D02*
D03*
X93000D02*
D03*
X43000D02*
D03*
X73000D02*
D03*
X63000D02*
D03*
X103000D02*
D03*
X113000D02*
D03*
X243000D02*
D03*
X253000D02*
D03*
X213000D02*
D03*
X233000D02*
D03*
X223000D02*
D03*
X263000D02*
D03*
X273000D02*
D03*
X173000D02*
D03*
X143000D02*
D03*
X163000D02*
D03*
X153000D02*
D03*
X183000D02*
D03*
X203000D02*
D03*
X193000D02*
D03*
X123000Y6000D02*
D03*
X43000D02*
D03*
X133000D02*
D03*
X83000D02*
D03*
X93000D02*
D03*
X53000D02*
D03*
X73000D02*
D03*
X63000D02*
D03*
X103000D02*
D03*
X113000D02*
D03*
X243000D02*
D03*
X253000D02*
D03*
X213000D02*
D03*
X233000D02*
D03*
X223000D02*
D03*
X273000D02*
D03*
X263000D02*
D03*
X173000D02*
D03*
X143000D02*
D03*
X163000D02*
D03*
X153000D02*
D03*
X183000D02*
D03*
X203000D02*
D03*
X193000D02*
D03*
D55*
X7252Y7000D02*
D03*
Y41016D02*
D03*
Y58984D02*
D03*
Y93000D02*
D03*
D56*
X23000Y7000D02*
D03*
Y41016D02*
D03*
Y58984D02*
D03*
Y93000D02*
D03*
D61*
X273000Y6000D02*
Y12957D01*
X271100Y14856D02*
X273000Y12957D01*
X271100Y14856D02*
Y15100D01*
D62*
X257202Y84243D02*
X257787Y83657D01*
X35399Y75829D02*
Y77528D01*
X34454Y74577D02*
Y74884D01*
X36801Y75875D02*
X37746Y74930D01*
Y74623D02*
Y74930D01*
X36801Y75875D02*
Y76947D01*
X34454Y74884D02*
X35399Y75829D01*
Y77528D02*
X36574Y78703D01*
X36801Y76947D02*
X37155Y77300D01*
X36574Y78703D02*
X42981D01*
X37155Y77300D02*
X42400D01*
X143000Y86700D02*
X144400Y85300D01*
X143000Y86700D02*
Y94000D01*
X144400Y85300D02*
X157672D01*
X159972Y83000D01*
X133000Y89200D02*
X139900Y82300D01*
X133000Y89200D02*
Y94000D01*
X139900Y82300D02*
X157843D01*
X159143Y81000D01*
X158315Y79000D02*
X171686D01*
X123000Y94000D02*
X137900Y79100D01*
X158215D01*
X158315Y79000D01*
X171686D02*
X175286Y75400D01*
X126214Y86986D02*
X136900Y76300D01*
X122214Y86986D02*
X126214D01*
X136900Y76300D02*
X171436D01*
X174336Y73400D01*
X129800Y79300D02*
X135500Y73600D01*
X171307D01*
X173507Y71400D01*
X126500Y79300D02*
X129800D01*
X120814Y84986D02*
X126500Y79300D01*
X117614Y82986D02*
X124000Y76600D01*
X115286Y82986D02*
X117614D01*
X124000Y76600D02*
X128100D01*
X134000Y70700D02*
X171379D01*
X128100Y76600D02*
X134000Y70700D01*
X171379D02*
X172679Y69400D01*
X126800Y64700D02*
X174500D01*
X115100Y76400D02*
X126800Y64700D01*
X109600Y76400D02*
X115100D01*
X101972Y82200D02*
X113100D01*
X122000Y73300D02*
X126000D01*
X113100Y82200D02*
X122000Y73300D01*
X126000D02*
X131200Y68100D01*
X171151D01*
X171851Y67400D01*
X176740D01*
X114900Y72300D02*
X125700Y61500D01*
X179818D01*
X113000Y94000D02*
X113995Y93005D01*
X116195D01*
X122214Y86986D01*
X113500Y89300D02*
X117814Y84986D01*
X120814D01*
X107700Y89300D02*
X113500D01*
X110972Y87300D02*
X115286Y82986D01*
X99700Y87300D02*
X110972D01*
X95972Y88200D02*
X101972Y82200D01*
X101643Y79700D02*
X106300D01*
X95143Y86200D02*
X101643Y79700D01*
X106300D02*
X109600Y76400D01*
X179818Y61500D02*
X181318Y60000D01*
X108400Y72300D02*
X114900D01*
X104100Y76600D02*
X108400Y72300D01*
X84228Y76600D02*
X104100D01*
X82100Y74472D02*
X84228Y76600D01*
X78899Y71271D02*
X82100Y74472D01*
X181318Y60000D02*
X195100D01*
X78899Y67208D02*
Y71271D01*
X73184Y61492D02*
X78899Y67208D01*
X70947Y61492D02*
X73184D01*
X115700Y65900D02*
X123400Y58200D01*
X108100Y65900D02*
X115700D01*
X100500Y73500D02*
X108100Y65900D01*
X177721Y58200D02*
X178321Y58800D01*
X178700D01*
X123400Y58200D02*
X177721D01*
X180647Y63500D02*
X181347Y62800D01*
X196204D02*
X204504Y54500D01*
X176740Y67400D02*
X180640Y63500D01*
X180647D01*
X181347Y62800D02*
X196204D01*
X195100Y60000D02*
X203000Y52100D01*
X223600Y18600D02*
X226200Y21200D01*
X213272Y16600D02*
X215272Y18600D01*
X223600D01*
X226200Y21200D02*
X231872D01*
X233272Y22600D01*
X239814Y24600D02*
X241100Y25886D01*
X232443Y24600D02*
X239814D01*
X217082Y20600D02*
X220482Y24000D01*
X231843D01*
X232443Y24600D01*
X241100Y25886D02*
Y26200D01*
X219258Y31358D02*
X229379D01*
X211400Y26600D02*
X214500D01*
X219258Y31358D01*
X214100Y33321D02*
X214732Y33953D01*
X212760Y32700D02*
X213382Y33321D01*
X198865Y28678D02*
X202886Y32700D01*
X212760D01*
X213382Y33321D02*
X214100D01*
X214732Y33953D02*
Y36014D01*
X212800Y39300D02*
X220918D01*
X208700Y43400D02*
X212800Y39300D01*
X200900Y43400D02*
X208700D01*
X194902Y37402D02*
X200900Y43400D01*
X169400Y37402D02*
X194902D01*
X204504Y54500D02*
X207600D01*
X197490Y67172D02*
X203461Y61200D01*
X182625Y67172D02*
X197490D01*
X203461Y61200D02*
X216000D01*
X217318Y63900D02*
X218118Y64700D01*
X203127Y69172D02*
X208398Y63900D01*
X217318D01*
X218118Y64700D02*
X222600D01*
X64000Y86400D02*
X71600Y94000D01*
X62486Y84886D02*
X64000Y86400D01*
X62486Y66847D02*
Y84886D01*
X71600Y94000D02*
X73000D01*
X62486Y66847D02*
X63833Y65500D01*
X68466D01*
X69365Y64600D01*
Y63074D02*
Y64600D01*
Y63074D02*
X70947Y61492D01*
X75900Y87000D02*
X85311D01*
X86111Y86200D01*
X95143D01*
X190636Y52612D02*
X191448D01*
X192360Y51700D01*
X190283Y52259D02*
X190636Y52612D01*
X190283Y50068D02*
Y52259D01*
X192360Y51700D02*
X192700D01*
X186800Y46585D02*
X190283Y50068D01*
X186800Y44019D02*
Y46585D01*
X185291Y42509D02*
X186800Y44019D01*
X166290Y42509D02*
X185291D01*
X158781Y35000D02*
X166290Y42509D01*
X154884Y35000D02*
X158781D01*
X148892Y29008D02*
X154884Y35000D01*
X138919Y27597D02*
X140330Y29008D01*
X148892D01*
X124097Y27597D02*
X138919D01*
X121707Y25207D02*
X124097Y27597D01*
X109420Y25207D02*
X121707D01*
X40353Y22308D02*
X43208D01*
X40344Y22298D02*
X40353Y22308D01*
X40344Y21753D02*
Y22298D01*
X40000Y21409D02*
X40344Y21753D01*
X43208Y22308D02*
X44719Y20797D01*
X105010D02*
X109420Y25207D01*
X44719Y20797D02*
X105010D01*
X192388Y54927D02*
X192727D01*
X191476Y54015D02*
X192388Y54927D01*
X188880Y52840D02*
X190055Y54015D01*
X191476D01*
X188880Y50649D02*
Y52840D01*
X185397Y47166D02*
X188880Y50649D01*
X185397Y44600D02*
Y47166D01*
X165709Y43912D02*
X184709D01*
X185397Y44600D01*
X158200Y36403D02*
X165709Y43912D01*
X154303Y36403D02*
X158200D01*
X148310Y30411D02*
X154303Y36403D01*
X139749Y30411D02*
X148310D01*
X138338Y29000D02*
X139749Y30411D01*
X123516Y29000D02*
X138338D01*
X121126Y26610D02*
X123516Y29000D01*
X108839Y26610D02*
X121126D01*
X40000Y24609D02*
X40344Y24266D01*
Y23720D02*
Y24266D01*
Y23720D02*
X40353Y23711D01*
X104429Y22200D02*
X108839Y26610D01*
X43789Y23711D02*
X45300Y22200D01*
X104429D01*
X40353Y23711D02*
X43789D01*
X42981Y78703D02*
X46983Y74701D01*
X49480D01*
X42400Y77300D02*
X46402Y73299D01*
X49480D01*
X50800Y71500D02*
Y71978D01*
X49480Y73299D02*
X50800Y71978D01*
Y76022D02*
Y76500D01*
X49480Y74701D02*
X50800Y76022D01*
X79060Y19100D02*
X105297D01*
X79641Y17697D02*
X105878D01*
X77509Y17549D02*
X79060Y19100D01*
X105297D02*
X110002Y23805D01*
X105878Y17697D02*
X110583Y22401D01*
X78912Y16968D02*
X79641Y17697D01*
X76400Y15200D02*
Y15343D01*
X77509Y16452D01*
X80021Y15101D02*
Y15244D01*
X78912Y16353D02*
Y16968D01*
X77509Y16452D02*
Y17549D01*
X78912Y16353D02*
X80021Y15244D01*
X110583Y22401D02*
X126401D01*
X128302Y24302D01*
X110002Y23805D02*
X125820D01*
X127720Y25705D01*
X139011D01*
X128302Y24302D02*
X139592D01*
X141492Y26202D01*
X139011Y25705D02*
X140911Y27604D01*
X150427D01*
X187803Y39703D02*
X193699Y45599D01*
X151008Y26202D02*
X156422Y31616D01*
X193699Y45599D02*
X221347D01*
X221700Y45245D01*
X141492Y26202D02*
X151008D01*
X168447Y39703D02*
X187803D01*
X166969Y38226D02*
X168447Y39703D01*
X166969Y38166D02*
Y38226D01*
X160419Y31616D02*
X166969Y38166D01*
X156422Y31616D02*
X160419D01*
X221700Y43000D02*
Y45245D01*
X167866Y41106D02*
X187222D01*
X193117Y47001D02*
X221347D01*
X187222Y41106D02*
X193117Y47001D01*
X165566Y38748D02*
Y38807D01*
X167866Y41106D01*
X159837Y33019D02*
X165566Y38748D01*
X155841Y33019D02*
X159837D01*
X150427Y27604D02*
X155841Y33019D01*
X221347Y47001D02*
X221700Y47355D01*
Y49600D01*
X98266Y10600D02*
X100885Y13219D01*
X67490Y6995D02*
X71095Y10600D01*
X98266D01*
X97438Y12600D02*
X100057Y15219D01*
X57490Y6995D02*
X63095Y12600D01*
X97438D01*
X220918Y39300D02*
X222218Y38000D01*
X222218D02*
X223318Y36900D01*
X222218Y38000D02*
X222218D01*
X202286Y40721D02*
X206679D01*
X208726Y38674D01*
X211700Y36000D02*
X211800Y36100D01*
X208421Y35321D02*
X209100Y36000D01*
X211700D01*
X202543Y35321D02*
X208421D01*
X196267Y34702D02*
X202286Y40721D01*
X223318Y36900D02*
X248944D01*
X251485Y34359D01*
X271628D01*
X273873Y32114D01*
Y23708D02*
Y32114D01*
X258765Y8600D02*
X273873Y23708D01*
X256905Y8600D02*
X258765D01*
X254305Y6000D02*
X256905Y8600D01*
X253000Y6000D02*
X254305D01*
X83000Y94000D02*
X88800Y88200D01*
X95972D01*
X243000Y94000D02*
X248300Y88700D01*
X259261D01*
X264480Y83480D01*
X93000Y94000D02*
X99700Y87300D01*
X172679Y69400D02*
X177568D01*
X181796Y65172D01*
X196661D01*
X203794Y58039D01*
X222461D01*
X132653Y22700D02*
X140900D01*
X142800Y24600D01*
X130753Y20800D02*
X132653Y22700D01*
X112809Y20800D02*
X130753D01*
X142800Y24600D02*
X151672D01*
X153672Y26600D01*
X100057Y15219D02*
X107228D01*
X112809Y20800D01*
X152500Y22600D02*
X154500Y24600D01*
X142743Y20700D02*
X144643Y22600D01*
X131582Y18800D02*
X133482Y20700D01*
X144643Y22600D02*
X152500D01*
X133482Y20700D02*
X142743D01*
X113638Y18800D02*
X131582D01*
X103995Y6995D02*
X107490D01*
X115295Y14800D02*
X136243D01*
X107490Y6995D02*
X115295Y14800D01*
X113000Y6000D02*
X119800Y12800D01*
X137072D01*
X136243Y14800D02*
X138043Y16600D01*
X108885Y11219D02*
X114466Y16800D01*
X135415D01*
X108057Y13219D02*
X113638Y18800D01*
X100885Y13219D02*
X108057D01*
X172515Y81000D02*
X176115Y77400D01*
X159143Y81000D02*
X172515D01*
X159972Y83000D02*
X173343D01*
X176943Y79400D01*
X153000Y92800D02*
X160800Y85000D01*
X174172D02*
X177772Y81400D01*
X153000Y92800D02*
Y94000D01*
X160800Y85000D02*
X174172D01*
X103000Y94000D02*
X107700Y89300D01*
X173507Y71400D02*
X178396D01*
X182625Y67172D01*
X208526Y66600D02*
X216200D01*
X174336Y73400D02*
X179225D01*
X183453Y69172D01*
X203127D01*
X175286Y75400D02*
X180114D01*
X180700Y74814D01*
Y74753D02*
Y74814D01*
Y74753D02*
X184282Y71172D01*
X203955D01*
X208526Y66600D01*
X209255Y69690D02*
Y70656D01*
Y69690D02*
X209522Y69422D01*
X195861Y73172D02*
X205243D01*
X207015Y71400D02*
X208510D01*
X209255Y70656D01*
X205243Y73172D02*
X207015Y71400D01*
X184282Y74000D02*
X195033D01*
X195861Y73172D01*
X176115Y77400D02*
X182114D01*
X182700Y76814D01*
Y75582D02*
Y76814D01*
Y75582D02*
X184282Y74000D01*
X209363Y73400D02*
X213263Y69500D01*
X207843Y73400D02*
X209363D01*
X213263Y69500D02*
X226914D01*
X215000Y75400D02*
X216900Y73500D01*
X217072D01*
X217172Y73400D01*
X226858D01*
X208672Y75400D02*
X215000D01*
X226858Y73400D02*
X228858Y71400D01*
X261134Y66048D02*
Y71173D01*
X258906Y63820D02*
X261134Y66048D01*
X229897Y63820D02*
X258906D01*
X228316Y65401D02*
X229897Y63820D01*
X228316Y65401D02*
Y68098D01*
X226914Y69500D02*
X228316Y68098D01*
X206072Y75172D02*
X207843Y73400D01*
X196689Y75172D02*
X206072D01*
X195161Y76700D02*
X196689Y75172D01*
X185400Y76700D02*
X195161D01*
X167383Y34702D02*
X196267D01*
X159282Y26600D02*
X167383Y34702D01*
X153672Y26600D02*
X159282D01*
X53000Y6000D02*
X53995Y6995D01*
X57490D01*
X63000Y6000D02*
X63995Y6995D01*
X67490D01*
X154500Y24600D02*
X161400D01*
X163400Y26600D01*
X167000D01*
X169000Y28600D01*
X172743D01*
X176845Y32702D01*
X196331D01*
X196354Y32678D01*
X197072D01*
X202414Y38021D01*
X205200D01*
X214732Y36014D02*
X215318Y36600D01*
X219800D01*
X93000Y6000D02*
X93995Y6995D01*
X97490D01*
X101713Y11219D01*
X108885D01*
X135415Y16800D02*
X137215Y18600D01*
X143472D01*
X145472Y20600D01*
X153600D01*
X155600Y22600D01*
X162300D01*
X164300Y24600D01*
X167972D01*
X169972Y26600D01*
X173572D01*
X177673Y30702D01*
X195503D01*
X195526Y30678D01*
X197900D01*
X202543Y35321D01*
X103000Y6000D02*
X103995Y6995D01*
X138043Y16600D02*
X144300D01*
X146300Y18600D01*
X154700D01*
X156700Y20600D01*
X163600D01*
X165600Y22600D01*
X168800D01*
X170800Y24600D01*
X174400D01*
X178502Y28702D01*
X194674D01*
X194698Y28678D01*
X198865D01*
X137072Y12800D02*
X138872Y14600D01*
X145172D01*
X147172Y16600D01*
X155715D01*
X157715Y18600D01*
X164600D01*
X166600Y20600D01*
X169843D01*
X171843Y22600D01*
X175272D01*
X179373Y26702D01*
X193846D01*
X193869Y26678D01*
X199693D01*
X203636Y30621D01*
X214500D01*
X123000Y6000D02*
X127800Y10800D01*
X137900D01*
X139700Y12600D01*
X146000D01*
X148000Y14600D01*
X156543D01*
X158543Y16600D01*
X165781D01*
X167781Y18600D01*
X170672D01*
X172672Y20600D01*
X176100D01*
X180202Y24702D01*
X193017D01*
X193041Y24678D01*
X200522D01*
X203143Y27300D01*
X208282D01*
X214443Y20600D02*
X217082D01*
X141095Y10600D02*
X146900D01*
X148900Y12600D01*
X133000Y6000D02*
X133995Y6995D01*
X137490D01*
X141095Y10600D01*
X148900Y12600D02*
X157372D01*
X159372Y14600D01*
X166609D01*
X168609Y16600D01*
X171500D01*
X173500Y18600D01*
X177200D01*
X181302Y22702D01*
X192189D01*
X192277Y22614D01*
X201286D01*
X203272Y24600D01*
X209400D01*
X211400Y26600D01*
X229379Y31358D02*
X230621Y32600D01*
X231000D01*
X236914Y26658D02*
X237600Y27344D01*
Y32600D01*
X215425Y24600D02*
X220183Y29358D01*
X234300D01*
X213615Y22600D02*
X216253D01*
X220353Y26700D01*
X231550D01*
X151095Y10600D02*
X158200D01*
X160200Y12600D01*
X143000Y6000D02*
X143995Y6995D01*
X147490D01*
X151095Y10600D01*
X160200Y12600D02*
X165734D01*
X165767Y12567D01*
X167405D01*
X169438Y14600D01*
X173115D01*
X175115Y16600D01*
X184715D01*
X188715Y20600D01*
X202100D01*
X204100Y22600D01*
X210700D01*
X212700Y24600D01*
X215425D01*
X153000Y6000D02*
X153995Y6995D01*
X157490D01*
X161095Y10600D01*
X164905D01*
X164938Y10567D01*
X168233D01*
X170266Y12600D01*
X173943D01*
X175943Y14600D01*
X185543D01*
X189543Y18600D01*
X203172D01*
X205172Y20600D01*
X211615D01*
X213615Y22600D01*
X231550Y26700D02*
X231592Y26658D01*
X236914D01*
X163000Y6000D02*
X163995Y6995D01*
X167490D01*
X171095Y10600D01*
X174772D01*
X176772Y12600D01*
X186372D01*
X190372Y16600D01*
X204000D01*
X206000Y18600D01*
X212443D01*
X214443Y20600D01*
X173000Y6000D02*
X177600Y10600D01*
X187200D01*
X191200Y14600D01*
X204872D01*
X206872Y16600D01*
X213272D01*
X233272Y22600D02*
X243814D01*
X244400Y23186D01*
Y30600D01*
X241095Y10600D02*
X256518D01*
X237490Y6995D02*
X241095Y10600D01*
X256518D02*
X264480Y18562D01*
X253500Y13186D02*
Y15218D01*
X238100Y12600D02*
X252914D01*
X253500Y13186D01*
X236200Y10700D02*
X238100Y12600D01*
X236900Y14600D02*
X250053D01*
X230366Y12700D02*
X235000D01*
X236900Y14600D01*
X250053D02*
X255253Y19800D01*
X234000Y14700D02*
X235900Y16600D01*
X249225D01*
X229400Y14600D02*
X229438D01*
X229538Y14700D01*
X227400Y12600D02*
X229400Y14600D01*
X249225Y16600D02*
X254441Y21816D01*
X229538Y14700D02*
X234000D01*
X228672Y16700D02*
X233100D01*
X235000Y18600D01*
X248396D01*
X251095Y21298D01*
X232200Y18700D02*
X234100Y20600D01*
X247748Y21186D02*
Y24827D01*
X234100Y20600D02*
X247162D01*
X227843Y18700D02*
X232200D01*
X247162Y20600D02*
X247748Y21186D01*
X225743Y16600D02*
X227843Y18700D01*
X226572Y14600D02*
X228672Y16700D01*
X228266Y10600D02*
X230366Y12700D01*
X231195Y10700D02*
X236200D01*
X227490Y6995D02*
X231195Y10700D01*
X183000Y6000D02*
X183995Y6995D01*
X187490D01*
X193095Y12600D01*
X205700D01*
X207700Y14600D01*
X214100D01*
X216100Y16600D01*
X225743D01*
X217800Y10600D02*
X219800Y12600D01*
X211095Y10600D02*
X217800D01*
X201095D02*
X206800D01*
X208800Y12600D01*
X193000Y6000D02*
X193995Y6995D01*
X197490D01*
X201095Y10600D01*
X208800Y12600D02*
X215200D01*
X217200Y14600D01*
X226572D01*
X251095Y21298D02*
Y29480D01*
X203000Y6000D02*
X203995Y6995D01*
X207490D01*
X211095Y10600D01*
X219800Y12600D02*
X227400D01*
X254441Y21816D02*
Y24827D01*
X213000Y6000D02*
X213995Y6995D01*
X217490D01*
X221095Y10600D01*
X228266D01*
X255253Y19800D02*
X257202D01*
X257787Y20386D01*
Y29480D01*
X256082Y17800D02*
X260548D01*
X261134Y18386D01*
Y24827D01*
X223000Y6000D02*
X223995Y6995D01*
X227490D01*
X253500Y15218D02*
X256082Y17800D01*
X233000Y6000D02*
X233995Y6995D01*
X237490D01*
X264480Y18562D02*
Y29480D01*
X246157Y82243D02*
X253855D01*
X254441Y81657D01*
X235000Y85400D02*
X243000D01*
X246157Y82243D01*
X254441Y71173D02*
Y81657D01*
X217600Y89400D02*
X222000D01*
X224000Y87400D01*
X213000Y94000D02*
X217600Y89400D01*
X233000Y87400D02*
X235000Y85400D01*
X224000Y87400D02*
X233000D01*
X227686Y75400D02*
X229686Y73400D01*
X231258D01*
X216000Y77400D02*
X218000Y75400D01*
X227686D01*
X234094Y71441D02*
X234362Y71173D01*
X231258Y73400D02*
X233217Y71441D01*
X234094D01*
X177772Y81400D02*
X199672D01*
X207500Y79400D02*
X209500Y77400D01*
X216000D01*
X199672Y81400D02*
X201672Y79400D01*
X207500D01*
X229343D02*
X231343Y77400D01*
X220500Y79400D02*
X229343D01*
X231343Y77400D02*
X239500D01*
X212500Y81400D02*
X218500D01*
X220500Y79400D01*
X239500Y77400D02*
X241055Y75845D01*
Y71173D02*
Y75845D01*
X176500Y89500D02*
X180995D01*
X185095Y85400D01*
X173000Y93000D02*
Y94000D01*
Y93000D02*
X176500Y89500D01*
X204000Y83400D02*
X210500D01*
X212500Y81400D01*
X185095Y85400D02*
X202000D01*
X204000Y83400D01*
X232172Y79400D02*
X240343D01*
X230172Y81400D02*
X232172Y79400D01*
X240343D02*
X244402Y75342D01*
X219515Y83400D02*
X221515Y81400D01*
X230172D01*
X244402Y66520D02*
Y75342D01*
X189600Y87400D02*
X203507D01*
X205507Y85400D01*
X183000Y94000D02*
X189600Y87400D01*
X214000Y83400D02*
X219515D01*
X205507Y85400D02*
X212000D01*
X214000Y83400D01*
X243943Y87400D02*
X247100Y84243D01*
X257202D01*
X257787Y66520D02*
Y83657D01*
X223000Y94000D02*
X227600Y89400D01*
X234000D01*
X236000Y87400D02*
X243943D01*
X234000Y89400D02*
X236000Y87400D01*
X206672Y77400D02*
X208672Y75400D01*
X200843Y77400D02*
X206672D01*
X231016Y66520D02*
Y70814D01*
X228858Y71400D02*
X230430D01*
X231016Y70814D01*
X176943Y79400D02*
X198843D01*
X200843Y77400D01*
X245157Y80243D02*
X250509D01*
X242000Y83400D02*
X245157Y80243D01*
X250509D02*
X251095Y79657D01*
X232000Y85400D02*
X234000Y83400D01*
X242000D01*
X251095Y66520D02*
Y79657D01*
X207600Y89400D02*
X214000D01*
X216000Y87400D01*
X203000Y94000D02*
X207600Y89400D01*
X223172Y85400D02*
X232000D01*
X216000Y87400D02*
X221172D01*
X223172Y85400D01*
X228515Y77400D02*
X230515Y75400D01*
X219500Y77400D02*
X228515D01*
X230515Y75400D02*
X237123D01*
X211000Y79400D02*
X217500D01*
X219500Y77400D01*
X237123Y75400D02*
X237709Y74814D01*
Y66520D02*
Y74814D01*
X175000Y87000D02*
X178600Y83400D01*
X170000Y87000D02*
X175000D01*
X178600Y83400D02*
X200500D01*
X163000Y94000D02*
X170000Y87000D01*
X209000Y81400D02*
X211000Y79400D01*
X200500Y83400D02*
X202500Y81400D01*
X209000D01*
X244329Y78243D02*
X247247D01*
X241172Y81400D02*
X244329Y78243D01*
X247247D02*
X247833Y77657D01*
X231000Y83400D02*
X233000Y81400D01*
X241172D01*
X247748Y71173D02*
X247833Y71258D01*
Y77657D01*
X204336Y89400D02*
X206336Y87400D01*
X197600Y89400D02*
X204336D01*
X206336Y87400D02*
X213172D01*
X193000Y94000D02*
X197600Y89400D01*
X220343Y85400D02*
X222343Y83400D01*
X231000D01*
X213172Y87400D02*
X215172Y85400D01*
X220343D01*
X264480Y66520D02*
Y83480D01*
D63*
X53141Y57766D02*
Y64862D01*
X55550Y86550D02*
X63000Y94000D01*
X53141Y64862D02*
X55550Y67271D01*
Y86550D01*
X44875Y49500D02*
X53141Y57766D01*
X37500Y49500D02*
X44875D01*
X51042D01*
X52893Y47650D02*
X68050D01*
X51042Y49500D02*
X52893Y47650D01*
X68050D02*
X70100Y49700D01*
D68*
X37500Y44500D02*
D03*
Y49500D02*
D03*
X162500Y50000D02*
D03*
D69*
X37500Y54500D02*
D03*
D70*
X157500Y50000D02*
D03*
D71*
X34454Y74577D02*
D03*
X37746Y74623D02*
D03*
X207600Y54500D02*
D03*
X238000Y60900D02*
D03*
X262300Y63100D02*
D03*
X254600Y31200D02*
D03*
X248200Y31700D02*
D03*
X231200Y60800D02*
D03*
X189600Y56600D02*
D03*
X230700Y56200D02*
D03*
X234200Y33900D02*
D03*
X195000Y41700D02*
D03*
X64786Y67800D02*
D03*
X33749Y23749D02*
D03*
Y21251D02*
D03*
X93700Y82900D02*
D03*
X82900Y51100D02*
D03*
X47058Y18340D02*
D03*
X174500Y64700D02*
D03*
X70100Y49700D02*
D03*
X64600Y51100D02*
D03*
X29200Y88600D02*
D03*
X279600Y77200D02*
D03*
X267600Y87700D02*
D03*
X277614Y71425D02*
D03*
X274520Y71173D02*
D03*
X277614Y58039D02*
D03*
Y61386D02*
D03*
Y54693D02*
D03*
Y68079D02*
D03*
Y64732D02*
D03*
X180438Y86238D02*
D03*
X163600Y87700D02*
D03*
X254445Y58941D02*
D03*
X265382Y54492D02*
D03*
X243500Y54500D02*
D03*
X214382Y72200D02*
D03*
X184500Y57300D02*
D03*
X277614Y34614D02*
D03*
Y48000D02*
D03*
Y51346D02*
D03*
Y44653D02*
D03*
X265382Y47996D02*
D03*
X277614Y41307D02*
D03*
X265382Y41500D02*
D03*
X277614Y37961D02*
D03*
Y24575D02*
D03*
Y27921D02*
D03*
Y31268D02*
D03*
X271173Y24827D02*
D03*
X267827D02*
D03*
X257700Y51500D02*
D03*
X251100Y51200D02*
D03*
X257400Y44700D02*
D03*
X254437Y37059D02*
D03*
X251200Y44900D02*
D03*
X230480Y49695D02*
D03*
X243500Y48004D02*
D03*
X247945Y41504D02*
D03*
X230516Y42869D02*
D03*
X243500Y41508D02*
D03*
X222100Y21300D02*
D03*
X257200Y15100D02*
D03*
X184298Y20002D02*
D03*
X168200Y31700D02*
D03*
X158163Y29300D02*
D03*
X72800Y77100D02*
D03*
Y73200D02*
D03*
X72065Y64192D02*
D03*
X69800Y87500D02*
D03*
X68600Y77200D02*
D03*
X68900Y73100D02*
D03*
X104100Y60600D02*
D03*
X104400Y47800D02*
D03*
X83700Y58800D02*
D03*
X80600Y54800D02*
D03*
X54900Y51900D02*
D03*
X52100Y86500D02*
D03*
X48400Y78900D02*
D03*
X36100Y81800D02*
D03*
X41200Y73700D02*
D03*
X49700Y66300D02*
D03*
X38800Y70000D02*
D03*
X29000Y63400D02*
D03*
X35400Y59900D02*
D03*
X104800Y36500D02*
D03*
X101800D02*
D03*
X107600Y36400D02*
D03*
X98600Y36600D02*
D03*
X101700Y32800D02*
D03*
X107500Y32700D02*
D03*
X104700Y29100D02*
D03*
X107500Y29000D02*
D03*
X104700Y32800D02*
D03*
X101700Y29100D02*
D03*
X98500Y32900D02*
D03*
X95700Y36500D02*
D03*
X95600Y32800D02*
D03*
X98500Y29200D02*
D03*
X95600Y29100D02*
D03*
X59400Y31400D02*
D03*
X72400Y15300D02*
D03*
X83215D02*
D03*
X55400Y31400D02*
D03*
X51500Y34800D02*
D03*
X51200Y31400D02*
D03*
X39600Y34800D02*
D03*
X48300Y30300D02*
D03*
X31100Y39200D02*
D03*
X39200Y28900D02*
D03*
X38850Y16450D02*
D03*
X30600Y11200D02*
D03*
X192700Y51700D02*
D03*
X40000Y21409D02*
D03*
X192727Y54927D02*
D03*
X40000Y24609D02*
D03*
X50800Y71500D02*
D03*
Y76500D02*
D03*
X80021Y15101D02*
D03*
X76400Y15200D02*
D03*
X208726Y38674D02*
D03*
X211800Y36100D02*
D03*
X221700Y43000D02*
D03*
Y49600D02*
D03*
X203000Y52100D02*
D03*
X51100Y17200D02*
D03*
X55400Y17300D02*
D03*
X59700Y17100D02*
D03*
X169400Y37402D02*
D03*
X278000Y85900D02*
D03*
X273700Y87400D02*
D03*
X271100Y15100D02*
D03*
X88163Y83392D02*
D03*
X202190Y66290D02*
D03*
X83300Y83400D02*
D03*
X75900Y87000D02*
D03*
X100500Y73500D02*
D03*
X178700Y58800D02*
D03*
X96528Y67986D02*
D03*
X222461Y58039D02*
D03*
X216000Y61200D02*
D03*
X216200Y66600D02*
D03*
X222600Y64700D02*
D03*
X185400Y76700D02*
D03*
X209522Y69422D02*
D03*
X205200Y38021D02*
D03*
X219800Y36600D02*
D03*
X214500Y30621D02*
D03*
X208282Y27300D02*
D03*
X231000Y32600D02*
D03*
X237600D02*
D03*
X234300Y29358D02*
D03*
X241100Y26200D02*
D03*
X244400Y30600D02*
D03*
X257787Y29480D02*
D03*
X254441Y71173D02*
D03*
X234362D02*
D03*
X241055D02*
D03*
X261134Y24827D02*
D03*
X244402Y66520D02*
D03*
X257787D02*
D03*
X231016D02*
D03*
X251095D02*
D03*
X237709D02*
D03*
X247748Y71173D02*
D03*
X264480Y29480D02*
D03*
X254441Y24827D02*
D03*
X247748D02*
D03*
X251095Y29480D02*
D03*
X261134Y71173D02*
D03*
X264480Y66520D02*
D03*
M02*
