G04*
G04 #@! TF.GenerationSoftware,Altium Limited,Altium Designer,26.9.1 (10)*
G04*
G04 Layer_Physical_Order=3*
G04 Layer_Color=32768*
G04 Board_Origin=100000000|100000000*
%FSLAX25Y25*%
%MOIN*%
G70*
G04*
G04 #@! TF.SameCoordinates,6EF0B23D-BCFA-4A29-A2E0-F4787A1BABFB*
G04*
G04*
G04 #@! TF.FilePolarity,Negative*
G04*
G01*
G75*
%ADD74C,0.04000*%
%ADD76C,0.08200*%
G04:AMPARAMS|DCode=77|XSize=102mil|YSize=102mil|CornerRadius=0mil|HoleSize=0mil|Usage=FLASHONLY|Rotation=0.000|XOffset=0mil|YOffset=0mil|HoleType=Round|Shape=Relief|Width=20mil|Gap=10mil|Entries=4|*
%AMTHD77*
7,0,0,0.10200,0.08200,0.02000,45*
%
%ADD77THD77*%
%AMTHOVALD78*
21,1,0.04724,0.08362,0,0,360.0*
1,1,0.08362,-0.02362,0.00000*
1,1,0.08362,0.02362,0.00000*
21,0,0.04724,0.06362,0,0,360.0*
1,0,0.06362,-0.02362,0.00000*
1,0,0.06362,0.02362,0.00000*
4,0,4,-0.01655,-0.00707,-0.04612,-0.03664,-0.06026,-0.02249,-0.03069,0.00707,-0.01655,-0.00707,0.0*
4,0,4,0.03069,-0.00707,0.06026,0.02249,0.04612,0.03664,0.01655,0.00707,0.03069,-0.00707,0.0*
4,0,4,-0.03069,-0.00707,-0.06026,0.02249,-0.04612,0.03664,-0.01655,0.00707,-0.03069,-0.00707,0.0*
4,0,4,0.01655,-0.00707,0.04612,-0.03664,0.06026,-0.02249,0.03069,0.00707,0.01655,-0.00707,0.0*
%
%ADD78THOVALD78*%

%AMTHOVALD79*
21,1,0.03150,0.08362,0,0,360.0*
1,1,0.08362,-0.01575,0.00000*
1,1,0.08362,0.01575,0.00000*
21,0,0.03150,0.06362,0,0,360.0*
1,0,0.06362,-0.01575,0.00000*
1,0,0.06362,0.01575,0.00000*
4,0,4,-0.00868,-0.00707,-0.03824,-0.03664,-0.05238,-0.02249,-0.02282,0.00707,-0.00868,-0.00707,0.0*
4,0,4,0.02282,-0.00707,0.05238,0.02249,0.03824,0.03664,0.00868,0.00707,0.02282,-0.00707,0.0*
4,0,4,-0.02282,-0.00707,-0.05238,0.02249,-0.03824,0.03664,-0.00868,0.00707,-0.02282,-0.00707,0.0*
4,0,4,0.00868,-0.00707,0.03824,-0.03664,0.05238,-0.02249,0.02282,0.00707,0.00868,-0.00707,0.0*
%
%ADD79THOVALD79*%

%ADD80C,0.06800*%
%ADD81C,0.05200*%
D74*
X0Y0D02*
Y100000D01*
X285000D01*
Y0D02*
Y100000D01*
X0Y0D02*
X285000D01*
D76*
X123000Y94000D02*
D03*
X133000D02*
D03*
X83000D02*
D03*
X93000D02*
D03*
X43000D02*
D03*
X73000D02*
D03*
X63000D02*
D03*
X103000D02*
D03*
X113000D02*
D03*
X243000D02*
D03*
X253000D02*
D03*
X213000D02*
D03*
X233000D02*
D03*
X223000D02*
D03*
X263000D02*
D03*
X173000D02*
D03*
X143000D02*
D03*
X163000D02*
D03*
X153000D02*
D03*
X183000D02*
D03*
X203000D02*
D03*
X193000D02*
D03*
X123000Y6000D02*
D03*
X133000D02*
D03*
X83000D02*
D03*
X93000D02*
D03*
X53000D02*
D03*
X73000D02*
D03*
X63000D02*
D03*
X103000D02*
D03*
X113000D02*
D03*
X243000D02*
D03*
X253000D02*
D03*
X213000D02*
D03*
X233000D02*
D03*
X223000D02*
D03*
X273000D02*
D03*
X173000D02*
D03*
X143000D02*
D03*
X163000D02*
D03*
X153000D02*
D03*
X183000D02*
D03*
X203000D02*
D03*
X193000D02*
D03*
D77*
X53000Y94000D02*
D03*
X273000D02*
D03*
X43000Y6000D02*
D03*
X263000D02*
D03*
D78*
X7252Y7000D02*
D03*
Y41016D02*
D03*
Y58984D02*
D03*
Y93000D02*
D03*
D79*
X23000Y7000D02*
D03*
Y41016D02*
D03*
Y58984D02*
D03*
Y93000D02*
D03*
D80*
X37500Y44500D02*
D03*
Y54500D02*
D03*
Y49500D02*
D03*
X157500Y50000D02*
D03*
X162500D02*
D03*
D81*
X34454Y74577D02*
D03*
X37746Y74623D02*
D03*
X207600Y54500D02*
D03*
X64786Y67800D02*
D03*
X82900Y51100D02*
D03*
X174500Y64700D02*
D03*
X70100Y49700D02*
D03*
X192700Y51700D02*
D03*
X40000Y21409D02*
D03*
X192727Y54927D02*
D03*
X40000Y24609D02*
D03*
X50800Y71500D02*
D03*
Y76500D02*
D03*
X80021Y15101D02*
D03*
X76400Y15200D02*
D03*
X208726Y38674D02*
D03*
X211800Y36100D02*
D03*
X221700Y43000D02*
D03*
Y49600D02*
D03*
X203000Y52100D02*
D03*
X51100Y17200D02*
D03*
X55400Y17300D02*
D03*
X59700Y17100D02*
D03*
X169400Y37402D02*
D03*
X278000Y85900D02*
D03*
X273700Y87400D02*
D03*
X271100Y15100D02*
D03*
X88163Y83392D02*
D03*
X202190Y66290D02*
D03*
X83300Y83400D02*
D03*
X75900Y87000D02*
D03*
X100500Y73500D02*
D03*
X178700Y58800D02*
D03*
X96528Y67986D02*
D03*
X222461Y58039D02*
D03*
X216000Y61200D02*
D03*
X216200Y66600D02*
D03*
X222600Y64700D02*
D03*
X185400Y76700D02*
D03*
X209522Y69422D02*
D03*
X205200Y38021D02*
D03*
X219800Y36600D02*
D03*
X214500Y30621D02*
D03*
X208282Y27300D02*
D03*
X231000Y32600D02*
D03*
X237600D02*
D03*
X234300Y29358D02*
D03*
X241100Y26200D02*
D03*
X244400Y30600D02*
D03*
X257787Y29480D02*
D03*
X254441Y71173D02*
D03*
X234362D02*
D03*
X241055D02*
D03*
X261134Y24827D02*
D03*
X244402Y66520D02*
D03*
X257787D02*
D03*
X231016D02*
D03*
X251095D02*
D03*
X237709D02*
D03*
X247748Y71173D02*
D03*
X264480Y29480D02*
D03*
X254441Y24827D02*
D03*
X247748D02*
D03*
X251095Y29480D02*
D03*
X261134Y71173D02*
D03*
X264480Y66520D02*
D03*
M02*
