G04*
G04 #@! TF.GenerationSoftware,Altium Limited,Altium Designer,26.9.1 (10)*
G04*
G04 Layer_Color=65535*
G04 Board_Origin=100000000|100000000*
%FSLAX25Y25*%
%MOIN*%
G70*
G04*
G04 #@! TF.SameCoordinates,6EF0B23D-BCFA-4A29-A2E0-F4787A1BABFB*
G04*
G04*
G04 #@! TF.FilePolarity,Positive*
G04*
G01*
G75*
%ADD10C,0.00984*%
%ADD11C,0.02000*%
%ADD12C,0.00787*%
%ADD13C,0.00600*%
%ADD14C,0.00500*%
D10*
X172894Y20768D02*
G03*
X172894Y20768I-492J0D01*
G01*
X181020Y60500D02*
G03*
X181020Y60500I-492J0D01*
G01*
X30283Y36587D02*
G03*
X30283Y36587I-492J0D01*
G01*
X66189Y41992D02*
G03*
X66189Y41992I-492J0D01*
G01*
X30283Y88571D02*
G03*
X30283Y88571I-492J0D01*
G01*
D11*
X283500Y94000D02*
G03*
X283500Y94000I-1500J0D01*
G01*
Y6000D02*
G03*
X283500Y6000I-1500J0D01*
G01*
D12*
X278260Y81268D02*
G03*
X278260Y81268I-394J0D01*
G01*
X195509Y57452D02*
X202005D01*
X195509Y63948D02*
X202005D01*
X195452Y68852D02*
X201948D01*
X195452Y75348D02*
X201948D01*
X177954Y17739D02*
Y25661D01*
X184646Y17739D02*
Y25661D01*
X73985Y52143D02*
X78995D01*
X55343Y35486D02*
Y40495D01*
X60658Y35486D02*
Y40495D01*
X41653Y78768D02*
Y86492D01*
X48346Y78768D02*
Y86492D01*
X41653Y68508D02*
Y76232D01*
X48346Y68508D02*
Y76232D01*
X41653Y23508D02*
Y31233D01*
X48346Y23508D02*
Y31233D01*
X41653Y13137D02*
Y20863D01*
X48346Y13137D02*
Y20863D01*
X111487Y57345D02*
Y62055D01*
X122313Y57345D02*
Y62055D01*
X111487Y74045D02*
Y78755D01*
X122313Y74045D02*
Y78755D01*
X93345Y42487D02*
X98055D01*
X93345Y53313D02*
X98055D01*
X93245Y54187D02*
X97955D01*
X93245Y65013D02*
X97955D01*
X175887Y32245D02*
Y36955D01*
X186713Y32245D02*
Y36955D01*
X53133Y68941D02*
X57267D01*
X53133Y74059D02*
X57267D01*
X53133Y73941D02*
X57267D01*
X53133Y79059D02*
X57267D01*
X213233Y81141D02*
X217367D01*
X213233Y86259D02*
X217367D01*
X213233Y75941D02*
X217367D01*
X213233Y81059D02*
X217367D01*
X71020Y63567D02*
X82092D01*
X46020Y51933D02*
X57092D01*
X46020Y59067D02*
X57092D01*
X46064Y59033D02*
X57136D01*
X46064Y66167D02*
X57136D01*
X83964Y75633D02*
X95036D01*
X83964Y82767D02*
X95036D01*
X253164Y80033D02*
X264236D01*
X253164Y87167D02*
X264236D01*
X49764Y79333D02*
X60836D01*
X49764Y86467D02*
X60836D01*
X172333Y69620D02*
Y80692D01*
X179467Y69620D02*
Y80692D01*
X151732Y73524D02*
Y76476D01*
X155374Y68701D02*
X164626D01*
X155374Y81299D02*
X164626D01*
X168268Y73524D02*
Y76476D01*
X151732Y23524D02*
Y26476D01*
X155374Y18701D02*
X164626D01*
X168268Y23524D02*
Y26476D01*
X155374Y31299D02*
X164626D01*
X183874Y63059D02*
X188795D01*
X183874Y57941D02*
X188795D01*
X-1409Y6016D02*
Y42000D01*
X13059Y6016D02*
X17980D01*
X-1409D02*
X1445D01*
X-1409Y42000D02*
X1445D01*
X13059D02*
X17980D01*
X133644Y58617D02*
Y60783D01*
X135475Y53794D02*
X139156D01*
Y57042D01*
X135475Y65605D02*
X139156D01*
Y62357D02*
Y65605D01*
X63126Y67126D02*
Y69095D01*
Y67126D02*
X65095D01*
X63126Y80905D02*
Y82874D01*
X65095D01*
X76906Y67126D02*
X78874D01*
Y69095D01*
X76906Y82874D02*
X78874D01*
Y80905D02*
Y82874D01*
X70323Y15811D02*
Y42189D01*
X85677D01*
X70323Y15811D02*
X85677D01*
Y42189D01*
X184491Y69939D02*
X187640D01*
X184491Y74861D02*
X187640D01*
X-1409Y58000D02*
Y93984D01*
X13059Y58000D02*
X17980D01*
X-1409D02*
X1445D01*
X-1409Y93984D02*
X1445D01*
X13059D02*
X17980D01*
X133744Y75317D02*
Y77483D01*
X135575Y70495D02*
X139256D01*
Y73743D01*
X135575Y82306D02*
X139256D01*
Y79058D02*
Y82306D01*
D13*
X33600Y74900D02*
Y81900D01*
Y74900D02*
X38600D01*
X33600Y81900D02*
X38600D01*
Y74900D02*
Y81900D01*
X32850Y32300D02*
Y37300D01*
Y32300D02*
X39850D01*
X32850Y37300D02*
X39850D01*
Y32300D02*
Y37300D01*
X33400Y14200D02*
Y21200D01*
Y14200D02*
X38400D01*
X33400Y21200D02*
X38400D01*
Y14200D02*
Y21200D01*
X37500Y88600D02*
Y99400D01*
Y88600D02*
X278500D01*
X37500Y99400D02*
X278500D01*
Y88600D02*
Y99400D01*
X37500Y600D02*
Y11400D01*
Y600D02*
X278500D01*
X37500Y11400D02*
X278500D01*
Y600D02*
Y11400D01*
X33250Y40500D02*
Y58500D01*
Y40500D02*
X41750D01*
X33250Y58500D02*
X41750D01*
Y40500D02*
Y58500D01*
X33100Y59700D02*
Y64700D01*
Y59700D02*
X40100D01*
X33100Y64700D02*
X40100D01*
Y59700D02*
Y64700D01*
X33600Y67300D02*
Y74300D01*
Y67300D02*
X38600D01*
X33600Y74300D02*
X38600D01*
Y67300D02*
Y74300D01*
X33400Y23800D02*
Y30800D01*
Y23800D02*
X38400D01*
X33400Y30800D02*
X38400D01*
Y23800D02*
Y30800D01*
X153500Y45750D02*
X166500D01*
X153500D02*
Y54250D01*
X166500D01*
Y45750D02*
Y54250D01*
X83500Y11500D02*
Y14500D01*
X133000Y11500D02*
Y14500D01*
X183000Y11500D02*
Y14500D01*
X233000Y11500D02*
Y14500D01*
Y85500D02*
Y88500D01*
X82500Y85500D02*
Y88500D01*
X133000Y85500D02*
Y88500D01*
X183000Y85500D02*
Y88500D01*
X184100Y51600D02*
Y55599D01*
X186099D01*
X186766Y54932D01*
Y53599D01*
X186099Y52933D01*
X184100D01*
X188099Y55599D02*
Y51600D01*
X189432Y52933D01*
X190764Y51600D01*
Y55599D01*
X192097Y51600D02*
Y55599D01*
X194097D01*
X194763Y54932D01*
Y53599D01*
X194097Y52933D01*
X192097D01*
X193430D02*
X194763Y51600D01*
X200095Y55599D02*
Y51600D01*
X202761D01*
X206759Y55599D02*
X204094D01*
Y51600D01*
X206759D01*
X204094Y53599D02*
X205427D01*
X208092Y55599D02*
Y51600D01*
X210092D01*
X210758Y52266D01*
Y54932D01*
X210092Y55599D01*
X208092D01*
X184100Y81099D02*
Y77766D01*
X184766Y77100D01*
X186099D01*
X186766Y77766D01*
Y81099D01*
X190764Y80432D02*
X190098Y81099D01*
X188765D01*
X188099Y80432D01*
Y79766D01*
X188765Y79099D01*
X190098D01*
X190764Y78433D01*
Y77766D01*
X190098Y77100D01*
X188765D01*
X188099Y77766D01*
X192097Y77100D02*
Y81099D01*
X194097D01*
X194763Y80432D01*
Y79099D01*
X194097Y78433D01*
X192097D01*
X193430D02*
X194763Y77100D01*
X200095Y81099D02*
Y77100D01*
X202761D01*
X206759Y81099D02*
X204094D01*
Y77100D01*
X206759D01*
X204094Y79099D02*
X205427D01*
X208092Y81099D02*
Y77100D01*
X210092D01*
X210758Y77766D01*
Y80432D01*
X210092Y81099D01*
X208092D01*
X153100Y66599D02*
Y62600D01*
X155099D01*
X155766Y63266D01*
Y63933D01*
X155099Y64599D01*
X153100D01*
X155099D01*
X155766Y65266D01*
Y65932D01*
X155099Y66599D01*
X153100D01*
X159098D02*
X157765D01*
X157099Y65932D01*
Y63266D01*
X157765Y62600D01*
X159098D01*
X159765Y63266D01*
Y65932D01*
X159098Y66599D01*
X163097D02*
X161764D01*
X161097Y65932D01*
Y63266D01*
X161764Y62600D01*
X163097D01*
X163763Y63266D01*
Y65932D01*
X163097Y66599D01*
X165096D02*
X167762D01*
X166429D01*
Y62600D01*
X152100Y34600D02*
Y38599D01*
X154099D01*
X154766Y37932D01*
Y36599D01*
X154099Y35933D01*
X152100D01*
X153433D02*
X154766Y34600D01*
X158765Y38599D02*
X156099D01*
Y34600D01*
X158765D01*
X156099Y36599D02*
X157432D01*
X162763Y37932D02*
X162097Y38599D01*
X160764D01*
X160097Y37932D01*
Y37266D01*
X160764Y36599D01*
X162097D01*
X162763Y35933D01*
Y35266D01*
X162097Y34600D01*
X160764D01*
X160097Y35266D01*
X166762Y38599D02*
X164096D01*
Y34600D01*
X166762D01*
X164096Y36599D02*
X165429D01*
X168095Y38599D02*
X170761D01*
X169428D01*
Y34600D01*
X169100Y49932D02*
X169766Y50599D01*
X171099D01*
X171766Y49932D01*
Y49266D01*
X171099Y48599D01*
X170433D01*
X171099D01*
X171766Y47933D01*
Y47266D01*
X171099Y46600D01*
X169766D01*
X169100Y47266D01*
X173099Y50599D02*
Y47933D01*
X174432Y46600D01*
X175765Y47933D01*
Y50599D01*
X177097Y49932D02*
X177764Y50599D01*
X179097D01*
X179763Y49932D01*
Y49266D01*
X179097Y48599D01*
X178430D01*
X179097D01*
X179763Y47933D01*
Y47266D01*
X179097Y46600D01*
X177764D01*
X177097Y47266D01*
X140100Y46600D02*
Y50599D01*
X142099D01*
X142766Y49932D01*
Y48599D01*
X142099Y47933D01*
X140100D01*
X141433D02*
X142766Y46600D01*
X146765Y50599D02*
X144099D01*
Y46600D01*
X146765D01*
X144099Y48599D02*
X145432D01*
X150763Y49932D02*
X150097Y50599D01*
X148764D01*
X148097Y49932D01*
Y47266D01*
X148764Y46600D01*
X150097D01*
X150763Y47266D01*
Y48599D01*
X149430D01*
X16600Y48099D02*
Y44766D01*
X17266Y44100D01*
X18599D01*
X19266Y44766D01*
Y48099D01*
X23265Y47432D02*
X22598Y48099D01*
X21265D01*
X20599Y47432D01*
Y46766D01*
X21265Y46099D01*
X22598D01*
X23265Y45433D01*
Y44766D01*
X22598Y44100D01*
X21265D01*
X20599Y44766D01*
X24597Y48099D02*
Y44100D01*
X26597D01*
X27263Y44766D01*
Y45433D01*
X26597Y46099D01*
X24597D01*
X26597D01*
X27263Y46766D01*
Y47432D01*
X26597Y48099D01*
X24597D01*
X31262Y44100D02*
X28596D01*
X31262Y46766D01*
Y47432D01*
X30595Y48099D01*
X29263D01*
X28596Y47432D01*
X17100Y54599D02*
Y51266D01*
X17766Y50600D01*
X19099D01*
X19766Y51266D01*
Y54599D01*
X23765Y53932D02*
X23098Y54599D01*
X21765D01*
X21099Y53932D01*
Y53266D01*
X21765Y52599D01*
X23098D01*
X23765Y51933D01*
Y51266D01*
X23098Y50600D01*
X21765D01*
X21099Y51266D01*
X25097Y54599D02*
Y50600D01*
X27097D01*
X27763Y51266D01*
Y51933D01*
X27097Y52599D01*
X25097D01*
X27097D01*
X27763Y53266D01*
Y53932D01*
X27097Y54599D01*
X25097D01*
X29096Y50600D02*
X30429D01*
X29763D01*
Y54599D01*
X29096Y53932D01*
X43600Y48099D02*
X46266D01*
X44933Y49432D02*
Y46766D01*
X50265Y50099D02*
X47599D01*
Y48099D01*
X48932Y48766D01*
X49598D01*
X50265Y48099D01*
Y46766D01*
X49598Y46100D01*
X48265D01*
X47599Y46766D01*
X51597Y50099D02*
Y47433D01*
X52930Y46100D01*
X54263Y47433D01*
Y50099D01*
X6266Y49599D02*
X3600D01*
Y45600D01*
X6266D01*
X3600Y47599D02*
X4933D01*
X10265Y48932D02*
X9598Y49599D01*
X8265D01*
X7599Y48932D01*
Y48266D01*
X8265Y47599D01*
X9598D01*
X10265Y46933D01*
Y46266D01*
X9598Y45600D01*
X8265D01*
X7599Y46266D01*
X11597Y45600D02*
Y49599D01*
X13597D01*
X14263Y48932D01*
Y47599D01*
X13597Y46933D01*
X11597D01*
X1600Y56099D02*
Y52766D01*
X2266Y52100D01*
X3599D01*
X4266Y52766D01*
Y56099D01*
X5599Y52100D02*
Y54766D01*
X6932Y56099D01*
X8264Y54766D01*
Y52100D01*
Y54099D01*
X5599D01*
X9597Y52100D02*
Y56099D01*
X11597D01*
X12263Y55432D01*
Y54099D01*
X11597Y53433D01*
X9597D01*
X10930D02*
X12263Y52100D01*
X13596Y56099D02*
X16262D01*
X14929D01*
Y52100D01*
X242266Y17599D02*
X240933D01*
X241599D01*
Y14266D01*
X240933Y13600D01*
X240266D01*
X239600Y14266D01*
X246265Y13600D02*
X243599D01*
X246265Y16266D01*
Y16932D01*
X245598Y17599D01*
X244265D01*
X243599Y16932D01*
X242266Y86099D02*
X240933D01*
X241599D01*
Y82766D01*
X240933Y82100D01*
X240266D01*
X239600Y82766D01*
X243599Y82100D02*
X244932D01*
X244265D01*
Y86099D01*
X243599Y85432D01*
D14*
X224028Y17685D02*
Y78315D01*
X284854Y17685D02*
X304736D01*
Y78315D01*
X284854D02*
X304736D01*
M02*
