G04*
G04 #@! TF.GenerationSoftware,Altium Limited,Altium Designer,26.9.1 (10)*
G04*
G04 Layer_Color=8421504*
G04 Board_Origin=100000000|100000000*
%FSLAX25Y25*%
%MOIN*%
G70*
G04*
G04 #@! TF.SameCoordinates,6EF0B23D-BCFA-4A29-A2E0-F4787A1BABFB*
G04*
G04*
G04 #@! TF.FilePolarity,Positive*
G04*
G01*
G75*
%ADD15R,0.05105X0.05105*%
%ADD16R,0.03937X0.03543*%
%ADD17R,0.03197X0.02985*%
%ADD18R,0.02362X0.02165*%
%ADD19R,0.02029X0.01860*%
%ADD20R,0.01860X0.02029*%
%ADD21R,0.10458X0.03759*%
%ADD22R,0.03759X0.10458*%
%ADD23R,0.01870X0.01968*%
%ADD24R,0.04560X0.03985*%
%ADD25R,0.03985X0.04560*%
%ADD26R,0.02165X0.02362*%
%ADD27R,0.04134X0.02559*%
%ADD28R,0.02756X0.01968*%
%ADD29R,0.02200X0.01200*%
%ADD30R,0.01200X0.02200*%
%ADD31R,0.04528X0.01181*%
%ADD32R,0.04528X0.02362*%
%ADD33R,0.03150X0.02362*%
G04:AMPARAMS|DCode=34|XSize=9.55mil|YSize=33.06mil|CornerRadius=4.77mil|HoleSize=0mil|Usage=FLASHONLY|Rotation=270.000|XOffset=0mil|YOffset=0mil|HoleType=Round|Shape=RoundedRectangle|*
%AMROUNDEDRECTD34*
21,1,0.00955,0.02351,0,0,270.0*
21,1,0.00000,0.03306,0,0,270.0*
1,1,0.00955,-0.01176,0.00000*
1,1,0.00955,-0.01176,0.00000*
1,1,0.00955,0.01176,0.00000*
1,1,0.00955,0.01176,0.00000*
%
%ADD34ROUNDEDRECTD34*%
G04:AMPARAMS|DCode=35|XSize=33.06mil|YSize=9.55mil|CornerRadius=4.77mil|HoleSize=0mil|Usage=FLASHONLY|Rotation=270.000|XOffset=0mil|YOffset=0mil|HoleType=Round|Shape=RoundedRectangle|*
%AMROUNDEDRECTD35*
21,1,0.03306,0.00000,0,0,270.0*
21,1,0.02351,0.00955,0,0,270.0*
1,1,0.00955,0.00000,-0.01176*
1,1,0.00955,0.00000,0.01176*
1,1,0.00955,0.00000,0.01176*
1,1,0.00955,0.00000,-0.01176*
%
%ADD35ROUNDEDRECTD35*%
%ADD36R,0.00955X0.03306*%
G04:AMPARAMS|DCode=37|XSize=35.43mil|YSize=68.9mil|CornerRadius=1.95mil|HoleSize=0mil|Usage=FLASHONLY|Rotation=90.000|XOffset=0mil|YOffset=0mil|HoleType=Round|Shape=RoundedRectangle|*
%AMROUNDEDRECTD37*
21,1,0.03543,0.06500,0,0,90.0*
21,1,0.03154,0.06890,0,0,90.0*
1,1,0.00390,0.03250,0.01577*
1,1,0.00390,0.03250,-0.01577*
1,1,0.00390,-0.03250,-0.01577*
1,1,0.00390,-0.03250,0.01577*
%
%ADD37ROUNDEDRECTD37*%
G04:AMPARAMS|DCode=38|XSize=125.98mil|YSize=68.9mil|CornerRadius=2.07mil|HoleSize=0mil|Usage=FLASHONLY|Rotation=90.000|XOffset=0mil|YOffset=0mil|HoleType=Round|Shape=RoundedRectangle|*
%AMROUNDEDRECTD38*
21,1,0.12598,0.06476,0,0,90.0*
21,1,0.12185,0.06890,0,0,90.0*
1,1,0.00413,0.03238,0.06093*
1,1,0.00413,0.03238,-0.06093*
1,1,0.00413,-0.03238,-0.06093*
1,1,0.00413,-0.03238,0.06093*
%
%ADD38ROUNDEDRECTD38*%
%ADD39R,0.03150X0.01575*%
%ADD40R,0.01575X0.03150*%
%ADD41R,0.03150X0.03150*%
%ADD42R,0.04724X0.04724*%
%ADD43R,0.05103X0.03391*%
%ADD44R,0.03391X0.05103*%
G36*
X258575Y52134D02*
Y56858D01*
X260937D01*
X263299Y54496D01*
Y52134D01*
X258575D01*
D02*
G37*
D15*
X71000Y75000D02*
D03*
D16*
X195213Y60700D02*
D03*
X202300D02*
D03*
X195157Y72100D02*
D03*
X202243D02*
D03*
D17*
X181300Y19231D02*
D03*
Y24169D02*
D03*
X45000Y80260D02*
D03*
Y85000D02*
D03*
Y70000D02*
D03*
Y74740D02*
D03*
Y25000D02*
D03*
Y29740D02*
D03*
Y14630D02*
D03*
Y19370D02*
D03*
D18*
X89655Y67886D02*
D03*
X93002D02*
D03*
X73853Y48900D02*
D03*
X77200D02*
D03*
D03*
X80546D02*
D03*
X84953Y85600D02*
D03*
X88300D02*
D03*
X210653Y14300D02*
D03*
X214000D02*
D03*
X218527D02*
D03*
X221873D02*
D03*
X212154Y49600D02*
D03*
X215500D02*
D03*
X212154Y43000D02*
D03*
X215500D02*
D03*
Y49600D02*
D03*
X218847D02*
D03*
X215500Y43000D02*
D03*
X218847D02*
D03*
D19*
X75000Y54800D02*
D03*
X77981D02*
D03*
D20*
X58000Y36500D02*
D03*
Y39481D02*
D03*
D21*
X116900Y54284D02*
D03*
Y65116D02*
D03*
Y70984D02*
D03*
Y81816D02*
D03*
X181300Y29184D02*
D03*
Y40016D02*
D03*
D22*
X90284Y47900D02*
D03*
X101116D02*
D03*
X90184Y59600D02*
D03*
X101016D02*
D03*
D23*
X53182Y71500D02*
D03*
X57218D02*
D03*
X53182Y76500D02*
D03*
X57218D02*
D03*
X213282Y83700D02*
D03*
X217318D02*
D03*
X213282Y78500D02*
D03*
X217318D02*
D03*
D24*
X73300Y60000D02*
D03*
X79812D02*
D03*
X48300Y55500D02*
D03*
X54812D02*
D03*
X48344Y62600D02*
D03*
X54856D02*
D03*
X86244Y79200D02*
D03*
X92756D02*
D03*
X44988Y38000D02*
D03*
X51500D02*
D03*
X261444Y15100D02*
D03*
X267956D02*
D03*
X255444Y83600D02*
D03*
X261956D02*
D03*
X52044Y82900D02*
D03*
X58556D02*
D03*
D25*
X64600Y54544D02*
D03*
Y61056D02*
D03*
X281500Y86756D02*
D03*
Y80244D02*
D03*
X175900Y71900D02*
D03*
Y78412D02*
D03*
D26*
X59500Y58754D02*
D03*
Y62100D02*
D03*
D27*
X151831Y70768D02*
D03*
Y79232D02*
D03*
X168169Y70768D02*
D03*
Y79232D02*
D03*
X151831Y20768D02*
D03*
Y29232D02*
D03*
X168169Y20768D02*
D03*
Y29232D02*
D03*
D28*
X184169Y60500D02*
D03*
X188500D02*
D03*
X183900Y72400D02*
D03*
X188231D02*
D03*
D29*
X36100Y77150D02*
D03*
Y79650D02*
D03*
X35900Y18950D02*
D03*
Y16450D02*
D03*
X36100Y72050D02*
D03*
Y69550D02*
D03*
X35900Y26050D02*
D03*
Y28550D02*
D03*
D30*
X35100Y34800D02*
D03*
X37600D02*
D03*
X35350Y62200D02*
D03*
X37850D02*
D03*
D31*
X25264Y19087D02*
D03*
Y17118D02*
D03*
Y21055D02*
D03*
Y28929D02*
D03*
Y30898D02*
D03*
Y24992D02*
D03*
Y23024D02*
D03*
Y26961D02*
D03*
Y71071D02*
D03*
Y69102D02*
D03*
Y73039D02*
D03*
Y80913D02*
D03*
Y82882D02*
D03*
Y76976D02*
D03*
Y75008D02*
D03*
Y78945D02*
D03*
D32*
Y11409D02*
D03*
Y14559D02*
D03*
Y36606D02*
D03*
Y33457D02*
D03*
Y63394D02*
D03*
Y66543D02*
D03*
Y88591D02*
D03*
Y85441D02*
D03*
D33*
X132424Y55960D02*
D03*
Y63440D02*
D03*
X140376Y59700D02*
D03*
X132524Y72660D02*
D03*
Y80140D02*
D03*
X140476Y76400D02*
D03*
D34*
X63459Y71063D02*
D03*
Y76968D02*
D03*
Y73032D02*
D03*
Y75000D02*
D03*
Y78937D02*
D03*
X78541Y71063D02*
D03*
Y76968D02*
D03*
Y73032D02*
D03*
Y75000D02*
D03*
Y78937D02*
D03*
D35*
X67063Y67459D02*
D03*
Y82541D02*
D03*
X72969Y67459D02*
D03*
X74937D02*
D03*
X69032D02*
D03*
X71000D02*
D03*
X69032Y82541D02*
D03*
X72969D02*
D03*
X71000D02*
D03*
D36*
X74937D02*
D03*
D37*
X65697Y19945D02*
D03*
Y38055D02*
D03*
Y29000D02*
D03*
D38*
X90303D02*
D03*
D39*
X226882Y27921D02*
D03*
Y34614D02*
D03*
Y31268D02*
D03*
Y24575D02*
D03*
Y37961D02*
D03*
Y44653D02*
D03*
Y41307D02*
D03*
Y58039D02*
D03*
Y64732D02*
D03*
Y61386D02*
D03*
Y48000D02*
D03*
Y54693D02*
D03*
Y51346D02*
D03*
Y68079D02*
D03*
Y71425D02*
D03*
X282000Y44653D02*
D03*
Y34614D02*
D03*
Y41307D02*
D03*
Y37961D02*
D03*
Y24575D02*
D03*
Y31268D02*
D03*
Y27921D02*
D03*
Y58039D02*
D03*
Y64732D02*
D03*
Y61386D02*
D03*
Y48000D02*
D03*
Y54693D02*
D03*
Y51346D02*
D03*
Y71425D02*
D03*
Y68079D02*
D03*
D40*
X231016Y20441D02*
D03*
X244402D02*
D03*
X254441D02*
D03*
X247748D02*
D03*
X251095D02*
D03*
X234362D02*
D03*
X237709D02*
D03*
X241055D02*
D03*
X237709Y75559D02*
D03*
X231016D02*
D03*
X234362D02*
D03*
X254441D02*
D03*
X257787D02*
D03*
X241055D02*
D03*
X251095D02*
D03*
X244402D02*
D03*
X247748D02*
D03*
X267827Y20441D02*
D03*
X261134D02*
D03*
X264480D02*
D03*
X277866D02*
D03*
X271173D02*
D03*
X274520D02*
D03*
X257787D02*
D03*
X274520Y75559D02*
D03*
X267827D02*
D03*
X261134D02*
D03*
X264480D02*
D03*
X271173D02*
D03*
X277866D02*
D03*
D41*
X226882Y20441D02*
D03*
Y75559D02*
D03*
X282000Y20441D02*
D03*
Y75559D02*
D03*
D42*
X247945Y41504D02*
D03*
X254441D02*
D03*
X247945Y48000D02*
D03*
Y54496D02*
D03*
X254441D02*
D03*
Y48000D02*
D03*
X260937Y41504D02*
D03*
Y48000D02*
D03*
D43*
X58300Y21255D02*
D03*
Y27345D02*
D03*
X52000Y21255D02*
D03*
Y27345D02*
D03*
D44*
X267455Y83300D02*
D03*
X273545D02*
D03*
M02*
