G04*
G04 #@! TF.GenerationSoftware,Altium Limited,Altium Designer,26.9.1 (10)*
G04*
G04 Layer_Color=8388736*
G04 Board_Origin=100000000|100000000*
%FSLAX25Y25*%
%MOIN*%
G70*
G04*
G04 #@! TF.SameCoordinates,6EF0B23D-BCFA-4A29-A2E0-F4787A1BABFB*
G04*
G04*
G04 #@! TF.FilePolarity,Negative*
G04*
G01*
G75*
%ADD16R,0.03937X0.03543*%
%ADD17R,0.03197X0.02985*%
%ADD19R,0.02029X0.01860*%
%ADD20R,0.01860X0.02029*%
%ADD21R,0.10458X0.03759*%
%ADD22R,0.03759X0.10458*%
%ADD23R,0.01870X0.01968*%
%ADD24R,0.04560X0.03985*%
%ADD25R,0.03985X0.04560*%
%ADD27R,0.04134X0.02559*%
%ADD28R,0.02756X0.01968*%
%ADD29R,0.02200X0.01200*%
%ADD30R,0.01200X0.02200*%
%ADD31R,0.04528X0.01181*%
%ADD32R,0.04528X0.02362*%
%ADD33R,0.03150X0.02362*%
G04:AMPARAMS|DCode=34|XSize=9.55mil|YSize=33.06mil|CornerRadius=4.77mil|HoleSize=0mil|Usage=FLASHONLY|Rotation=270.000|XOffset=0mil|YOffset=0mil|HoleType=Round|Shape=RoundedRectangle|*
%AMROUNDEDRECTD34*
21,1,0.00955,0.02351,0,0,270.0*
21,1,0.00000,0.03306,0,0,270.0*
1,1,0.00955,-0.01176,0.00000*
1,1,0.00955,-0.01176,0.00000*
1,1,0.00955,0.01176,0.00000*
1,1,0.00955,0.01176,0.00000*
%
%ADD34ROUNDEDRECTD34*%
G04:AMPARAMS|DCode=35|XSize=33.06mil|YSize=9.55mil|CornerRadius=4.77mil|HoleSize=0mil|Usage=FLASHONLY|Rotation=270.000|XOffset=0mil|YOffset=0mil|HoleType=Round|Shape=RoundedRectangle|*
%AMROUNDEDRECTD35*
21,1,0.03306,0.00000,0,0,270.0*
21,1,0.02351,0.00955,0,0,270.0*
1,1,0.00955,0.00000,-0.01176*
1,1,0.00955,0.00000,0.01176*
1,1,0.00955,0.00000,0.01176*
1,1,0.00955,0.00000,-0.01176*
%
%ADD35ROUNDEDRECTD35*%
%ADD36R,0.00955X0.03306*%
%ADD43R,0.05103X0.03391*%
%ADD44R,0.03391X0.05103*%
%ADD45R,0.02762X0.02565*%
%ADD46R,0.02565X0.02762*%
%ADD47R,0.08071X0.08071*%
G04:AMPARAMS|DCode=48|XSize=39.43mil|YSize=72.9mil|CornerRadius=3.95mil|HoleSize=0mil|Usage=FLASHONLY|Rotation=90.000|XOffset=0mil|YOffset=0mil|HoleType=Round|Shape=RoundedRectangle|*
%AMROUNDEDRECTD48*
21,1,0.03943,0.06500,0,0,90.0*
21,1,0.03154,0.07290,0,0,90.0*
1,1,0.00790,0.03250,0.01577*
1,1,0.00790,0.03250,-0.01577*
1,1,0.00790,-0.03250,-0.01577*
1,1,0.00790,-0.03250,0.01577*
%
%ADD48ROUNDEDRECTD48*%
G04:AMPARAMS|DCode=49|XSize=129.98mil|YSize=72.9mil|CornerRadius=4.07mil|HoleSize=0mil|Usage=FLASHONLY|Rotation=90.000|XOffset=0mil|YOffset=0mil|HoleType=Round|Shape=RoundedRectangle|*
%AMROUNDEDRECTD49*
21,1,0.12998,0.06476,0,0,90.0*
21,1,0.12185,0.07290,0,0,90.0*
1,1,0.00813,0.03238,0.06093*
1,1,0.00813,0.03238,-0.06093*
1,1,0.00813,-0.03238,-0.06093*
1,1,0.00813,-0.03238,0.06093*
%
%ADD49ROUNDEDRECTD49*%
%ADD50R,0.03550X0.01975*%
%ADD51R,0.01975X0.03550*%
%ADD52R,0.03550X0.03550*%
%ADD53R,0.05124X0.05124*%
%ADD54C,0.06200*%
G04:AMPARAMS|DCode=55|XSize=39.37mil|YSize=86.61mil|CornerRadius=19.68mil|HoleSize=0mil|Usage=FLASHONLY|Rotation=270.000|XOffset=0mil|YOffset=0mil|HoleType=Round|Shape=RoundedRectangle|*
%AMROUNDEDRECTD55*
21,1,0.03937,0.04724,0,0,270.0*
21,1,0.00000,0.08661,0,0,270.0*
1,1,0.03937,-0.02362,0.00000*
1,1,0.03937,-0.02362,0.00000*
1,1,0.03937,0.02362,0.00000*
1,1,0.03937,0.02362,0.00000*
%
%ADD55ROUNDEDRECTD55*%
G04:AMPARAMS|DCode=56|XSize=39.37mil|YSize=70.87mil|CornerRadius=19.68mil|HoleSize=0mil|Usage=FLASHONLY|Rotation=270.000|XOffset=0mil|YOffset=0mil|HoleType=Round|Shape=RoundedRectangle|*
%AMROUNDEDRECTD56*
21,1,0.03937,0.03150,0,0,270.0*
21,1,0.00000,0.07087,0,0,270.0*
1,1,0.03937,-0.01575,0.00000*
1,1,0.03937,-0.01575,0.00000*
1,1,0.03937,0.01575,0.00000*
1,1,0.03937,0.01575,0.00000*
%
%ADD56ROUNDEDRECTD56*%
%ADD57C,0.04400*%
%ADD58R,0.04400X0.04400*%
%ADD59R,0.04400X0.04400*%
G36*
X263693Y54693D02*
Y51740D01*
X258181D01*
Y57252D01*
X261134D01*
X263693Y54693D01*
D02*
G37*
G36*
X135035Y50705D02*
X135173D01*
Y50670D01*
X135277D01*
Y50635D01*
X135312D01*
Y50600D01*
X135382D01*
Y50566D01*
X135416D01*
Y50531D01*
X135451D01*
Y50496D01*
X135486D01*
Y50427D01*
X135520D01*
Y50358D01*
X135555D01*
Y50323D01*
X135590D01*
Y50254D01*
X135624D01*
Y50184D01*
X135659D01*
Y50115D01*
X135694D01*
Y50011D01*
X135729D01*
Y49941D01*
X135763D01*
Y49837D01*
X135798D01*
Y49733D01*
X135833D01*
Y49595D01*
X135867D01*
Y49456D01*
X135902D01*
Y49282D01*
X135937D01*
Y49109D01*
X135971D01*
Y48901D01*
X136006D01*
Y48588D01*
X136041D01*
Y47062D01*
X136006D01*
Y46750D01*
X135971D01*
Y46472D01*
X135937D01*
Y46264D01*
X135902D01*
Y46126D01*
X135867D01*
Y45952D01*
X135833D01*
Y45779D01*
X135798D01*
Y45675D01*
X135902D01*
Y45709D01*
X136075D01*
Y45744D01*
X136353D01*
Y45709D01*
X136388D01*
Y45675D01*
X136422D01*
Y45605D01*
X136457D01*
Y45432D01*
X136422D01*
Y45293D01*
X136388D01*
Y45189D01*
X136353D01*
Y45085D01*
X136318D01*
Y45016D01*
X136284D01*
Y44912D01*
X136249D01*
Y44842D01*
X136214D01*
Y44773D01*
X136179D01*
Y44703D01*
X136145D01*
Y44669D01*
X136110D01*
Y44599D01*
X136075D01*
Y44530D01*
X136041D01*
Y44495D01*
X136006D01*
Y44426D01*
X135971D01*
Y44391D01*
X135937D01*
Y44322D01*
X135902D01*
Y44287D01*
X135867D01*
Y44252D01*
X135833D01*
Y44218D01*
X135867D01*
Y44183D01*
X135902D01*
Y44148D01*
X135971D01*
Y44114D01*
X136006D01*
Y44079D01*
X136075D01*
Y44044D01*
X136110D01*
Y44010D01*
X136145D01*
Y43975D01*
X136214D01*
Y43940D01*
X136249D01*
Y43905D01*
X136284D01*
Y43871D01*
X136318D01*
Y43836D01*
X136388D01*
Y43801D01*
X136422D01*
Y43767D01*
X136457D01*
Y43732D01*
X136492D01*
Y43697D01*
X136526D01*
Y43663D01*
X136561D01*
Y43628D01*
X136596D01*
Y43593D01*
X136630D01*
Y43559D01*
X136665D01*
Y43524D01*
X136700D01*
Y43489D01*
X136734D01*
Y43455D01*
X136769D01*
Y43420D01*
X136804D01*
Y43385D01*
X136838D01*
Y43350D01*
X136873D01*
Y43316D01*
X136908D01*
Y43281D01*
X136943D01*
Y43246D01*
X136977D01*
Y43177D01*
X137012D01*
Y43142D01*
X137047D01*
Y43108D01*
X137081D01*
Y43073D01*
X137116D01*
Y43004D01*
X137151D01*
Y42969D01*
X137185D01*
Y42934D01*
X137220D01*
Y42865D01*
X137255D01*
Y42830D01*
X137290D01*
Y42761D01*
X137324D01*
Y42726D01*
X137359D01*
Y42657D01*
X137393D01*
Y42587D01*
X137428D01*
Y42518D01*
X137463D01*
Y42449D01*
X137498D01*
Y42379D01*
X137532D01*
Y42171D01*
X137498D01*
Y42136D01*
X137185D01*
Y42171D01*
X137012D01*
Y42206D01*
X136388D01*
Y42171D01*
X136284D01*
Y42102D01*
X136318D01*
Y42067D01*
X136353D01*
Y42032D01*
X136388D01*
Y41998D01*
X136422D01*
Y41963D01*
X136457D01*
Y41928D01*
X136492D01*
Y41894D01*
X136526D01*
Y41859D01*
X136561D01*
Y41824D01*
X136596D01*
Y41789D01*
X136665D01*
Y41755D01*
X136700D01*
Y41720D01*
X136734D01*
Y41651D01*
X136769D01*
Y41616D01*
X136804D01*
Y41581D01*
X136838D01*
Y41547D01*
X136873D01*
Y41512D01*
X136908D01*
Y41477D01*
X136943D01*
Y41443D01*
X136977D01*
Y41408D01*
X137012D01*
Y41339D01*
X137047D01*
Y41304D01*
X137081D01*
Y41269D01*
X137116D01*
Y41234D01*
X137151D01*
Y41200D01*
X137185D01*
Y41165D01*
X137220D01*
Y41096D01*
X137255D01*
Y41061D01*
X137290D01*
Y40992D01*
X137324D01*
Y40957D01*
X137359D01*
Y40922D01*
X137393D01*
Y40853D01*
X137428D01*
Y40818D01*
X137463D01*
Y40749D01*
X137498D01*
Y40714D01*
X137532D01*
Y40645D01*
X137567D01*
Y40610D01*
X137602D01*
Y40541D01*
X137636D01*
Y40506D01*
X137671D01*
Y40437D01*
X137706D01*
Y40367D01*
X137740D01*
Y40298D01*
X137775D01*
Y40229D01*
X137810D01*
Y40159D01*
X137845D01*
Y40090D01*
X137879D01*
Y40020D01*
X137914D01*
Y39951D01*
X137949D01*
Y39882D01*
X137983D01*
Y39812D01*
X138018D01*
Y39708D01*
X138053D01*
Y39639D01*
X138087D01*
Y39535D01*
X138122D01*
Y39431D01*
X138157D01*
Y39327D01*
X138191D01*
Y39222D01*
X138226D01*
Y39084D01*
X138261D01*
Y38841D01*
X138226D01*
Y38806D01*
X138191D01*
Y38772D01*
X138122D01*
Y38806D01*
X138018D01*
Y38841D01*
X137983D01*
Y38876D01*
X137914D01*
Y38910D01*
X137845D01*
Y38945D01*
X137775D01*
Y38980D01*
X137740D01*
Y39014D01*
X137671D01*
Y39049D01*
X137602D01*
Y39084D01*
X137532D01*
Y39118D01*
X137428D01*
Y39153D01*
X137359D01*
Y39188D01*
X137255D01*
Y39222D01*
X137151D01*
Y39257D01*
X137012D01*
Y39292D01*
X136943D01*
Y39188D01*
X136977D01*
Y39118D01*
X137012D01*
Y39084D01*
X137047D01*
Y39014D01*
X137081D01*
Y38945D01*
X137116D01*
Y38910D01*
X137151D01*
Y38841D01*
X137185D01*
Y38772D01*
X137220D01*
Y38737D01*
X137255D01*
Y38668D01*
X137290D01*
Y38598D01*
X137324D01*
Y38529D01*
X137359D01*
Y38459D01*
X137393D01*
Y38390D01*
X137428D01*
Y38321D01*
X137463D01*
Y38251D01*
X137498D01*
Y38182D01*
X137532D01*
Y38078D01*
X137567D01*
Y38008D01*
X137602D01*
Y37904D01*
X137636D01*
Y37800D01*
X137671D01*
Y37731D01*
X137706D01*
Y37627D01*
X137740D01*
Y37488D01*
X137775D01*
Y37384D01*
X137810D01*
Y37245D01*
X137845D01*
Y37106D01*
X137879D01*
Y36933D01*
X137914D01*
Y36760D01*
X137949D01*
Y36517D01*
X137983D01*
Y35858D01*
X137949D01*
Y35823D01*
X137914D01*
Y35788D01*
X137810D01*
Y35823D01*
X137740D01*
Y35858D01*
X137706D01*
Y35892D01*
X137671D01*
Y35927D01*
X137636D01*
Y35962D01*
X137602D01*
Y35996D01*
X137567D01*
Y36031D01*
X137498D01*
Y36066D01*
X137463D01*
Y36101D01*
X137428D01*
Y36135D01*
X137359D01*
Y36170D01*
X137324D01*
Y36205D01*
X137255D01*
Y36239D01*
X137220D01*
Y36274D01*
X137151D01*
Y36309D01*
X137081D01*
Y36343D01*
X137012D01*
Y36378D01*
X136908D01*
Y36239D01*
X136943D01*
Y36135D01*
X136977D01*
Y36066D01*
X137012D01*
Y35962D01*
X137047D01*
Y35858D01*
X137081D01*
Y35788D01*
X137116D01*
Y35684D01*
X137151D01*
Y35545D01*
X137185D01*
Y35407D01*
X137220D01*
Y35303D01*
X137255D01*
Y35164D01*
X137290D01*
Y34990D01*
X137324D01*
Y34817D01*
X137359D01*
Y34644D01*
X137393D01*
Y34401D01*
X137428D01*
Y33811D01*
X137463D01*
Y33499D01*
X137428D01*
Y33048D01*
X137393D01*
Y32805D01*
X137359D01*
Y32632D01*
X137324D01*
Y32493D01*
X137290D01*
Y32458D01*
X137255D01*
Y32423D01*
X137220D01*
Y32389D01*
X137185D01*
Y32423D01*
X137116D01*
Y32458D01*
X137081D01*
Y32493D01*
X137047D01*
Y32528D01*
X137012D01*
Y32597D01*
X136977D01*
Y32632D01*
X136943D01*
Y32701D01*
X136908D01*
Y32736D01*
X136873D01*
Y32805D01*
X136838D01*
Y32840D01*
X136804D01*
Y32874D01*
X136769D01*
Y32909D01*
X136734D01*
Y32944D01*
X136700D01*
Y33013D01*
X136665D01*
Y33048D01*
X136630D01*
Y33083D01*
X136596D01*
Y33117D01*
X136561D01*
Y33152D01*
X136526D01*
Y33187D01*
X136492D01*
Y33221D01*
X136457D01*
Y33256D01*
X136422D01*
Y33291D01*
X136388D01*
Y33325D01*
X136353D01*
Y33360D01*
X136249D01*
Y33325D01*
X136214D01*
Y33221D01*
X136249D01*
Y33013D01*
X136284D01*
Y32805D01*
X136318D01*
Y32423D01*
X136353D01*
Y31730D01*
X136318D01*
Y31383D01*
X136284D01*
Y31140D01*
X136249D01*
Y30966D01*
X136214D01*
Y30793D01*
X136179D01*
Y30654D01*
X136145D01*
Y30516D01*
X136110D01*
Y30411D01*
X136075D01*
Y30342D01*
X136041D01*
Y30307D01*
X135971D01*
Y30273D01*
X135833D01*
Y30238D01*
X135729D01*
Y30203D01*
X135624D01*
Y30169D01*
X135486D01*
Y30134D01*
X135382D01*
Y30099D01*
X135277D01*
Y30065D01*
X135139D01*
Y30030D01*
X135000D01*
Y29995D01*
X134896D01*
Y29961D01*
X134792D01*
Y29926D01*
X134688D01*
Y29891D01*
X134584D01*
Y29857D01*
X134480D01*
Y29822D01*
X134376D01*
Y29787D01*
X134272D01*
Y29752D01*
X134168D01*
Y29718D01*
X134098D01*
Y29683D01*
X133994D01*
Y29648D01*
X133890D01*
Y29614D01*
X133821D01*
Y29579D01*
X133716D01*
Y29544D01*
X133647D01*
Y29510D01*
X133543D01*
Y29475D01*
X133474D01*
Y29440D01*
X133404D01*
Y29406D01*
X133300D01*
Y29371D01*
X133231D01*
Y29336D01*
X133161D01*
Y29301D01*
X133057D01*
Y29267D01*
X132988D01*
Y29232D01*
X132919D01*
Y29197D01*
X132849D01*
Y29163D01*
X132780D01*
Y29128D01*
X132711D01*
Y29093D01*
X132641D01*
Y29059D01*
X132572D01*
Y29024D01*
X132502D01*
Y28989D01*
X132433D01*
Y28955D01*
X132364D01*
Y28920D01*
X132294D01*
Y28885D01*
X132225D01*
Y28850D01*
X132156D01*
Y28816D01*
X132086D01*
Y28781D01*
X132017D01*
Y28746D01*
X131982D01*
Y28712D01*
X131913D01*
Y28677D01*
X131843D01*
Y28642D01*
X131809D01*
Y28608D01*
X131739D01*
Y28573D01*
X131670D01*
Y28538D01*
X131600D01*
Y28504D01*
X131566D01*
Y28469D01*
X131496D01*
Y28434D01*
X131427D01*
Y28400D01*
X131392D01*
Y28365D01*
X131323D01*
Y28330D01*
X131254D01*
Y28295D01*
X131219D01*
Y28261D01*
X131149D01*
Y28226D01*
X131115D01*
Y28191D01*
X131045D01*
Y28157D01*
X131011D01*
Y28122D01*
X130941D01*
Y28087D01*
X130907D01*
Y28053D01*
X130837D01*
Y28018D01*
X130803D01*
Y27983D01*
X130733D01*
Y27949D01*
X130699D01*
Y27914D01*
X130629D01*
Y27879D01*
X130595D01*
Y27845D01*
X130560D01*
Y27810D01*
X130490D01*
Y27775D01*
X130456D01*
Y27740D01*
X130386D01*
Y27706D01*
X130352D01*
Y27671D01*
X130317D01*
Y27636D01*
X130248D01*
Y27602D01*
X130213D01*
Y27567D01*
X130178D01*
Y27532D01*
X130109D01*
Y27498D01*
X130074D01*
Y27463D01*
X130040D01*
Y27428D01*
X129970D01*
Y27393D01*
X129935D01*
Y27359D01*
X129901D01*
Y27324D01*
X129866D01*
Y27290D01*
X129797D01*
Y27255D01*
X129762D01*
Y27220D01*
X129727D01*
Y27185D01*
X129693D01*
Y27151D01*
X129623D01*
Y27116D01*
X129588D01*
Y27081D01*
X129554D01*
Y27047D01*
X129519D01*
Y27012D01*
X129450D01*
Y26977D01*
X129415D01*
Y26943D01*
X129380D01*
Y26908D01*
X129346D01*
Y26873D01*
X129311D01*
Y26838D01*
X129276D01*
Y26804D01*
X129207D01*
Y26769D01*
X129172D01*
Y26734D01*
X129138D01*
Y26700D01*
X129103D01*
Y26665D01*
X129068D01*
Y26630D01*
X129034D01*
Y26596D01*
X128999D01*
Y26561D01*
X128964D01*
Y26526D01*
X128895D01*
Y26492D01*
X128860D01*
Y26457D01*
X128825D01*
Y26422D01*
X128791D01*
Y26388D01*
X128756D01*
Y26353D01*
X128721D01*
Y26318D01*
X128687D01*
Y26283D01*
X128652D01*
Y26249D01*
X128617D01*
Y26214D01*
X128583D01*
Y26179D01*
X128548D01*
Y26145D01*
X128513D01*
Y26110D01*
X128444D01*
Y26075D01*
X128409D01*
Y26041D01*
X128374D01*
Y26006D01*
X128340D01*
Y25971D01*
X128305D01*
Y25937D01*
X128270D01*
Y25902D01*
X128236D01*
Y25867D01*
X128201D01*
Y25833D01*
X128166D01*
Y25798D01*
X128132D01*
Y25763D01*
X128097D01*
Y25728D01*
X128062D01*
Y25694D01*
X128027D01*
Y25659D01*
X127993D01*
Y25624D01*
X127958D01*
Y25590D01*
X127923D01*
Y25555D01*
X127889D01*
Y25520D01*
X127854D01*
Y25451D01*
X127819D01*
Y25416D01*
X127785D01*
Y25382D01*
X127750D01*
Y25347D01*
X127715D01*
Y25312D01*
X127681D01*
Y25278D01*
X127646D01*
Y25243D01*
X127611D01*
Y25208D01*
X127577D01*
Y25173D01*
X127542D01*
Y25139D01*
X127507D01*
Y25104D01*
X127472D01*
Y25069D01*
X127438D01*
Y25000D01*
X127403D01*
Y24965D01*
X127368D01*
Y24931D01*
X127334D01*
Y24896D01*
X127299D01*
Y24861D01*
X127264D01*
Y24827D01*
X127230D01*
Y24757D01*
X127195D01*
Y24723D01*
X127160D01*
Y24688D01*
X127126D01*
Y24653D01*
X127091D01*
Y24584D01*
X127056D01*
Y24549D01*
X127022D01*
Y24514D01*
X126987D01*
Y24480D01*
X126952D01*
Y24410D01*
X126918D01*
Y24376D01*
X126883D01*
Y24341D01*
X126848D01*
Y24272D01*
X126813D01*
Y24237D01*
X126779D01*
Y24168D01*
X126744D01*
Y24133D01*
X126709D01*
Y24063D01*
X126675D01*
Y24029D01*
X126640D01*
Y23959D01*
X126605D01*
Y23925D01*
X126571D01*
Y23855D01*
X126536D01*
Y23786D01*
X126501D01*
Y23751D01*
X126467D01*
Y23682D01*
X126432D01*
Y23647D01*
X126397D01*
Y23612D01*
X126362D01*
Y23578D01*
X126328D01*
Y23543D01*
X126258D01*
Y23508D01*
X126189D01*
Y23474D01*
X126085D01*
Y23439D01*
X126016D01*
Y23404D01*
X125946D01*
Y23370D01*
X125877D01*
Y23335D01*
X125807D01*
Y23300D01*
X125738D01*
Y23266D01*
X125669D01*
Y23231D01*
X125599D01*
Y23196D01*
X125495D01*
Y23162D01*
X125426D01*
Y23127D01*
X125356D01*
Y23092D01*
X125287D01*
Y23057D01*
X125218D01*
Y23023D01*
X125148D01*
Y22988D01*
X125079D01*
Y22953D01*
X125010D01*
Y22919D01*
X124940D01*
Y22884D01*
X124871D01*
Y22849D01*
X124767D01*
Y22815D01*
X124697D01*
Y22780D01*
X124628D01*
Y22745D01*
X124559D01*
Y22711D01*
X124489D01*
Y22676D01*
X124420D01*
Y22641D01*
X124351D01*
Y22606D01*
X124281D01*
Y22572D01*
X124212D01*
Y22537D01*
X124108D01*
Y22502D01*
X124038D01*
Y22468D01*
X123969D01*
Y22433D01*
X123899D01*
Y22398D01*
X123830D01*
Y22364D01*
X123761D01*
Y22329D01*
X123691D01*
Y22294D01*
X123587D01*
Y22260D01*
X123518D01*
Y22225D01*
X123449D01*
Y22190D01*
X123379D01*
Y22155D01*
X123310D01*
Y22121D01*
X123240D01*
Y22086D01*
X123171D01*
Y22051D01*
X123067D01*
Y22017D01*
X122998D01*
Y21982D01*
X122928D01*
Y21947D01*
X122859D01*
Y21913D01*
X122790D01*
Y21878D01*
X122720D01*
Y21843D01*
X122616D01*
Y21809D01*
X122547D01*
Y21774D01*
X122477D01*
Y21739D01*
X122408D01*
Y21705D01*
X122338D01*
Y21670D01*
X122234D01*
Y21635D01*
X122165D01*
Y21600D01*
X122096D01*
Y21566D01*
X122026D01*
Y21531D01*
X121922D01*
Y21496D01*
X121853D01*
Y21462D01*
X121783D01*
Y21427D01*
X121679D01*
Y21392D01*
X121610D01*
Y21358D01*
X121541D01*
Y21323D01*
X121437D01*
Y21288D01*
X121367D01*
Y21254D01*
X121298D01*
Y21219D01*
X121229D01*
Y21184D01*
X121159D01*
Y21149D01*
X121055D01*
Y21115D01*
X120986D01*
Y21080D01*
X120916D01*
Y21045D01*
X120847D01*
Y21011D01*
X120743D01*
Y20976D01*
X120673D01*
Y20941D01*
X120604D01*
Y20907D01*
X120500D01*
Y20872D01*
X120431D01*
Y20837D01*
X120361D01*
Y20803D01*
X120257D01*
Y20768D01*
X120188D01*
Y20733D01*
X120118D01*
Y20699D01*
X120049D01*
Y20664D01*
X119945D01*
Y20629D01*
X119876D01*
Y20595D01*
X119806D01*
Y20560D01*
X119737D01*
Y20525D01*
X119633D01*
Y20490D01*
X119563D01*
Y20456D01*
X119494D01*
Y20421D01*
X119390D01*
Y20386D01*
X119321D01*
Y20352D01*
X119251D01*
Y20317D01*
X119182D01*
Y20282D01*
X119078D01*
Y20248D01*
X119008D01*
Y20213D01*
X118939D01*
Y20178D01*
X118870D01*
Y20143D01*
X118800D01*
Y20109D01*
X118731D01*
Y20074D01*
X118661D01*
Y20040D01*
X118592D01*
Y20005D01*
X118557D01*
Y19970D01*
X118488D01*
Y19935D01*
X118453D01*
Y19901D01*
X118384D01*
Y19866D01*
X118349D01*
Y19831D01*
X118315D01*
Y19797D01*
X118280D01*
Y19762D01*
X118210D01*
Y19727D01*
X118176D01*
Y19693D01*
X118141D01*
Y19658D01*
X118106D01*
Y19623D01*
X118072D01*
Y19589D01*
X118037D01*
Y19554D01*
X118002D01*
Y19519D01*
X117968D01*
Y19485D01*
X117864D01*
Y19450D01*
X117690D01*
Y19415D01*
X117517D01*
Y19380D01*
X117343D01*
Y19346D01*
X117170D01*
Y19311D01*
X116962D01*
Y19276D01*
X116754D01*
Y19242D01*
X116545D01*
Y19207D01*
X116372D01*
Y19172D01*
X116129D01*
Y19138D01*
X115852D01*
Y19103D01*
X115574D01*
Y19068D01*
X115193D01*
Y19034D01*
X114672D01*
Y18999D01*
X113736D01*
Y19034D01*
X113319D01*
Y19068D01*
X113007D01*
Y19103D01*
X112764D01*
Y19138D01*
X112591D01*
Y19172D01*
X112417D01*
Y19207D01*
X112279D01*
Y19242D01*
X112140D01*
Y19276D01*
X112001D01*
Y19311D01*
X111897D01*
Y19346D01*
X111793D01*
Y19380D01*
X111689D01*
Y19415D01*
X111585D01*
Y19450D01*
X111481D01*
Y19485D01*
X111411D01*
Y19519D01*
X111307D01*
Y19554D01*
X111238D01*
Y19589D01*
X111169D01*
Y19623D01*
X111099D01*
Y19658D01*
X111030D01*
Y19693D01*
X110926D01*
Y19727D01*
X110856D01*
Y19762D01*
X110787D01*
Y19797D01*
X110718D01*
Y19831D01*
X110683D01*
Y19866D01*
X110614D01*
Y19901D01*
X110544D01*
Y19935D01*
X110510D01*
Y19970D01*
X110440D01*
Y20005D01*
X110406D01*
Y20040D01*
X110336D01*
Y20074D01*
X110267D01*
Y20109D01*
X110232D01*
Y20143D01*
X110163D01*
Y20178D01*
X110128D01*
Y20213D01*
X110093D01*
Y20248D01*
X110059D01*
Y20282D01*
X109989D01*
Y20317D01*
X109955D01*
Y20352D01*
X109920D01*
Y20386D01*
X109885D01*
Y20421D01*
X109851D01*
Y20456D01*
X109781D01*
Y20490D01*
X109746D01*
Y20525D01*
X109712D01*
Y20560D01*
X109677D01*
Y20595D01*
X109642D01*
Y20629D01*
X109608D01*
Y20664D01*
X109573D01*
Y20699D01*
X109538D01*
Y20733D01*
X109504D01*
Y20768D01*
X109469D01*
Y20803D01*
X109434D01*
Y20837D01*
X109399D01*
Y20872D01*
X109365D01*
Y20907D01*
X109330D01*
Y20976D01*
X109295D01*
Y21011D01*
X109261D01*
Y21045D01*
X109226D01*
Y21080D01*
X109191D01*
Y21149D01*
X109157D01*
Y21184D01*
X109122D01*
Y21219D01*
X109087D01*
Y21288D01*
X109053D01*
Y21323D01*
X109018D01*
Y21392D01*
X108983D01*
Y21462D01*
X108949D01*
Y21496D01*
X108914D01*
Y21566D01*
X108879D01*
Y21635D01*
X108844D01*
Y21705D01*
X108810D01*
Y21774D01*
X108775D01*
Y21843D01*
X108740D01*
Y21947D01*
X108706D01*
Y22017D01*
X108671D01*
Y22121D01*
X108636D01*
Y22225D01*
X108602D01*
Y22329D01*
X108567D01*
Y22468D01*
X108532D01*
Y22606D01*
X108498D01*
Y22780D01*
X108463D01*
Y23092D01*
X108428D01*
Y23855D01*
X108463D01*
Y24133D01*
X108498D01*
Y24341D01*
X108532D01*
Y24514D01*
X108567D01*
Y24653D01*
X108602D01*
Y24792D01*
X108636D01*
Y24931D01*
X108671D01*
Y25035D01*
X108706D01*
Y25173D01*
X108740D01*
Y25278D01*
X108775D01*
Y25382D01*
X108810D01*
Y25486D01*
X108844D01*
Y25555D01*
X108879D01*
Y25659D01*
X108914D01*
Y25728D01*
X108949D01*
Y25833D01*
X108983D01*
Y25902D01*
X109018D01*
Y25971D01*
X109053D01*
Y26075D01*
X109087D01*
Y26145D01*
X109122D01*
Y26214D01*
X109157D01*
Y26283D01*
X109191D01*
Y26388D01*
X109226D01*
Y26457D01*
X109157D01*
Y26422D01*
X109087D01*
Y26388D01*
X109018D01*
Y26353D01*
X108949D01*
Y26318D01*
X108914D01*
Y26283D01*
X108844D01*
Y26249D01*
X108810D01*
Y26214D01*
X108775D01*
Y26179D01*
X108706D01*
Y26145D01*
X108671D01*
Y26110D01*
X108636D01*
Y26075D01*
X108602D01*
Y26041D01*
X108567D01*
Y26006D01*
X108532D01*
Y25971D01*
X108498D01*
Y25937D01*
X108463D01*
Y25902D01*
X108428D01*
Y25867D01*
X108394D01*
Y25833D01*
X108359D01*
Y25798D01*
X108324D01*
Y25763D01*
X108290D01*
Y25728D01*
X108255D01*
Y25694D01*
X108151D01*
Y25728D01*
X108116D01*
Y25763D01*
X108081D01*
Y26110D01*
X108116D01*
Y26388D01*
X108151D01*
Y26596D01*
X108185D01*
Y26769D01*
X108220D01*
Y26943D01*
X108255D01*
Y27081D01*
X108290D01*
Y27220D01*
X108324D01*
Y27359D01*
X108359D01*
Y27463D01*
X108394D01*
Y27567D01*
X108428D01*
Y27671D01*
X108463D01*
Y27740D01*
X108498D01*
Y27845D01*
X108532D01*
Y27914D01*
X108567D01*
Y28018D01*
X108602D01*
Y28087D01*
X108636D01*
Y28191D01*
X108671D01*
Y28261D01*
X108706D01*
Y28330D01*
X108740D01*
Y28400D01*
X108775D01*
Y28469D01*
X108810D01*
Y28538D01*
X108844D01*
Y28608D01*
X108879D01*
Y28677D01*
X108914D01*
Y28746D01*
X108949D01*
Y28816D01*
X108983D01*
Y28885D01*
X109018D01*
Y28955D01*
X109053D01*
Y28989D01*
X109087D01*
Y29059D01*
X109122D01*
Y29128D01*
X109157D01*
Y29163D01*
X109191D01*
Y29232D01*
X109226D01*
Y29267D01*
X109261D01*
Y29336D01*
X109295D01*
Y29371D01*
X109330D01*
Y29440D01*
X109365D01*
Y29475D01*
X109399D01*
Y29544D01*
X109434D01*
Y29579D01*
X109469D01*
Y29648D01*
X109504D01*
Y29683D01*
X109538D01*
Y29718D01*
X109573D01*
Y29787D01*
X109608D01*
Y29822D01*
X109642D01*
Y29857D01*
X109677D01*
Y29926D01*
X109712D01*
Y29961D01*
X109746D01*
Y29995D01*
X109781D01*
Y30065D01*
X109816D01*
Y30099D01*
X109851D01*
Y30134D01*
X109885D01*
Y30169D01*
X109920D01*
Y30238D01*
X109955D01*
Y30273D01*
X109989D01*
Y30307D01*
X110024D01*
Y30342D01*
X110059D01*
Y30377D01*
X110093D01*
Y30411D01*
X110128D01*
Y30446D01*
X110163D01*
Y30481D01*
X110197D01*
Y30516D01*
X110232D01*
Y30585D01*
X110267D01*
Y30620D01*
X110301D01*
Y30654D01*
X110336D01*
Y30689D01*
X110371D01*
Y30724D01*
X110406D01*
Y30758D01*
X110440D01*
Y30793D01*
X110475D01*
Y30828D01*
X110510D01*
Y30862D01*
X110544D01*
Y30897D01*
X110579D01*
Y30932D01*
X110614D01*
Y30966D01*
X110648D01*
Y31001D01*
X110683D01*
Y31036D01*
X110718D01*
Y31071D01*
X110787D01*
Y31105D01*
X110822D01*
Y31140D01*
X110856D01*
Y31175D01*
X110891D01*
Y31209D01*
X110926D01*
Y31244D01*
X110960D01*
Y31279D01*
X110995D01*
Y31313D01*
X111030D01*
Y31348D01*
X111099D01*
Y31383D01*
X111134D01*
Y31418D01*
X111169D01*
Y31452D01*
X111203D01*
Y31487D01*
X111238D01*
Y31521D01*
X111169D01*
Y31556D01*
X110891D01*
Y31521D01*
X110718D01*
Y31487D01*
X110579D01*
Y31452D01*
X110406D01*
Y31418D01*
X110163D01*
Y31591D01*
X110197D01*
Y31660D01*
X110232D01*
Y31730D01*
X110267D01*
Y31799D01*
X110301D01*
Y31834D01*
X110336D01*
Y31903D01*
X110371D01*
Y31973D01*
X110406D01*
Y32007D01*
X110440D01*
Y32077D01*
X110475D01*
Y32111D01*
X110510D01*
Y32181D01*
X110544D01*
Y32215D01*
X110579D01*
Y32285D01*
X110614D01*
Y32319D01*
X110648D01*
Y32354D01*
X110683D01*
Y32423D01*
X110718D01*
Y32458D01*
X110752D01*
Y32493D01*
X110787D01*
Y32528D01*
X110822D01*
Y32597D01*
X110856D01*
Y32632D01*
X110891D01*
Y32666D01*
X110926D01*
Y32701D01*
X110960D01*
Y32736D01*
X110995D01*
Y32770D01*
X111030D01*
Y32840D01*
X111065D01*
Y32874D01*
X111099D01*
Y32909D01*
X111134D01*
Y32944D01*
X111169D01*
Y32978D01*
X111203D01*
Y33013D01*
X111238D01*
Y33048D01*
X111273D01*
Y33083D01*
X111307D01*
Y33117D01*
X111342D01*
Y33152D01*
X111377D01*
Y33187D01*
X111411D01*
Y33221D01*
X111446D01*
Y33256D01*
X111481D01*
Y33291D01*
X111550D01*
Y33325D01*
X111585D01*
Y33360D01*
X111620D01*
Y33395D01*
X111654D01*
Y33429D01*
X111689D01*
Y33464D01*
X111724D01*
Y33499D01*
X111793D01*
Y33533D01*
X111828D01*
Y33568D01*
X111862D01*
Y33603D01*
X111897D01*
Y33638D01*
X111932D01*
Y33672D01*
X112001D01*
Y33707D01*
X112036D01*
Y33742D01*
X112071D01*
Y33776D01*
X112140D01*
Y33811D01*
X112175D01*
Y33846D01*
X112209D01*
Y33880D01*
X112279D01*
Y33915D01*
X112313D01*
Y33950D01*
X112348D01*
Y33984D01*
X112417D01*
Y34019D01*
X112452D01*
Y34054D01*
X112522D01*
Y34089D01*
X112556D01*
Y34123D01*
X112626D01*
Y34158D01*
X112695D01*
Y34193D01*
X112730D01*
Y34227D01*
X112799D01*
Y34262D01*
X112834D01*
Y34297D01*
X112903D01*
Y34331D01*
X112972D01*
Y34366D01*
X113007D01*
Y34401D01*
X113077D01*
Y34435D01*
X113146D01*
Y34470D01*
X113215D01*
Y34505D01*
X113285D01*
Y34539D01*
X113354D01*
Y34574D01*
X113423D01*
Y34609D01*
X113493D01*
Y34644D01*
X113562D01*
Y34678D01*
X113632D01*
Y34713D01*
X113701D01*
Y34748D01*
X113805D01*
Y34782D01*
X113874D01*
Y34817D01*
X113944D01*
Y34852D01*
X114048D01*
Y34886D01*
X114117D01*
Y34921D01*
X114221D01*
Y34956D01*
X114325D01*
Y34990D01*
X114395D01*
Y35025D01*
X114499D01*
Y35060D01*
X114603D01*
Y35094D01*
X114742D01*
Y35129D01*
X114846D01*
Y35164D01*
X114950D01*
Y35199D01*
X115088D01*
Y35233D01*
X115193D01*
Y35268D01*
X115227D01*
Y35303D01*
X115193D01*
Y35337D01*
X115158D01*
Y35372D01*
X115088D01*
Y35407D01*
X114984D01*
Y35441D01*
X114880D01*
Y35476D01*
X114742D01*
Y35511D01*
X114603D01*
Y35545D01*
X114429D01*
Y35580D01*
X114117D01*
Y35615D01*
X113944D01*
Y35649D01*
X113909D01*
Y35788D01*
X113944D01*
Y35823D01*
X113979D01*
Y35858D01*
X114013D01*
Y35892D01*
X114048D01*
Y35927D01*
X114083D01*
Y35962D01*
X114152D01*
Y35996D01*
X114187D01*
Y36031D01*
X114256D01*
Y36066D01*
X114291D01*
Y36101D01*
X114360D01*
Y36135D01*
X114395D01*
Y36170D01*
X114464D01*
Y36205D01*
X114533D01*
Y36239D01*
X114603D01*
Y36274D01*
X114672D01*
Y36309D01*
X114742D01*
Y36343D01*
X114811D01*
Y36378D01*
X114880D01*
Y36413D01*
X114950D01*
Y36447D01*
X115019D01*
Y36482D01*
X115123D01*
Y36517D01*
X115193D01*
Y36551D01*
X115297D01*
Y36586D01*
X115366D01*
Y36621D01*
X115505D01*
Y36656D01*
X115609D01*
Y36690D01*
X115713D01*
Y36725D01*
X115852D01*
Y36760D01*
X115990D01*
Y36794D01*
X116129D01*
Y36829D01*
X116337D01*
Y36864D01*
X116545D01*
Y36898D01*
X116892D01*
Y36933D01*
X117586D01*
Y36898D01*
X117656D01*
Y36725D01*
X117621D01*
Y36551D01*
X117586D01*
Y36309D01*
X117551D01*
Y35996D01*
X117517D01*
Y35199D01*
X117551D01*
Y34956D01*
X117586D01*
Y34817D01*
X117621D01*
Y34748D01*
X117656D01*
Y34713D01*
X117690D01*
Y34678D01*
X117760D01*
Y34644D01*
X117898D01*
Y34678D01*
X118002D01*
Y34713D01*
X118072D01*
Y34748D01*
X118106D01*
Y34782D01*
X118141D01*
Y34817D01*
X118210D01*
Y34852D01*
X118245D01*
Y34886D01*
X118280D01*
Y34921D01*
X118349D01*
Y34956D01*
X118453D01*
Y34921D01*
X118488D01*
Y34609D01*
X118523D01*
Y34401D01*
X118557D01*
Y34297D01*
X118592D01*
Y34193D01*
X118627D01*
Y34089D01*
X118661D01*
Y34019D01*
X118696D01*
Y33950D01*
X118731D01*
Y33880D01*
X118766D01*
Y33811D01*
X118800D01*
Y33742D01*
X118835D01*
Y33672D01*
X118870D01*
Y33638D01*
X118904D01*
Y33568D01*
X118939D01*
Y33533D01*
X118974D01*
Y33499D01*
X119008D01*
Y33464D01*
X119043D01*
Y33395D01*
X119112D01*
Y33360D01*
X119147D01*
Y33325D01*
X119182D01*
Y33291D01*
X119217D01*
Y33256D01*
X119286D01*
Y33221D01*
X119355D01*
Y33187D01*
X119390D01*
Y33152D01*
X119563D01*
Y33187D01*
X119598D01*
Y33221D01*
X119633D01*
Y33395D01*
X119598D01*
Y33499D01*
X119563D01*
Y33603D01*
X119529D01*
Y33672D01*
X119494D01*
Y33776D01*
X119459D01*
Y33846D01*
X119425D01*
Y33950D01*
X119390D01*
Y34054D01*
X119355D01*
Y34193D01*
X119321D01*
Y34331D01*
X119286D01*
Y34539D01*
X119251D01*
Y35441D01*
X119286D01*
Y35649D01*
X119321D01*
Y35823D01*
X119355D01*
Y35927D01*
X119390D01*
Y36066D01*
X119425D01*
Y36170D01*
X119459D01*
Y36343D01*
X119425D01*
Y36378D01*
X119321D01*
Y36343D01*
X119217D01*
Y36309D01*
X119147D01*
Y36274D01*
X119078D01*
Y36239D01*
X119008D01*
Y36205D01*
X118974D01*
Y36170D01*
X118904D01*
Y36135D01*
X118835D01*
Y36101D01*
X118800D01*
Y36066D01*
X118731D01*
Y36031D01*
X118696D01*
Y35996D01*
X118661D01*
Y35962D01*
X118592D01*
Y35927D01*
X118557D01*
Y35892D01*
X118523D01*
Y35858D01*
X118488D01*
Y35823D01*
X118453D01*
Y35788D01*
X118384D01*
Y35754D01*
X118315D01*
Y35719D01*
X118245D01*
Y35754D01*
X118210D01*
Y35788D01*
X118176D01*
Y35892D01*
X118141D01*
Y36378D01*
X118176D01*
Y36794D01*
X118210D01*
Y37002D01*
X118245D01*
Y37176D01*
X118280D01*
Y37349D01*
X118315D01*
Y37488D01*
X118349D01*
Y37627D01*
X118384D01*
Y37731D01*
X118419D01*
Y37835D01*
X118453D01*
Y37939D01*
X118488D01*
Y38008D01*
X118523D01*
Y38112D01*
X118557D01*
Y38217D01*
X118592D01*
Y38286D01*
X118627D01*
Y38390D01*
X118661D01*
Y38459D01*
X118696D01*
Y38529D01*
X118731D01*
Y38598D01*
X118766D01*
Y38668D01*
X118800D01*
Y38737D01*
X118835D01*
Y38806D01*
X118870D01*
Y38876D01*
X118904D01*
Y38945D01*
X118939D01*
Y39014D01*
X118974D01*
Y39084D01*
X119008D01*
Y39153D01*
X119043D01*
Y39188D01*
X119078D01*
Y39292D01*
X119008D01*
Y39257D01*
X118835D01*
Y39222D01*
X118731D01*
Y39188D01*
X118627D01*
Y39153D01*
X118557D01*
Y39118D01*
X118488D01*
Y39084D01*
X118384D01*
Y39049D01*
X118315D01*
Y39014D01*
X118245D01*
Y38980D01*
X118176D01*
Y38945D01*
X118106D01*
Y38910D01*
X118037D01*
Y38876D01*
X118002D01*
Y38841D01*
X117933D01*
Y38806D01*
X117690D01*
Y39118D01*
X117725D01*
Y39257D01*
X117760D01*
Y39361D01*
X117794D01*
Y39465D01*
X117829D01*
Y39535D01*
X117864D01*
Y39639D01*
X117898D01*
Y39708D01*
X117933D01*
Y39777D01*
X117968D01*
Y39847D01*
X118002D01*
Y39951D01*
X118037D01*
Y40020D01*
X118072D01*
Y40055D01*
X118106D01*
Y40124D01*
X118141D01*
Y40194D01*
X118176D01*
Y40263D01*
X118210D01*
Y40298D01*
X118245D01*
Y40367D01*
X118280D01*
Y40437D01*
X118315D01*
Y40506D01*
X118349D01*
Y40541D01*
X118384D01*
Y40610D01*
X118419D01*
Y40645D01*
X118453D01*
Y40679D01*
X118488D01*
Y40749D01*
X118523D01*
Y40784D01*
X118557D01*
Y40853D01*
X118592D01*
Y40888D01*
X118627D01*
Y40957D01*
X118661D01*
Y40992D01*
X118696D01*
Y41026D01*
X118731D01*
Y41096D01*
X118766D01*
Y41130D01*
X118800D01*
Y41165D01*
X118835D01*
Y41200D01*
X118870D01*
Y41234D01*
X118904D01*
Y41304D01*
X118939D01*
Y41339D01*
X118974D01*
Y41373D01*
X119008D01*
Y41408D01*
X119043D01*
Y41443D01*
X119078D01*
Y41477D01*
X119112D01*
Y41512D01*
X119147D01*
Y41547D01*
X119182D01*
Y41581D01*
X119217D01*
Y41616D01*
X119251D01*
Y41651D01*
X119286D01*
Y41685D01*
X119321D01*
Y41720D01*
X119355D01*
Y41755D01*
X119390D01*
Y41789D01*
X119425D01*
Y41824D01*
X119459D01*
Y41859D01*
X119494D01*
Y41894D01*
X119529D01*
Y41928D01*
X119563D01*
Y41963D01*
X119598D01*
Y41998D01*
X119667D01*
Y42032D01*
X119702D01*
Y42067D01*
X119737D01*
Y42102D01*
X119772D01*
Y42171D01*
X119633D01*
Y42206D01*
X119112D01*
Y42171D01*
X118835D01*
Y42136D01*
X118592D01*
Y42171D01*
X118557D01*
Y42206D01*
X118523D01*
Y42344D01*
X118557D01*
Y42414D01*
X118592D01*
Y42483D01*
X118627D01*
Y42553D01*
X118661D01*
Y42622D01*
X118696D01*
Y42657D01*
X118731D01*
Y42726D01*
X118766D01*
Y42761D01*
X118800D01*
Y42830D01*
X118835D01*
Y42865D01*
X118870D01*
Y42934D01*
X118904D01*
Y42969D01*
X118939D01*
Y43038D01*
X118974D01*
Y43073D01*
X119008D01*
Y43108D01*
X119043D01*
Y43142D01*
X119078D01*
Y43177D01*
X119112D01*
Y43246D01*
X119147D01*
Y43281D01*
X119182D01*
Y43316D01*
X119217D01*
Y43350D01*
X119251D01*
Y43385D01*
X119286D01*
Y43420D01*
X119321D01*
Y43455D01*
X119355D01*
Y43489D01*
X119390D01*
Y43524D01*
X119425D01*
Y43559D01*
X119459D01*
Y43593D01*
X119494D01*
Y43628D01*
X119529D01*
Y43663D01*
X119563D01*
Y43697D01*
X119598D01*
Y43732D01*
X119633D01*
Y43767D01*
X119667D01*
Y43801D01*
X119737D01*
Y43836D01*
X119772D01*
Y43871D01*
X119806D01*
Y43905D01*
X119841D01*
Y43940D01*
X119910D01*
Y43975D01*
X119945D01*
Y44010D01*
X119980D01*
Y44044D01*
X120049D01*
Y44079D01*
X120084D01*
Y44114D01*
X120118D01*
Y44148D01*
X120188D01*
Y44183D01*
X120222D01*
Y44218D01*
X120257D01*
Y44252D01*
X120222D01*
Y44287D01*
X120188D01*
Y44322D01*
X120153D01*
Y44391D01*
X120118D01*
Y44426D01*
X120084D01*
Y44495D01*
X120049D01*
Y44530D01*
X120014D01*
Y44599D01*
X119980D01*
Y44669D01*
X119945D01*
Y44703D01*
X119910D01*
Y44773D01*
X119876D01*
Y44842D01*
X119841D01*
Y44912D01*
X119806D01*
Y45016D01*
X119772D01*
Y45085D01*
X119737D01*
Y45189D01*
X119702D01*
Y45293D01*
X119667D01*
Y45432D01*
X119633D01*
Y45605D01*
X119667D01*
Y45675D01*
X119702D01*
Y45709D01*
X119772D01*
Y45744D01*
X120118D01*
Y45709D01*
X120292D01*
Y45675D01*
X120361D01*
Y45848D01*
X120327D01*
Y45987D01*
X120292D01*
Y46195D01*
X120257D01*
Y46438D01*
X120222D01*
Y46750D01*
X120188D01*
Y47479D01*
X120153D01*
Y47583D01*
X120188D01*
Y48311D01*
X120222D01*
Y48623D01*
X120257D01*
Y48831D01*
X120292D01*
Y49040D01*
X120327D01*
Y49213D01*
X120361D01*
Y49352D01*
X120396D01*
Y49490D01*
X120431D01*
Y49595D01*
X120465D01*
Y49699D01*
X120500D01*
Y49803D01*
X120535D01*
Y49907D01*
X120569D01*
Y50011D01*
X120604D01*
Y50080D01*
X120639D01*
Y50184D01*
X120673D01*
Y50219D01*
X120708D01*
Y50288D01*
X120743D01*
Y50358D01*
X120777D01*
Y50392D01*
X120812D01*
Y50462D01*
X120847D01*
Y50496D01*
X120882D01*
Y50531D01*
X120916D01*
Y50566D01*
X120951D01*
Y50600D01*
X121020D01*
Y50635D01*
X121055D01*
Y50670D01*
X121124D01*
Y50705D01*
X121229D01*
Y50739D01*
X121679D01*
Y50705D01*
X121853D01*
Y50670D01*
X122026D01*
Y50635D01*
X122130D01*
Y50600D01*
X122269D01*
Y50566D01*
X122373D01*
Y50531D01*
X122477D01*
Y50496D01*
X122547D01*
Y50462D01*
X122651D01*
Y50427D01*
X122720D01*
Y50392D01*
X122790D01*
Y50358D01*
X122894D01*
Y50323D01*
X122963D01*
Y50288D01*
X123032D01*
Y50254D01*
X123102D01*
Y50219D01*
X123171D01*
Y50184D01*
X123240D01*
Y50150D01*
X123310D01*
Y50115D01*
X123379D01*
Y50080D01*
X123449D01*
Y50045D01*
X123483D01*
Y50011D01*
X123553D01*
Y49976D01*
X123622D01*
Y49941D01*
X123657D01*
Y49907D01*
X123726D01*
Y49872D01*
X123761D01*
Y49837D01*
X123830D01*
Y49803D01*
X123865D01*
Y49768D01*
X123934D01*
Y49733D01*
X123969D01*
Y49699D01*
X124038D01*
Y49664D01*
X124073D01*
Y49629D01*
X124108D01*
Y49595D01*
X124177D01*
Y49560D01*
X124212D01*
Y49525D01*
X124246D01*
Y49490D01*
X124316D01*
Y49456D01*
X124351D01*
Y49421D01*
X124385D01*
Y49386D01*
X124420D01*
Y49352D01*
X124454D01*
Y49317D01*
X124489D01*
Y49282D01*
X124559D01*
Y49248D01*
X124593D01*
Y49213D01*
X124628D01*
Y49178D01*
X124663D01*
Y49143D01*
X124697D01*
Y49109D01*
X124732D01*
Y49074D01*
X124767D01*
Y49040D01*
X124801D01*
Y49005D01*
X124836D01*
Y48970D01*
X124871D01*
Y48935D01*
X124906D01*
Y48901D01*
X124940D01*
Y48866D01*
X124975D01*
Y48831D01*
X125010D01*
Y48797D01*
X125044D01*
Y48762D01*
X125079D01*
Y48727D01*
X125114D01*
Y48658D01*
X125148D01*
Y48623D01*
X125183D01*
Y48588D01*
X125218D01*
Y48554D01*
X125252D01*
Y48519D01*
X125287D01*
Y48484D01*
X125322D01*
Y48415D01*
X125356D01*
Y48380D01*
X125391D01*
Y48346D01*
X125426D01*
Y48311D01*
X125461D01*
Y48242D01*
X125495D01*
Y48207D01*
X125530D01*
Y48172D01*
X125565D01*
Y48103D01*
X125599D01*
Y48068D01*
X125634D01*
Y47999D01*
X125669D01*
Y47964D01*
X125703D01*
Y47895D01*
X125738D01*
Y47860D01*
X125773D01*
Y47791D01*
X125807D01*
Y47756D01*
X125842D01*
Y47687D01*
X125877D01*
Y47652D01*
X125911D01*
Y47583D01*
X125946D01*
Y47548D01*
X125981D01*
Y47479D01*
X126016D01*
Y47444D01*
X126154D01*
Y47479D01*
X126258D01*
Y47513D01*
X126397D01*
Y47548D01*
X126501D01*
Y47583D01*
X126605D01*
Y47617D01*
X126744D01*
Y47652D01*
X126883D01*
Y47687D01*
X127056D01*
Y47721D01*
X127230D01*
Y47756D01*
X127507D01*
Y47791D01*
X128027D01*
Y47825D01*
X128201D01*
Y47791D01*
X128721D01*
Y47756D01*
X128964D01*
Y47721D01*
X129172D01*
Y47687D01*
X129346D01*
Y47652D01*
X129450D01*
Y47617D01*
X129588D01*
Y47583D01*
X129693D01*
Y47548D01*
X129831D01*
Y47513D01*
X129935D01*
Y47479D01*
X130040D01*
Y47444D01*
X130109D01*
Y47409D01*
X130143D01*
Y47444D01*
X130178D01*
Y47479D01*
X130213D01*
Y47548D01*
X130248D01*
Y47617D01*
X130282D01*
Y47652D01*
X130317D01*
Y47721D01*
X130352D01*
Y47756D01*
X130386D01*
Y47825D01*
X130421D01*
Y47860D01*
X130456D01*
Y47929D01*
X130490D01*
Y47964D01*
X130525D01*
Y48033D01*
X130560D01*
Y48068D01*
X130595D01*
Y48103D01*
X130629D01*
Y48138D01*
X130664D01*
Y48207D01*
X130699D01*
Y48242D01*
X130733D01*
Y48276D01*
X130768D01*
Y48346D01*
X130803D01*
Y48380D01*
X130837D01*
Y48415D01*
X130872D01*
Y48450D01*
X130907D01*
Y48519D01*
X130941D01*
Y48554D01*
X130976D01*
Y48588D01*
X131011D01*
Y48623D01*
X131045D01*
Y48658D01*
X131080D01*
Y48693D01*
X131115D01*
Y48727D01*
X131149D01*
Y48762D01*
X131184D01*
Y48797D01*
X131219D01*
Y48831D01*
X131254D01*
Y48866D01*
X131288D01*
Y48901D01*
X131323D01*
Y48935D01*
X131358D01*
Y48970D01*
X131392D01*
Y49005D01*
X131427D01*
Y49040D01*
X131462D01*
Y49074D01*
X131496D01*
Y49109D01*
X131531D01*
Y49143D01*
X131566D01*
Y49178D01*
X131600D01*
Y49213D01*
X131635D01*
Y49248D01*
X131670D01*
Y49282D01*
X131739D01*
Y49317D01*
X131774D01*
Y49352D01*
X131809D01*
Y49386D01*
X131843D01*
Y49421D01*
X131878D01*
Y49456D01*
X131947D01*
Y49490D01*
X131982D01*
Y49525D01*
X132017D01*
Y49560D01*
X132051D01*
Y49595D01*
X132121D01*
Y49629D01*
X132156D01*
Y49664D01*
X132225D01*
Y49699D01*
X132260D01*
Y49733D01*
X132329D01*
Y49768D01*
X132364D01*
Y49803D01*
X132433D01*
Y49837D01*
X132468D01*
Y49872D01*
X132537D01*
Y49907D01*
X132572D01*
Y49941D01*
X132641D01*
Y49976D01*
X132711D01*
Y50011D01*
X132780D01*
Y50045D01*
X132815D01*
Y50080D01*
X132884D01*
Y50115D01*
X132953D01*
Y50150D01*
X133023D01*
Y50184D01*
X133092D01*
Y50219D01*
X133161D01*
Y50254D01*
X133231D01*
Y50288D01*
X133300D01*
Y50323D01*
X133370D01*
Y50358D01*
X133474D01*
Y50392D01*
X133543D01*
Y50427D01*
X133647D01*
Y50462D01*
X133751D01*
Y50496D01*
X133855D01*
Y50531D01*
X133959D01*
Y50566D01*
X134063D01*
Y50600D01*
X134168D01*
Y50635D01*
X134306D01*
Y50670D01*
X134480D01*
Y50705D01*
X134688D01*
Y50739D01*
X135035D01*
Y50705D01*
D02*
G37*
G36*
X143360Y43593D02*
X143395D01*
Y43177D01*
X143360D01*
Y42795D01*
X143325D01*
Y41685D01*
X143360D01*
Y41304D01*
X143395D01*
Y40992D01*
X143429D01*
Y40818D01*
X143464D01*
Y40645D01*
X143499D01*
Y40471D01*
X143534D01*
Y40332D01*
X143568D01*
Y40194D01*
X143603D01*
Y40090D01*
X143638D01*
Y39951D01*
X143672D01*
Y39847D01*
X143707D01*
Y39743D01*
X143742D01*
Y39639D01*
X143776D01*
Y39569D01*
X143811D01*
Y39465D01*
X143846D01*
Y39361D01*
X143880D01*
Y39257D01*
X143915D01*
Y39188D01*
X143950D01*
Y39118D01*
X143984D01*
Y39014D01*
X144019D01*
Y38945D01*
X144054D01*
Y38876D01*
X144088D01*
Y38806D01*
X144123D01*
Y38737D01*
X144158D01*
Y38668D01*
X144193D01*
Y38598D01*
X144227D01*
Y38529D01*
X144262D01*
Y38459D01*
X144297D01*
Y38425D01*
X144331D01*
Y38355D01*
X144366D01*
Y38286D01*
X144401D01*
Y38217D01*
X144435D01*
Y38147D01*
X144470D01*
Y38112D01*
X144505D01*
Y38043D01*
X144539D01*
Y38008D01*
X144574D01*
Y37939D01*
X144609D01*
Y37870D01*
X144643D01*
Y37835D01*
X144678D01*
Y37766D01*
X144713D01*
Y37731D01*
X144748D01*
Y37661D01*
X144782D01*
Y37592D01*
X144817D01*
Y37557D01*
X144852D01*
Y37523D01*
X144886D01*
Y37453D01*
X144921D01*
Y37419D01*
X144956D01*
Y37349D01*
X144990D01*
Y37315D01*
X145025D01*
Y37245D01*
X145060D01*
Y37176D01*
X145095D01*
Y37141D01*
X145129D01*
Y37072D01*
X145164D01*
Y37037D01*
X145199D01*
Y36968D01*
X145233D01*
Y36933D01*
X145268D01*
Y36864D01*
X145303D01*
Y36829D01*
X145337D01*
Y36760D01*
X145372D01*
Y36725D01*
X145407D01*
Y36656D01*
X145441D01*
Y36621D01*
X145476D01*
Y36551D01*
X145511D01*
Y36517D01*
X145545D01*
Y36447D01*
X145580D01*
Y36378D01*
X145615D01*
Y36343D01*
X145650D01*
Y36274D01*
X145684D01*
Y36205D01*
X145719D01*
Y36170D01*
X145754D01*
Y36101D01*
X145788D01*
Y36066D01*
X145823D01*
Y35996D01*
X145858D01*
Y35927D01*
X145892D01*
Y35892D01*
X145927D01*
Y35823D01*
X145962D01*
Y35754D01*
X145996D01*
Y35684D01*
X146031D01*
Y35649D01*
X146066D01*
Y35580D01*
X146100D01*
Y35511D01*
X146135D01*
Y35441D01*
X146170D01*
Y35372D01*
X146204D01*
Y35303D01*
X146239D01*
Y35233D01*
X146274D01*
Y35164D01*
X146309D01*
Y35094D01*
X146343D01*
Y35025D01*
X146378D01*
Y34956D01*
X146413D01*
Y34852D01*
X146447D01*
Y34782D01*
X146482D01*
Y34678D01*
X146517D01*
Y34574D01*
X146551D01*
Y34505D01*
X146586D01*
Y34401D01*
X146621D01*
Y34297D01*
X146655D01*
Y34158D01*
X146690D01*
Y34054D01*
X146725D01*
Y33915D01*
X146760D01*
Y33776D01*
X146794D01*
Y33603D01*
X146829D01*
Y33429D01*
X146864D01*
Y33187D01*
X146898D01*
Y32354D01*
X146933D01*
Y32319D01*
X146968D01*
Y32285D01*
X147002D01*
Y32250D01*
X147037D01*
Y32215D01*
X147072D01*
Y32181D01*
X147107D01*
Y32146D01*
X147141D01*
Y32077D01*
X147176D01*
Y32042D01*
X147211D01*
Y31973D01*
X147245D01*
Y31938D01*
X147280D01*
Y31868D01*
X147315D01*
Y31799D01*
X147349D01*
Y31764D01*
X147384D01*
Y31695D01*
X147419D01*
Y31626D01*
X147453D01*
Y31521D01*
X147488D01*
Y31452D01*
X147523D01*
Y31348D01*
X147557D01*
Y31244D01*
X147592D01*
Y31105D01*
X147627D01*
Y30966D01*
X147661D01*
Y30758D01*
X147696D01*
Y29961D01*
X147661D01*
Y29752D01*
X147627D01*
Y29614D01*
X147592D01*
Y29475D01*
X147557D01*
Y29371D01*
X147523D01*
Y29267D01*
X147488D01*
Y29197D01*
X147453D01*
Y29093D01*
X147419D01*
Y29024D01*
X147384D01*
Y28955D01*
X147349D01*
Y28920D01*
X147315D01*
Y28850D01*
X147280D01*
Y28781D01*
X147245D01*
Y28746D01*
X147211D01*
Y28677D01*
X147176D01*
Y28642D01*
X147141D01*
Y28573D01*
X147107D01*
Y28538D01*
X147072D01*
Y28504D01*
X147037D01*
Y28469D01*
X147002D01*
Y28434D01*
X146968D01*
Y28400D01*
X146933D01*
Y28365D01*
X146898D01*
Y28330D01*
X146864D01*
Y28295D01*
X146794D01*
Y28261D01*
X146760D01*
Y28226D01*
X146551D01*
Y28261D01*
X146517D01*
Y28295D01*
X146482D01*
Y28400D01*
X146447D01*
Y28538D01*
X146413D01*
Y28642D01*
X146343D01*
Y28608D01*
X146274D01*
Y28573D01*
X146170D01*
Y28538D01*
X146100D01*
Y28504D01*
X145996D01*
Y28469D01*
X145788D01*
Y28434D01*
X145337D01*
Y28469D01*
X145199D01*
Y28504D01*
X145060D01*
Y28469D01*
X145025D01*
Y28365D01*
X144990D01*
Y28261D01*
X144956D01*
Y28157D01*
X144921D01*
Y28053D01*
X144886D01*
Y27949D01*
X144852D01*
Y27879D01*
X144817D01*
Y27810D01*
X144782D01*
Y27706D01*
X144748D01*
Y27636D01*
X144713D01*
Y27567D01*
X144678D01*
Y27498D01*
X144643D01*
Y27428D01*
X144609D01*
Y27359D01*
X144574D01*
Y27324D01*
X144539D01*
Y27255D01*
X144505D01*
Y27185D01*
X144470D01*
Y27151D01*
X144435D01*
Y27081D01*
X144401D01*
Y27012D01*
X144366D01*
Y26977D01*
X144331D01*
Y26908D01*
X144297D01*
Y26838D01*
X144262D01*
Y26769D01*
X144227D01*
Y26630D01*
X144193D01*
Y26318D01*
X144158D01*
Y25971D01*
X144123D01*
Y25659D01*
X144088D01*
Y25416D01*
X144054D01*
Y25173D01*
X144019D01*
Y25000D01*
X143984D01*
Y24792D01*
X143950D01*
Y24653D01*
X143915D01*
Y24514D01*
X143880D01*
Y24376D01*
X143846D01*
Y24237D01*
X143811D01*
Y24098D01*
X143776D01*
Y23994D01*
X143742D01*
Y23890D01*
X143707D01*
Y23786D01*
X143672D01*
Y23682D01*
X143638D01*
Y23612D01*
X143603D01*
Y23508D01*
X143568D01*
Y23404D01*
X143534D01*
Y23335D01*
X143499D01*
Y23266D01*
X143464D01*
Y23162D01*
X143429D01*
Y23092D01*
X143395D01*
Y23023D01*
X143360D01*
Y22919D01*
X143325D01*
Y22849D01*
X143291D01*
Y22780D01*
X143256D01*
Y22711D01*
X143221D01*
Y22641D01*
X143187D01*
Y22572D01*
X143152D01*
Y22502D01*
X143117D01*
Y22433D01*
X143082D01*
Y22364D01*
X143048D01*
Y22329D01*
X143013D01*
Y22260D01*
X142979D01*
Y22190D01*
X142944D01*
Y22121D01*
X142909D01*
Y22086D01*
X142874D01*
Y22017D01*
X142840D01*
Y21947D01*
X142805D01*
Y21913D01*
X142770D01*
Y21843D01*
X142736D01*
Y21809D01*
X142701D01*
Y21739D01*
X142666D01*
Y21705D01*
X142632D01*
Y21635D01*
X142597D01*
Y21600D01*
X142562D01*
Y21531D01*
X142527D01*
Y21496D01*
X142493D01*
Y21462D01*
X142458D01*
Y21392D01*
X142423D01*
Y21358D01*
X142389D01*
Y21323D01*
X142354D01*
Y21254D01*
X142319D01*
Y21219D01*
X142285D01*
Y21184D01*
X142250D01*
Y21115D01*
X142215D01*
Y21080D01*
X142181D01*
Y21045D01*
X142146D01*
Y20976D01*
X142111D01*
Y20941D01*
X142077D01*
Y20907D01*
X142042D01*
Y20872D01*
X142007D01*
Y20837D01*
X141972D01*
Y20803D01*
X141938D01*
Y20768D01*
X141903D01*
Y20699D01*
X141868D01*
Y20664D01*
X141834D01*
Y20629D01*
X141799D01*
Y20595D01*
X141764D01*
Y20560D01*
X141730D01*
Y20525D01*
X141695D01*
Y20490D01*
X141660D01*
Y20456D01*
X141626D01*
Y20421D01*
X141591D01*
Y20386D01*
X141556D01*
Y20352D01*
X141522D01*
Y20317D01*
X141487D01*
Y20282D01*
X141452D01*
Y20248D01*
X141418D01*
Y20213D01*
X141383D01*
Y20178D01*
X141348D01*
Y20143D01*
X141313D01*
Y20109D01*
X141279D01*
Y20074D01*
X141244D01*
Y20040D01*
X141175D01*
Y20005D01*
X141140D01*
Y19970D01*
X141105D01*
Y19935D01*
X141071D01*
Y19901D01*
X141036D01*
Y19866D01*
X141001D01*
Y19831D01*
X140932D01*
Y19797D01*
X140897D01*
Y19762D01*
X140862D01*
Y19727D01*
X140828D01*
Y19693D01*
X140793D01*
Y19658D01*
X140724D01*
Y19623D01*
X140689D01*
Y19589D01*
X140654D01*
Y19554D01*
X140585D01*
Y19519D01*
X140550D01*
Y19485D01*
X140516D01*
Y19450D01*
X140446D01*
Y19415D01*
X140411D01*
Y19380D01*
X140342D01*
Y19346D01*
X140307D01*
Y19311D01*
X140273D01*
Y19276D01*
X140203D01*
Y19242D01*
X140169D01*
Y19207D01*
X140099D01*
Y19172D01*
X140065D01*
Y19138D01*
X139995D01*
Y19103D01*
X139961D01*
Y19068D01*
X139891D01*
Y19034D01*
X139857D01*
Y18999D01*
X139787D01*
Y18964D01*
X139718D01*
Y18929D01*
X139683D01*
Y18895D01*
X139614D01*
Y18860D01*
X139544D01*
Y18825D01*
X139510D01*
Y18791D01*
X139440D01*
Y18756D01*
X139371D01*
Y18721D01*
X139301D01*
Y18687D01*
X139232D01*
Y18652D01*
X139197D01*
Y18617D01*
X139128D01*
Y18583D01*
X139059D01*
Y18548D01*
X138989D01*
Y18513D01*
X138920D01*
Y18478D01*
X138850D01*
Y18444D01*
X138781D01*
Y18409D01*
X138712D01*
Y18374D01*
X138642D01*
Y18340D01*
X138573D01*
Y18305D01*
X138504D01*
Y18270D01*
X138400D01*
Y18236D01*
X138330D01*
Y18201D01*
X138261D01*
Y18166D01*
X138157D01*
Y18132D01*
X138087D01*
Y18097D01*
X138018D01*
Y18062D01*
X137914D01*
Y18027D01*
X137810D01*
Y17993D01*
X137740D01*
Y17958D01*
X137636D01*
Y17923D01*
X137567D01*
Y17854D01*
X137532D01*
Y17438D01*
X137567D01*
Y17299D01*
X137602D01*
Y17230D01*
X137636D01*
Y17160D01*
X137671D01*
Y17091D01*
X137706D01*
Y17056D01*
X137740D01*
Y16987D01*
X137775D01*
Y16952D01*
X137810D01*
Y16917D01*
X137845D01*
Y16883D01*
X137879D01*
Y16848D01*
X137914D01*
Y16813D01*
X137983D01*
Y16779D01*
X138018D01*
Y16744D01*
X138053D01*
Y16709D01*
X138122D01*
Y16675D01*
X138191D01*
Y16640D01*
X138261D01*
Y16605D01*
X138330D01*
Y16571D01*
X138434D01*
Y16536D01*
X138538D01*
Y16501D01*
X138677D01*
Y16466D01*
X139232D01*
Y16501D01*
X139406D01*
Y16536D01*
X139579D01*
Y16571D01*
X139857D01*
Y16605D01*
X140377D01*
Y16571D01*
X140585D01*
Y16536D01*
X140724D01*
Y16501D01*
X140828D01*
Y16466D01*
X140897D01*
Y16432D01*
X140966D01*
Y16397D01*
X141036D01*
Y16362D01*
X141071D01*
Y16328D01*
X141140D01*
Y16293D01*
X141175D01*
Y16258D01*
X141209D01*
Y16224D01*
X141244D01*
Y16189D01*
X141279D01*
Y16154D01*
X141313D01*
Y16120D01*
X141348D01*
Y16050D01*
X141383D01*
Y16015D01*
X141418D01*
Y15946D01*
X141452D01*
Y15842D01*
X141487D01*
Y15703D01*
X141522D01*
Y15461D01*
X141487D01*
Y15391D01*
X141452D01*
Y15357D01*
X141348D01*
Y15391D01*
X141313D01*
Y15426D01*
X141279D01*
Y15461D01*
X141209D01*
Y15495D01*
X141175D01*
Y15530D01*
X141140D01*
Y15565D01*
X141105D01*
Y15599D01*
X141036D01*
Y15634D01*
X141001D01*
Y15669D01*
X140932D01*
Y15703D01*
X140862D01*
Y15738D01*
X140758D01*
Y15773D01*
X140654D01*
Y15807D01*
X140516D01*
Y15842D01*
X140342D01*
Y15877D01*
X140030D01*
Y15807D01*
X140099D01*
Y15773D01*
X140134D01*
Y15738D01*
X140169D01*
Y15703D01*
X140203D01*
Y15669D01*
X140238D01*
Y15634D01*
X140273D01*
Y15565D01*
X140307D01*
Y15530D01*
X140342D01*
Y15461D01*
X140377D01*
Y15391D01*
X140411D01*
Y15322D01*
X140446D01*
Y15148D01*
X140481D01*
Y14975D01*
X140446D01*
Y14871D01*
X140377D01*
Y14836D01*
X140307D01*
Y14871D01*
X140273D01*
Y14906D01*
X140203D01*
Y14940D01*
X140169D01*
Y14975D01*
X140134D01*
Y15010D01*
X140099D01*
Y15044D01*
X140065D01*
Y15079D01*
X139995D01*
Y15114D01*
X139961D01*
Y15148D01*
X139891D01*
Y15183D01*
X139822D01*
Y15218D01*
X139752D01*
Y15252D01*
X139648D01*
Y15287D01*
X139579D01*
Y15322D01*
X139510D01*
Y15357D01*
X139406D01*
Y15391D01*
X139301D01*
Y15426D01*
X139197D01*
Y15461D01*
X139024D01*
Y15495D01*
X138885D01*
Y15530D01*
X138642D01*
Y15565D01*
X138400D01*
Y15599D01*
X137463D01*
Y15565D01*
X137220D01*
Y15530D01*
X137012D01*
Y15495D01*
X136838D01*
Y15461D01*
X136700D01*
Y15426D01*
X136526D01*
Y15391D01*
X136388D01*
Y15357D01*
X136284D01*
Y15322D01*
X136075D01*
Y15357D01*
X136006D01*
Y15461D01*
X135971D01*
Y15495D01*
X136006D01*
Y15634D01*
X136041D01*
Y15669D01*
X136075D01*
Y15738D01*
X136110D01*
Y15773D01*
X136145D01*
Y15807D01*
X136179D01*
Y15842D01*
X136214D01*
Y15877D01*
X136284D01*
Y15912D01*
X136318D01*
Y15946D01*
X136388D01*
Y15981D01*
X136422D01*
Y16015D01*
X136492D01*
Y16050D01*
X136596D01*
Y16085D01*
X136700D01*
Y16120D01*
X136769D01*
Y16154D01*
X136908D01*
Y16189D01*
X137012D01*
Y16224D01*
X137081D01*
Y16258D01*
X137151D01*
Y16293D01*
X137116D01*
Y16328D01*
X137081D01*
Y16362D01*
X137012D01*
Y16397D01*
X136977D01*
Y16432D01*
X136908D01*
Y16466D01*
X136873D01*
Y16501D01*
X136804D01*
Y16536D01*
X136769D01*
Y16571D01*
X136700D01*
Y16605D01*
X136665D01*
Y16640D01*
X136630D01*
Y16675D01*
X136561D01*
Y16709D01*
X136526D01*
Y16744D01*
X136492D01*
Y16779D01*
X136457D01*
Y16813D01*
X136422D01*
Y16883D01*
X136388D01*
Y16917D01*
X136353D01*
Y16952D01*
X136318D01*
Y17021D01*
X136284D01*
Y17056D01*
X136249D01*
Y17126D01*
X136214D01*
Y17230D01*
X136179D01*
Y17334D01*
X136145D01*
Y17403D01*
X135971D01*
Y17368D01*
X135867D01*
Y17334D01*
X135763D01*
Y17299D01*
X135624D01*
Y17264D01*
X135486D01*
Y17230D01*
X135312D01*
Y17195D01*
X135173D01*
Y17160D01*
X135035D01*
Y17126D01*
X134861D01*
Y17091D01*
X134653D01*
Y17056D01*
X134549D01*
Y17021D01*
X134480D01*
Y16987D01*
X134445D01*
Y16952D01*
X134410D01*
Y16917D01*
X134376D01*
Y16883D01*
X134341D01*
Y16848D01*
X134306D01*
Y16813D01*
X134272D01*
Y16779D01*
X134237D01*
Y16744D01*
X134202D01*
Y16709D01*
X134168D01*
Y16675D01*
X134133D01*
Y16640D01*
X134098D01*
Y16571D01*
X134063D01*
Y16536D01*
X134029D01*
Y16466D01*
X133994D01*
Y16397D01*
X133959D01*
Y16362D01*
X133925D01*
Y16258D01*
X133890D01*
Y16189D01*
X133855D01*
Y15807D01*
X133890D01*
Y15738D01*
X133925D01*
Y15669D01*
X133959D01*
Y15599D01*
X133994D01*
Y15530D01*
X134029D01*
Y15495D01*
X134063D01*
Y15461D01*
X134098D01*
Y15391D01*
X134133D01*
Y15357D01*
X134168D01*
Y15322D01*
X134202D01*
Y15287D01*
X134237D01*
Y15252D01*
X134272D01*
Y15218D01*
X134341D01*
Y15183D01*
X134376D01*
Y15148D01*
X134410D01*
Y15114D01*
X134480D01*
Y15079D01*
X134514D01*
Y15044D01*
X134584D01*
Y15010D01*
X134618D01*
Y14975D01*
X134688D01*
Y14940D01*
X134792D01*
Y14906D01*
X134861D01*
Y14871D01*
X134965D01*
Y14836D01*
X135104D01*
Y14801D01*
X135312D01*
Y14767D01*
X135937D01*
Y14801D01*
X136179D01*
Y14836D01*
X136457D01*
Y14871D01*
X137012D01*
Y14836D01*
X137220D01*
Y14801D01*
X137359D01*
Y14767D01*
X137428D01*
Y14732D01*
X137498D01*
Y14697D01*
X137567D01*
Y14663D01*
X137636D01*
Y14628D01*
X137671D01*
Y14593D01*
X137706D01*
Y14559D01*
X137740D01*
Y14524D01*
X137775D01*
Y14489D01*
X137810D01*
Y14455D01*
X137845D01*
Y14420D01*
X137879D01*
Y14385D01*
X137914D01*
Y14316D01*
X137949D01*
Y14246D01*
X137983D01*
Y14142D01*
X138018D01*
Y13726D01*
X137983D01*
Y13691D01*
X137949D01*
Y13657D01*
X137879D01*
Y13691D01*
X137845D01*
Y13726D01*
X137810D01*
Y13761D01*
X137775D01*
Y13795D01*
X137740D01*
Y13830D01*
X137671D01*
Y13865D01*
X137636D01*
Y13900D01*
X137602D01*
Y13934D01*
X137532D01*
Y13969D01*
X137498D01*
Y14004D01*
X137428D01*
Y14038D01*
X137324D01*
Y14073D01*
X137255D01*
Y14108D01*
X137151D01*
Y14142D01*
X137012D01*
Y14177D01*
X136630D01*
Y14142D01*
X136665D01*
Y14108D01*
X136700D01*
Y14073D01*
X136734D01*
Y14004D01*
X136769D01*
Y13969D01*
X136804D01*
Y13934D01*
X136838D01*
Y13900D01*
X136873D01*
Y13830D01*
X136908D01*
Y13761D01*
X136943D01*
Y13691D01*
X136977D01*
Y13553D01*
X137012D01*
Y13379D01*
X136977D01*
Y13275D01*
X136908D01*
Y13240D01*
X136873D01*
Y13275D01*
X136804D01*
Y13310D01*
X136734D01*
Y13344D01*
X136700D01*
Y13379D01*
X136630D01*
Y13414D01*
X136596D01*
Y13449D01*
X136526D01*
Y13483D01*
X136457D01*
Y13518D01*
X136388D01*
Y13553D01*
X136318D01*
Y13587D01*
X136249D01*
Y13622D01*
X136145D01*
Y13657D01*
X136075D01*
Y13691D01*
X135971D01*
Y13726D01*
X135902D01*
Y13761D01*
X135763D01*
Y13795D01*
X135624D01*
Y13830D01*
X135486D01*
Y13865D01*
X135347D01*
Y13900D01*
X135173D01*
Y13934D01*
X134896D01*
Y13969D01*
X134272D01*
Y13934D01*
X134133D01*
Y13900D01*
X133994D01*
Y13865D01*
X133855D01*
Y13830D01*
X133682D01*
Y13795D01*
X133543D01*
Y13761D01*
X132745D01*
Y13795D01*
X132537D01*
Y13830D01*
X132433D01*
Y13865D01*
X132294D01*
Y13900D01*
X132225D01*
Y13934D01*
X132121D01*
Y13969D01*
X132051D01*
Y14004D01*
X131982D01*
Y14038D01*
X131878D01*
Y14073D01*
X131670D01*
Y14038D01*
X131531D01*
Y14004D01*
X131462D01*
Y13969D01*
X131392D01*
Y13934D01*
X131323D01*
Y13900D01*
X131288D01*
Y13865D01*
X131219D01*
Y13830D01*
X131149D01*
Y13795D01*
X131080D01*
Y13830D01*
X131011D01*
Y13900D01*
X130976D01*
Y14004D01*
X131011D01*
Y14142D01*
X131045D01*
Y14246D01*
X131080D01*
Y14316D01*
X131115D01*
Y14351D01*
X131149D01*
Y14420D01*
X131184D01*
Y14455D01*
X131219D01*
Y14489D01*
X131254D01*
Y14524D01*
X131288D01*
Y14559D01*
X131323D01*
Y14593D01*
X131392D01*
Y14628D01*
X131427D01*
Y14663D01*
X131496D01*
Y14697D01*
X131600D01*
Y14732D01*
X131704D01*
Y14767D01*
X131878D01*
Y14801D01*
X132225D01*
Y14767D01*
X132364D01*
Y14732D01*
X132502D01*
Y14697D01*
X132606D01*
Y14663D01*
X132711D01*
Y14628D01*
X132815D01*
Y14593D01*
X132919D01*
Y14559D01*
X133092D01*
Y14524D01*
X133231D01*
Y14559D01*
X133404D01*
Y14593D01*
X133474D01*
Y14628D01*
X133543D01*
Y14663D01*
X133578D01*
Y14801D01*
X133543D01*
Y14836D01*
X133508D01*
Y14871D01*
X133439D01*
Y14906D01*
X133404D01*
Y14940D01*
X133370D01*
Y14975D01*
X133335D01*
Y15010D01*
X133300D01*
Y15044D01*
X133266D01*
Y15079D01*
X133231D01*
Y15114D01*
X133161D01*
Y15148D01*
X133127D01*
Y15183D01*
X133092D01*
Y15218D01*
X133057D01*
Y15252D01*
X133023D01*
Y15287D01*
X132988D01*
Y15322D01*
X132953D01*
Y15357D01*
X132919D01*
Y15391D01*
X132884D01*
Y15426D01*
X132849D01*
Y15461D01*
X132815D01*
Y15530D01*
X132780D01*
Y15565D01*
X132711D01*
Y15599D01*
X132537D01*
Y15634D01*
X132433D01*
Y15669D01*
X132329D01*
Y15703D01*
X132260D01*
Y15738D01*
X132190D01*
Y15773D01*
X132121D01*
Y15807D01*
X132051D01*
Y15842D01*
X132017D01*
Y15877D01*
X131947D01*
Y15912D01*
X131913D01*
Y15946D01*
X131878D01*
Y15981D01*
X131809D01*
Y16015D01*
X131774D01*
Y16050D01*
X131739D01*
Y16085D01*
X131704D01*
Y16120D01*
X131670D01*
Y16154D01*
X131635D01*
Y16224D01*
X131600D01*
Y16258D01*
X131566D01*
Y16328D01*
X131531D01*
Y16397D01*
X131496D01*
Y16466D01*
X131462D01*
Y16709D01*
X130976D01*
Y16675D01*
X128062D01*
Y16640D01*
X127854D01*
Y16605D01*
X127611D01*
Y16571D01*
X127403D01*
Y16536D01*
X127160D01*
Y16501D01*
X126918D01*
Y16466D01*
X126640D01*
Y16432D01*
X126328D01*
Y16397D01*
X126016D01*
Y16362D01*
X125530D01*
Y16328D01*
X124663D01*
Y16293D01*
X124212D01*
Y16328D01*
X123449D01*
Y16362D01*
X123240D01*
Y16397D01*
X123136D01*
Y16432D01*
X123102D01*
Y16501D01*
X123067D01*
Y16571D01*
X123102D01*
Y16640D01*
X123136D01*
Y16675D01*
X123171D01*
Y16709D01*
X123206D01*
Y16744D01*
X123240D01*
Y16779D01*
X123310D01*
Y16813D01*
X123379D01*
Y16848D01*
X123449D01*
Y16883D01*
X123518D01*
Y16917D01*
X123553D01*
Y16952D01*
X123622D01*
Y16987D01*
X123691D01*
Y17021D01*
X123761D01*
Y17056D01*
X123830D01*
Y17091D01*
X123899D01*
Y17126D01*
X123969D01*
Y17160D01*
X124038D01*
Y17195D01*
X124108D01*
Y17230D01*
X124177D01*
Y17264D01*
X124246D01*
Y17299D01*
X124316D01*
Y17334D01*
X124351D01*
Y17368D01*
X124420D01*
Y17403D01*
X124489D01*
Y17438D01*
X124559D01*
Y17472D01*
X124628D01*
Y17507D01*
X124697D01*
Y17542D01*
X124767D01*
Y17577D01*
X124836D01*
Y17611D01*
X124906D01*
Y17646D01*
X124975D01*
Y17681D01*
X125044D01*
Y17715D01*
X125079D01*
Y17750D01*
X125148D01*
Y17785D01*
X125218D01*
Y17819D01*
X125287D01*
Y17854D01*
X125322D01*
Y17889D01*
X125252D01*
Y17923D01*
X124732D01*
Y17958D01*
X124212D01*
Y17993D01*
X123691D01*
Y18027D01*
X123310D01*
Y18062D01*
X122928D01*
Y18097D01*
X122581D01*
Y18132D01*
X122269D01*
Y18166D01*
X121957D01*
Y18201D01*
X121679D01*
Y18236D01*
X121437D01*
Y18270D01*
X121194D01*
Y18305D01*
X120986D01*
Y18340D01*
X120777D01*
Y18374D01*
X120604D01*
Y18409D01*
X120431D01*
Y18444D01*
X120257D01*
Y18478D01*
X120084D01*
Y18513D01*
X119945D01*
Y18548D01*
X119772D01*
Y18583D01*
X119633D01*
Y18617D01*
X119529D01*
Y18652D01*
X119425D01*
Y18687D01*
X119286D01*
Y18721D01*
X119182D01*
Y18756D01*
X119112D01*
Y18791D01*
X119043D01*
Y18825D01*
X118974D01*
Y18860D01*
X118904D01*
Y18929D01*
X118870D01*
Y18964D01*
X118835D01*
Y19068D01*
X118870D01*
Y19138D01*
X118904D01*
Y19207D01*
X118939D01*
Y19242D01*
X119008D01*
Y19276D01*
X119043D01*
Y19311D01*
X119112D01*
Y19346D01*
X119147D01*
Y19380D01*
X119251D01*
Y19415D01*
X119321D01*
Y19450D01*
X119390D01*
Y19485D01*
X119459D01*
Y19519D01*
X119529D01*
Y19554D01*
X119598D01*
Y19589D01*
X119667D01*
Y19623D01*
X119772D01*
Y19658D01*
X119841D01*
Y19693D01*
X119910D01*
Y19727D01*
X120014D01*
Y19762D01*
X120084D01*
Y19797D01*
X120153D01*
Y19831D01*
X120222D01*
Y19866D01*
X120327D01*
Y19901D01*
X120396D01*
Y19935D01*
X120500D01*
Y19970D01*
X120569D01*
Y20005D01*
X120639D01*
Y20040D01*
X120743D01*
Y20074D01*
X120812D01*
Y20109D01*
X120916D01*
Y20143D01*
X120986D01*
Y20178D01*
X121055D01*
Y20213D01*
X121159D01*
Y20248D01*
X121229D01*
Y20282D01*
X121333D01*
Y20317D01*
X121402D01*
Y20352D01*
X121506D01*
Y20386D01*
X121575D01*
Y20421D01*
X121645D01*
Y20456D01*
X121714D01*
Y20490D01*
X121818D01*
Y20525D01*
X121922D01*
Y20560D01*
X121992D01*
Y20595D01*
X122061D01*
Y20629D01*
X122165D01*
Y20664D01*
X122234D01*
Y20699D01*
X122338D01*
Y20733D01*
X122408D01*
Y20768D01*
X122477D01*
Y20803D01*
X122581D01*
Y20837D01*
X122685D01*
Y20872D01*
X122755D01*
Y20907D01*
X122824D01*
Y20941D01*
X122928D01*
Y20976D01*
X122998D01*
Y21011D01*
X123067D01*
Y21045D01*
X123171D01*
Y21080D01*
X123275D01*
Y21115D01*
X123345D01*
Y21149D01*
X123414D01*
Y21184D01*
X123518D01*
Y21219D01*
X123587D01*
Y21254D01*
X123657D01*
Y21288D01*
X123761D01*
Y21323D01*
X123830D01*
Y21358D01*
X123934D01*
Y21392D01*
X124004D01*
Y21427D01*
X124108D01*
Y21462D01*
X124177D01*
Y21496D01*
X124246D01*
Y21531D01*
X124351D01*
Y21566D01*
X124420D01*
Y21600D01*
X124524D01*
Y21635D01*
X124593D01*
Y21670D01*
X124663D01*
Y21705D01*
X124767D01*
Y21739D01*
X124836D01*
Y21774D01*
X124906D01*
Y21809D01*
X125010D01*
Y21843D01*
X125079D01*
Y21878D01*
X125148D01*
Y21913D01*
X125252D01*
Y21947D01*
X125322D01*
Y21982D01*
X125391D01*
Y22017D01*
X125495D01*
Y22051D01*
X125565D01*
Y22086D01*
X125669D01*
Y22121D01*
X125738D01*
Y22155D01*
X125807D01*
Y22017D01*
X125773D01*
Y21809D01*
X125738D01*
Y21566D01*
X125773D01*
Y21427D01*
X125738D01*
Y21392D01*
X125703D01*
Y21358D01*
X125669D01*
Y21323D01*
X125634D01*
Y21288D01*
X125599D01*
Y21254D01*
X125530D01*
Y21219D01*
X125495D01*
Y21184D01*
X125461D01*
Y21149D01*
X125426D01*
Y21115D01*
X125356D01*
Y21080D01*
X125322D01*
Y21045D01*
X125287D01*
Y21011D01*
X125252D01*
Y20976D01*
X125218D01*
Y20941D01*
X125183D01*
Y20907D01*
X125148D01*
Y20872D01*
X125114D01*
Y20837D01*
X125079D01*
Y20803D01*
X125044D01*
Y20768D01*
X125010D01*
Y20733D01*
X124975D01*
Y20699D01*
X124940D01*
Y20664D01*
X124906D01*
Y20629D01*
X124871D01*
Y20595D01*
X124836D01*
Y20560D01*
X124801D01*
Y20490D01*
X124767D01*
Y20456D01*
X124732D01*
Y20386D01*
X124697D01*
Y20317D01*
X124663D01*
Y20248D01*
X124628D01*
Y20143D01*
X124593D01*
Y20040D01*
X124559D01*
Y19693D01*
X124593D01*
Y19589D01*
X124628D01*
Y19519D01*
X124663D01*
Y19450D01*
X124697D01*
Y19415D01*
X124732D01*
Y19346D01*
X124767D01*
Y19311D01*
X124801D01*
Y19276D01*
X124836D01*
Y19242D01*
X124871D01*
Y19207D01*
X124906D01*
Y19172D01*
X124940D01*
Y19138D01*
X124975D01*
Y19103D01*
X125044D01*
Y19068D01*
X125079D01*
Y19034D01*
X125148D01*
Y18999D01*
X125183D01*
Y18964D01*
X125252D01*
Y18929D01*
X125322D01*
Y18895D01*
X125391D01*
Y18860D01*
X125461D01*
Y18825D01*
X125530D01*
Y18791D01*
X125599D01*
Y18756D01*
X125703D01*
Y18721D01*
X125773D01*
Y18687D01*
X125877D01*
Y18652D01*
X125981D01*
Y18617D01*
X126085D01*
Y18583D01*
X126224D01*
Y18548D01*
X126362D01*
Y18513D01*
X126501D01*
Y18478D01*
X126640D01*
Y18444D01*
X126779D01*
Y18409D01*
X126952D01*
Y18374D01*
X127126D01*
Y18340D01*
X127334D01*
Y18305D01*
X127542D01*
Y18270D01*
X127785D01*
Y18236D01*
X128062D01*
Y18201D01*
X128409D01*
Y18166D01*
X128791D01*
Y18132D01*
X129450D01*
Y18097D01*
X131011D01*
Y18132D01*
X131600D01*
Y18166D01*
X131982D01*
Y18201D01*
X132294D01*
Y18236D01*
X132572D01*
Y18270D01*
X132815D01*
Y18305D01*
X133023D01*
Y18340D01*
X133196D01*
Y18374D01*
X133370D01*
Y18409D01*
X133543D01*
Y18444D01*
X133716D01*
Y18478D01*
X133890D01*
Y18513D01*
X134029D01*
Y18548D01*
X134168D01*
Y18583D01*
X134306D01*
Y18617D01*
X134445D01*
Y18652D01*
X134549D01*
Y18687D01*
X134688D01*
Y18721D01*
X134792D01*
Y18756D01*
X134896D01*
Y18791D01*
X135000D01*
Y18825D01*
X135104D01*
Y18860D01*
X135208D01*
Y18895D01*
X135312D01*
Y18929D01*
X135382D01*
Y18964D01*
X135486D01*
Y18999D01*
X135590D01*
Y19034D01*
X135659D01*
Y19068D01*
X135763D01*
Y19103D01*
X135833D01*
Y19138D01*
X135937D01*
Y19172D01*
X136006D01*
Y19207D01*
X136075D01*
Y19242D01*
X136145D01*
Y19276D01*
X136214D01*
Y19311D01*
X136318D01*
Y19346D01*
X136353D01*
Y19380D01*
X136457D01*
Y19415D01*
X136492D01*
Y19450D01*
X136596D01*
Y19485D01*
X136630D01*
Y19519D01*
X136700D01*
Y19554D01*
X136769D01*
Y19589D01*
X136838D01*
Y19623D01*
X136908D01*
Y19658D01*
X136943D01*
Y19693D01*
X137012D01*
Y19727D01*
X137081D01*
Y19762D01*
X137151D01*
Y19797D01*
X137185D01*
Y19831D01*
X137255D01*
Y19866D01*
X137290D01*
Y19901D01*
X137359D01*
Y19935D01*
X137393D01*
Y19970D01*
X137463D01*
Y20005D01*
X137498D01*
Y20040D01*
X137567D01*
Y20074D01*
X137602D01*
Y20109D01*
X137671D01*
Y20143D01*
X137706D01*
Y20178D01*
X137740D01*
Y20213D01*
X137810D01*
Y20248D01*
X137845D01*
Y20282D01*
X137879D01*
Y20317D01*
X137949D01*
Y20352D01*
X137983D01*
Y20386D01*
X138018D01*
Y20421D01*
X138053D01*
Y20456D01*
X138087D01*
Y20490D01*
X138157D01*
Y20525D01*
X138191D01*
Y20560D01*
X138226D01*
Y20595D01*
X138261D01*
Y20629D01*
X138295D01*
Y20664D01*
X138330D01*
Y20699D01*
X138365D01*
Y20733D01*
X138400D01*
Y20768D01*
X138469D01*
Y20803D01*
X138504D01*
Y20837D01*
X138538D01*
Y20872D01*
X138573D01*
Y20907D01*
X138608D01*
Y20941D01*
X138642D01*
Y20976D01*
X138677D01*
Y21011D01*
X138712D01*
Y21045D01*
X138746D01*
Y21080D01*
X138781D01*
Y21115D01*
X138816D01*
Y21149D01*
X138850D01*
Y21184D01*
X138885D01*
Y21254D01*
X138920D01*
Y21288D01*
X138954D01*
Y21323D01*
X138989D01*
Y21358D01*
X139024D01*
Y21392D01*
X139059D01*
Y21427D01*
X139093D01*
Y21462D01*
X139128D01*
Y21496D01*
X139163D01*
Y21566D01*
X139197D01*
Y21600D01*
X139232D01*
Y21635D01*
X139267D01*
Y21705D01*
X139301D01*
Y21739D01*
X139336D01*
Y21774D01*
X139371D01*
Y21843D01*
X139406D01*
Y21878D01*
X139440D01*
Y21913D01*
X139475D01*
Y21982D01*
X139510D01*
Y22017D01*
X139544D01*
Y22086D01*
X139579D01*
Y22121D01*
X139614D01*
Y22190D01*
X139648D01*
Y22225D01*
X139683D01*
Y22294D01*
X139718D01*
Y22329D01*
X139752D01*
Y22398D01*
X139787D01*
Y22468D01*
X139822D01*
Y22502D01*
X139857D01*
Y22572D01*
X139891D01*
Y22641D01*
X139926D01*
Y22711D01*
X139961D01*
Y22780D01*
X139995D01*
Y22849D01*
X140030D01*
Y22919D01*
X140065D01*
Y22988D01*
X140099D01*
Y23057D01*
X140134D01*
Y23127D01*
X140169D01*
Y23196D01*
X140203D01*
Y23300D01*
X140238D01*
Y23370D01*
X140273D01*
Y23474D01*
X140307D01*
Y23543D01*
X140342D01*
Y23647D01*
X140377D01*
Y23751D01*
X140411D01*
Y23890D01*
X140446D01*
Y23994D01*
X140481D01*
Y24168D01*
X140516D01*
Y24306D01*
X140550D01*
Y24514D01*
X140585D01*
Y24827D01*
X140620D01*
Y25451D01*
X140585D01*
Y25694D01*
X140550D01*
Y25902D01*
X140516D01*
Y26075D01*
X140481D01*
Y26179D01*
X140446D01*
Y26283D01*
X140411D01*
Y26388D01*
X140377D01*
Y26457D01*
X140342D01*
Y26526D01*
X140307D01*
Y26596D01*
X140273D01*
Y26700D01*
X140238D01*
Y26769D01*
X140203D01*
Y26804D01*
X140169D01*
Y26873D01*
X140134D01*
Y26943D01*
X140099D01*
Y26977D01*
X140065D01*
Y27047D01*
X140030D01*
Y27081D01*
X139995D01*
Y27116D01*
X139961D01*
Y27185D01*
X139926D01*
Y27220D01*
X139891D01*
Y27255D01*
X139857D01*
Y27290D01*
X139822D01*
Y27324D01*
X139787D01*
Y27359D01*
X139752D01*
Y27393D01*
X139718D01*
Y27428D01*
X139683D01*
Y27463D01*
X139648D01*
Y27498D01*
X139614D01*
Y27532D01*
X139579D01*
Y27567D01*
X139544D01*
Y27602D01*
X139510D01*
Y27636D01*
X139475D01*
Y27671D01*
X139440D01*
Y27706D01*
X139406D01*
Y27740D01*
X139336D01*
Y27775D01*
X139301D01*
Y27810D01*
X139232D01*
Y27845D01*
X139197D01*
Y27879D01*
X139163D01*
Y27914D01*
X139093D01*
Y27949D01*
X139024D01*
Y27983D01*
X138989D01*
Y28018D01*
X138920D01*
Y28053D01*
X138850D01*
Y28087D01*
X138781D01*
Y28122D01*
X138712D01*
Y28157D01*
X138642D01*
Y28191D01*
X138573D01*
Y28226D01*
X138469D01*
Y28261D01*
X138365D01*
Y28295D01*
X138261D01*
Y28330D01*
X138157D01*
Y28365D01*
X138018D01*
Y28400D01*
X137845D01*
Y28434D01*
X137359D01*
Y28400D01*
X137255D01*
Y28365D01*
X137220D01*
Y28330D01*
X137185D01*
Y28191D01*
X137220D01*
Y28157D01*
X137255D01*
Y28122D01*
X137324D01*
Y28087D01*
X137428D01*
Y28053D01*
X137532D01*
Y28018D01*
X137636D01*
Y27983D01*
X137706D01*
Y27949D01*
X137775D01*
Y27914D01*
X137845D01*
Y27879D01*
X137914D01*
Y27845D01*
X137983D01*
Y27810D01*
X138053D01*
Y27775D01*
X138122D01*
Y27740D01*
X138191D01*
Y27706D01*
X138261D01*
Y27671D01*
X138295D01*
Y27636D01*
X138365D01*
Y27602D01*
X138400D01*
Y27567D01*
X138469D01*
Y27532D01*
X138504D01*
Y27498D01*
X138538D01*
Y27463D01*
X138608D01*
Y27428D01*
X138642D01*
Y27393D01*
X138677D01*
Y27359D01*
X138712D01*
Y27324D01*
X138746D01*
Y27290D01*
X138781D01*
Y27255D01*
X138850D01*
Y27220D01*
X138885D01*
Y27151D01*
X138920D01*
Y27116D01*
X138954D01*
Y27081D01*
X138989D01*
Y27047D01*
X139024D01*
Y27012D01*
X139059D01*
Y26977D01*
X139093D01*
Y26908D01*
X139128D01*
Y26873D01*
X139163D01*
Y26838D01*
X139197D01*
Y26769D01*
X139232D01*
Y26700D01*
X139267D01*
Y26665D01*
X139301D01*
Y26596D01*
X139336D01*
Y26561D01*
X139371D01*
Y26492D01*
X139406D01*
Y26388D01*
X139440D01*
Y26318D01*
X139475D01*
Y26214D01*
X139510D01*
Y26145D01*
X139544D01*
Y26041D01*
X139579D01*
Y25867D01*
X139614D01*
Y25694D01*
X139648D01*
Y24827D01*
X139614D01*
Y24584D01*
X139579D01*
Y24445D01*
X139544D01*
Y24306D01*
X139510D01*
Y24202D01*
X139475D01*
Y24098D01*
X139440D01*
Y23994D01*
X139406D01*
Y23890D01*
X139371D01*
Y23786D01*
X139336D01*
Y23717D01*
X139301D01*
Y23647D01*
X139267D01*
Y23578D01*
X139232D01*
Y23508D01*
X139197D01*
Y23404D01*
X139163D01*
Y23335D01*
X139128D01*
Y23266D01*
X139093D01*
Y23231D01*
X139059D01*
Y23162D01*
X139024D01*
Y23092D01*
X138989D01*
Y23023D01*
X138954D01*
Y22988D01*
X138920D01*
Y22919D01*
X138885D01*
Y22849D01*
X138850D01*
Y22815D01*
X138816D01*
Y22745D01*
X138781D01*
Y22711D01*
X138746D01*
Y22641D01*
X138712D01*
Y22606D01*
X138677D01*
Y22572D01*
X138642D01*
Y22502D01*
X138608D01*
Y22468D01*
X138573D01*
Y22433D01*
X138538D01*
Y22364D01*
X138504D01*
Y22329D01*
X138469D01*
Y22294D01*
X138434D01*
Y22260D01*
X138400D01*
Y22190D01*
X138365D01*
Y22155D01*
X138330D01*
Y22121D01*
X138295D01*
Y22086D01*
X138261D01*
Y22051D01*
X138226D01*
Y21982D01*
X138191D01*
Y21947D01*
X138157D01*
Y21913D01*
X138122D01*
Y21878D01*
X138087D01*
Y21843D01*
X138053D01*
Y21809D01*
X138018D01*
Y21774D01*
X137983D01*
Y21739D01*
X137949D01*
Y21705D01*
X137914D01*
Y21670D01*
X137879D01*
Y21635D01*
X137845D01*
Y21600D01*
X137810D01*
Y21566D01*
X137775D01*
Y21531D01*
X137740D01*
Y21496D01*
X137706D01*
Y21462D01*
X137636D01*
Y21427D01*
X137602D01*
Y21392D01*
X137567D01*
Y21358D01*
X137532D01*
Y21323D01*
X137498D01*
Y21288D01*
X137463D01*
Y21254D01*
X137393D01*
Y21219D01*
X137359D01*
Y21184D01*
X137324D01*
Y21149D01*
X137290D01*
Y21115D01*
X137220D01*
Y21080D01*
X137185D01*
Y21045D01*
X137151D01*
Y21011D01*
X137081D01*
Y20976D01*
X137047D01*
Y20941D01*
X136977D01*
Y20907D01*
X136943D01*
Y20872D01*
X136908D01*
Y20837D01*
X136838D01*
Y20803D01*
X136804D01*
Y20768D01*
X136734D01*
Y20733D01*
X136700D01*
Y20699D01*
X136630D01*
Y20664D01*
X136596D01*
Y20629D01*
X136526D01*
Y20595D01*
X136457D01*
Y20560D01*
X136388D01*
Y20525D01*
X136353D01*
Y20490D01*
X136284D01*
Y20456D01*
X136214D01*
Y20421D01*
X136179D01*
Y20386D01*
X136110D01*
Y20352D01*
X136041D01*
Y20317D01*
X135971D01*
Y20282D01*
X135902D01*
Y20248D01*
X135833D01*
Y20213D01*
X135763D01*
Y20178D01*
X135694D01*
Y20143D01*
X135624D01*
Y20109D01*
X135555D01*
Y20074D01*
X135486D01*
Y20040D01*
X135382D01*
Y20005D01*
X135312D01*
Y19970D01*
X135208D01*
Y19935D01*
X135139D01*
Y19901D01*
X135035D01*
Y19866D01*
X134965D01*
Y19831D01*
X134861D01*
Y19797D01*
X134757D01*
Y19762D01*
X134653D01*
Y19727D01*
X134549D01*
Y19693D01*
X134445D01*
Y19658D01*
X134341D01*
Y19623D01*
X134202D01*
Y19589D01*
X134098D01*
Y19554D01*
X133959D01*
Y19519D01*
X133855D01*
Y19485D01*
X133682D01*
Y19450D01*
X133543D01*
Y19415D01*
X133404D01*
Y19380D01*
X133231D01*
Y19346D01*
X133057D01*
Y19311D01*
X132849D01*
Y19276D01*
X132641D01*
Y19242D01*
X132433D01*
Y19207D01*
X132190D01*
Y19172D01*
X131878D01*
Y19138D01*
X131531D01*
Y19103D01*
X131011D01*
Y19068D01*
X129034D01*
Y19103D01*
X128548D01*
Y19138D01*
X128132D01*
Y19172D01*
X127819D01*
Y19207D01*
X127611D01*
Y19242D01*
X127368D01*
Y19276D01*
X127160D01*
Y19311D01*
X126987D01*
Y19346D01*
X126848D01*
Y19380D01*
X126675D01*
Y19415D01*
X126536D01*
Y19450D01*
X126397D01*
Y19485D01*
X126293D01*
Y19519D01*
X126189D01*
Y19554D01*
X126120D01*
Y19589D01*
X126016D01*
Y19623D01*
X125946D01*
Y19658D01*
X125877D01*
Y19693D01*
X125807D01*
Y19727D01*
X125773D01*
Y19762D01*
X125738D01*
Y19831D01*
X125703D01*
Y19901D01*
X125669D01*
Y20005D01*
X125703D01*
Y20109D01*
X125738D01*
Y20143D01*
X125773D01*
Y20213D01*
X125807D01*
Y20248D01*
X125842D01*
Y20282D01*
X125877D01*
Y20317D01*
X125911D01*
Y20352D01*
X125946D01*
Y20386D01*
X125981D01*
Y20421D01*
X126050D01*
Y20456D01*
X126085D01*
Y20490D01*
X126120D01*
Y20525D01*
X126154D01*
Y20560D01*
X126224D01*
Y20595D01*
X126258D01*
Y20629D01*
X126328D01*
Y20664D01*
X126362D01*
Y20699D01*
X126397D01*
Y20733D01*
X126467D01*
Y20768D01*
X126501D01*
Y20803D01*
X126571D01*
Y20837D01*
X126640D01*
Y20872D01*
X126675D01*
Y20907D01*
X126744D01*
Y20941D01*
X126813D01*
Y20976D01*
X126848D01*
Y21011D01*
X126918D01*
Y21045D01*
X126987D01*
Y21080D01*
X127056D01*
Y21115D01*
X127126D01*
Y21149D01*
X127160D01*
Y21184D01*
X127230D01*
Y21219D01*
X127299D01*
Y21254D01*
X127368D01*
Y21288D01*
X127403D01*
Y21323D01*
X127472D01*
Y21392D01*
X127368D01*
Y21427D01*
X127264D01*
Y21462D01*
X127160D01*
Y21496D01*
X127091D01*
Y21531D01*
X127022D01*
Y21566D01*
X126952D01*
Y21600D01*
X126918D01*
Y21635D01*
X126848D01*
Y21670D01*
X126813D01*
Y21739D01*
X126779D01*
Y21774D01*
X126744D01*
Y21913D01*
X126709D01*
Y22086D01*
X126744D01*
Y22190D01*
X126779D01*
Y22294D01*
X126813D01*
Y22398D01*
X126848D01*
Y22468D01*
X126883D01*
Y22537D01*
X126918D01*
Y22606D01*
X126952D01*
Y22676D01*
X126987D01*
Y22745D01*
X127022D01*
Y22780D01*
X127056D01*
Y22849D01*
X127091D01*
Y22919D01*
X127126D01*
Y22953D01*
X127160D01*
Y23023D01*
X127195D01*
Y23057D01*
X127230D01*
Y23127D01*
X127264D01*
Y23196D01*
X127299D01*
Y23231D01*
X127334D01*
Y23266D01*
X127368D01*
Y23335D01*
X127403D01*
Y23370D01*
X127438D01*
Y23404D01*
X127472D01*
Y23474D01*
X127507D01*
Y23508D01*
X127542D01*
Y23578D01*
X127577D01*
Y23612D01*
X127611D01*
Y23647D01*
X127646D01*
Y23682D01*
X127681D01*
Y23751D01*
X127715D01*
Y23786D01*
X127750D01*
Y23821D01*
X127785D01*
Y23890D01*
X127819D01*
Y23925D01*
X127854D01*
Y23959D01*
X127889D01*
Y23994D01*
X127923D01*
Y24063D01*
X127958D01*
Y24098D01*
X127993D01*
Y24133D01*
X128027D01*
Y24168D01*
X128062D01*
Y24202D01*
X128097D01*
Y24237D01*
X128132D01*
Y24272D01*
X128166D01*
Y24341D01*
X128201D01*
Y24376D01*
X128236D01*
Y24410D01*
X128270D01*
Y24445D01*
X128305D01*
Y24480D01*
X128340D01*
Y24514D01*
X128374D01*
Y24549D01*
X128409D01*
Y24618D01*
X128444D01*
Y24653D01*
X128479D01*
Y24688D01*
X128513D01*
Y24723D01*
X128548D01*
Y24757D01*
X128583D01*
Y24792D01*
X128617D01*
Y24827D01*
X128652D01*
Y24861D01*
X128687D01*
Y24896D01*
X128721D01*
Y24931D01*
X128756D01*
Y24965D01*
X128791D01*
Y25000D01*
X128825D01*
Y25035D01*
X128860D01*
Y25069D01*
X128895D01*
Y25104D01*
X128929D01*
Y25139D01*
X128964D01*
Y25173D01*
X128999D01*
Y25208D01*
X129034D01*
Y25243D01*
X129068D01*
Y25278D01*
X129103D01*
Y25312D01*
X129138D01*
Y25347D01*
X129172D01*
Y25382D01*
X129207D01*
Y25416D01*
X129242D01*
Y25451D01*
X129276D01*
Y25486D01*
X129311D01*
Y25520D01*
X129346D01*
Y25555D01*
X129380D01*
Y25590D01*
X129415D01*
Y25624D01*
X129450D01*
Y25659D01*
X129484D01*
Y25694D01*
X129519D01*
Y25728D01*
X129554D01*
Y25763D01*
X129588D01*
Y25798D01*
X129658D01*
Y25833D01*
X129693D01*
Y25867D01*
X129727D01*
Y25902D01*
X129762D01*
Y25937D01*
X129797D01*
Y25971D01*
X129831D01*
Y26006D01*
X129866D01*
Y26041D01*
X129901D01*
Y26075D01*
X129935D01*
Y26110D01*
X130005D01*
Y26145D01*
X130040D01*
Y26179D01*
X130074D01*
Y26214D01*
X130109D01*
Y26249D01*
X130143D01*
Y26283D01*
X130178D01*
Y26318D01*
X130248D01*
Y26353D01*
X130282D01*
Y26388D01*
X130317D01*
Y26422D01*
X130352D01*
Y26457D01*
X130386D01*
Y26492D01*
X130421D01*
Y26526D01*
X130490D01*
Y26561D01*
X130525D01*
Y26596D01*
X130560D01*
Y26630D01*
X130595D01*
Y26665D01*
X130664D01*
Y26700D01*
X130699D01*
Y26734D01*
X130733D01*
Y26769D01*
X130803D01*
Y26804D01*
X130837D01*
Y26838D01*
X130872D01*
Y26873D01*
X130907D01*
Y26908D01*
X130976D01*
Y26943D01*
X131011D01*
Y26977D01*
X131080D01*
Y27012D01*
X131115D01*
Y27047D01*
X131149D01*
Y27081D01*
X131219D01*
Y27116D01*
X131254D01*
Y27151D01*
X131288D01*
Y27185D01*
X131358D01*
Y27220D01*
X131392D01*
Y27255D01*
X131462D01*
Y27290D01*
X131496D01*
Y27324D01*
X131566D01*
Y27359D01*
X131600D01*
Y27393D01*
X131670D01*
Y27428D01*
X131704D01*
Y27463D01*
X131774D01*
Y27498D01*
X131809D01*
Y27532D01*
X131878D01*
Y27567D01*
X131947D01*
Y27602D01*
X131982D01*
Y27636D01*
X132051D01*
Y27671D01*
X132086D01*
Y27706D01*
X132156D01*
Y27740D01*
X132225D01*
Y27775D01*
X132260D01*
Y27810D01*
X132329D01*
Y27845D01*
X132398D01*
Y27879D01*
X132468D01*
Y27914D01*
X132502D01*
Y27949D01*
X132572D01*
Y27983D01*
X132641D01*
Y28018D01*
X132711D01*
Y28053D01*
X132780D01*
Y28087D01*
X132849D01*
Y28122D01*
X132919D01*
Y28157D01*
X132988D01*
Y28191D01*
X133023D01*
Y28226D01*
X133092D01*
Y28261D01*
X133161D01*
Y28295D01*
X133231D01*
Y28330D01*
X133335D01*
Y28365D01*
X133404D01*
Y28400D01*
X133474D01*
Y28434D01*
X133543D01*
Y28469D01*
X133647D01*
Y28504D01*
X133716D01*
Y28538D01*
X133786D01*
Y28573D01*
X133890D01*
Y28608D01*
X133959D01*
Y28642D01*
X134063D01*
Y28677D01*
X134133D01*
Y28712D01*
X134202D01*
Y28746D01*
X134306D01*
Y28781D01*
X134410D01*
Y28816D01*
X134480D01*
Y28850D01*
X134584D01*
Y28885D01*
X134688D01*
Y28920D01*
X134792D01*
Y28955D01*
X134896D01*
Y28989D01*
X135000D01*
Y29024D01*
X135104D01*
Y29059D01*
X135208D01*
Y29093D01*
X135312D01*
Y29128D01*
X135416D01*
Y29163D01*
X135520D01*
Y29197D01*
X135624D01*
Y29232D01*
X135763D01*
Y29267D01*
X135867D01*
Y29301D01*
X135937D01*
Y29336D01*
X136041D01*
Y29371D01*
X136145D01*
Y29406D01*
X136214D01*
Y29440D01*
X136318D01*
Y29475D01*
X136388D01*
Y29510D01*
X136457D01*
Y29544D01*
X136526D01*
Y29579D01*
X136596D01*
Y29614D01*
X136630D01*
Y29648D01*
X136700D01*
Y29683D01*
X136769D01*
Y29718D01*
X136838D01*
Y29752D01*
X136908D01*
Y29787D01*
X136943D01*
Y29822D01*
X137012D01*
Y29857D01*
X137047D01*
Y29891D01*
X137081D01*
Y29926D01*
X137151D01*
Y29961D01*
X137185D01*
Y29995D01*
X137220D01*
Y30030D01*
X137290D01*
Y30065D01*
X137324D01*
Y30099D01*
X137359D01*
Y30134D01*
X137393D01*
Y30169D01*
X137428D01*
Y30203D01*
X137463D01*
Y30238D01*
X137498D01*
Y30273D01*
X137532D01*
Y30307D01*
X137567D01*
Y30342D01*
X137602D01*
Y30377D01*
X137636D01*
Y30411D01*
X137671D01*
Y30446D01*
X137706D01*
Y30481D01*
X137740D01*
Y30516D01*
X137775D01*
Y30550D01*
X137810D01*
Y30585D01*
X137845D01*
Y30620D01*
X137879D01*
Y30654D01*
X137914D01*
Y30724D01*
X137949D01*
Y30758D01*
X137983D01*
Y30793D01*
X138018D01*
Y30828D01*
X138053D01*
Y30897D01*
X138087D01*
Y30932D01*
X138122D01*
Y30966D01*
X138157D01*
Y31036D01*
X138191D01*
Y31071D01*
X138226D01*
Y31105D01*
X138261D01*
Y31175D01*
X138295D01*
Y31209D01*
X138330D01*
Y31279D01*
X138365D01*
Y31313D01*
X138400D01*
Y31383D01*
X138434D01*
Y31418D01*
X138469D01*
Y31452D01*
X138504D01*
Y31521D01*
X138538D01*
Y31556D01*
X138573D01*
Y31626D01*
X138608D01*
Y31660D01*
X138642D01*
Y31730D01*
X138677D01*
Y31764D01*
X138712D01*
Y31834D01*
X138746D01*
Y31868D01*
X138781D01*
Y31938D01*
X138816D01*
Y31973D01*
X138850D01*
Y32007D01*
X138885D01*
Y32077D01*
X138920D01*
Y32111D01*
X138954D01*
Y32181D01*
X138989D01*
Y32215D01*
X139024D01*
Y32250D01*
X139059D01*
Y32319D01*
X139093D01*
Y32354D01*
X139128D01*
Y32389D01*
X139163D01*
Y32458D01*
X139197D01*
Y32493D01*
X139232D01*
Y32528D01*
X139267D01*
Y32597D01*
X139301D01*
Y32632D01*
X139336D01*
Y32666D01*
X139371D01*
Y32701D01*
X139406D01*
Y32736D01*
X139440D01*
Y32805D01*
X139475D01*
Y32840D01*
X139510D01*
Y32874D01*
X139544D01*
Y32909D01*
X139579D01*
Y32944D01*
X139614D01*
Y32978D01*
X139648D01*
Y33013D01*
X139683D01*
Y33048D01*
X139718D01*
Y33083D01*
X139752D01*
Y33117D01*
X139787D01*
Y33152D01*
X139822D01*
Y33187D01*
X139857D01*
Y33221D01*
X139891D01*
Y33256D01*
X139926D01*
Y33291D01*
X139961D01*
Y33325D01*
X139995D01*
Y33360D01*
X140065D01*
Y33395D01*
X140099D01*
Y33429D01*
X140134D01*
Y33464D01*
X140169D01*
Y33499D01*
X140203D01*
Y33533D01*
X140273D01*
Y33568D01*
X140307D01*
Y33603D01*
X140342D01*
Y33638D01*
X140411D01*
Y33672D01*
X140446D01*
Y33707D01*
X140516D01*
Y33742D01*
X140585D01*
Y33776D01*
X140620D01*
Y33811D01*
X140689D01*
Y33846D01*
X140724D01*
Y33880D01*
X140793D01*
Y33915D01*
X140862D01*
Y33950D01*
X140932D01*
Y33984D01*
X141001D01*
Y34019D01*
X141071D01*
Y34054D01*
X141140D01*
Y34089D01*
X141209D01*
Y34123D01*
X141313D01*
Y34158D01*
X141383D01*
Y34193D01*
X141452D01*
Y34227D01*
X141522D01*
Y34262D01*
X141452D01*
Y34297D01*
X141383D01*
Y34331D01*
X141313D01*
Y34366D01*
X141244D01*
Y34401D01*
X141175D01*
Y34435D01*
X141071D01*
Y34470D01*
X141001D01*
Y34505D01*
X140932D01*
Y34539D01*
X140862D01*
Y34574D01*
X140828D01*
Y34609D01*
X140758D01*
Y34644D01*
X140689D01*
Y34678D01*
X140654D01*
Y34713D01*
X140585D01*
Y34748D01*
X140550D01*
Y34782D01*
X140516D01*
Y34817D01*
X140446D01*
Y34852D01*
X140411D01*
Y34886D01*
X140377D01*
Y34921D01*
X140307D01*
Y34956D01*
X140273D01*
Y34990D01*
X140238D01*
Y35025D01*
X140203D01*
Y35060D01*
X140169D01*
Y35094D01*
X140134D01*
Y35129D01*
X140099D01*
Y35164D01*
X140065D01*
Y35199D01*
X140030D01*
Y35233D01*
X139995D01*
Y35268D01*
X139961D01*
Y35303D01*
X139926D01*
Y35372D01*
X139891D01*
Y35407D01*
X139857D01*
Y35476D01*
X139822D01*
Y35545D01*
X139787D01*
Y35615D01*
X139822D01*
Y35684D01*
X139995D01*
Y35649D01*
X140065D01*
Y35615D01*
X140169D01*
Y35580D01*
X140273D01*
Y35545D01*
X140377D01*
Y35511D01*
X140516D01*
Y35476D01*
X140620D01*
Y35441D01*
X140758D01*
Y35407D01*
X140897D01*
Y35372D01*
X141036D01*
Y35337D01*
X141279D01*
Y35303D01*
X141522D01*
Y35268D01*
X141868D01*
Y35337D01*
X141799D01*
Y35372D01*
X141764D01*
Y35407D01*
X141730D01*
Y35441D01*
X141695D01*
Y35476D01*
X141626D01*
Y35511D01*
X141591D01*
Y35545D01*
X141556D01*
Y35580D01*
X141522D01*
Y35615D01*
X141487D01*
Y35649D01*
X141418D01*
Y35684D01*
X141383D01*
Y35719D01*
X141348D01*
Y35754D01*
X141313D01*
Y35788D01*
X141279D01*
Y35823D01*
X141244D01*
Y35858D01*
X141209D01*
Y35892D01*
X141175D01*
Y35927D01*
X141140D01*
Y35962D01*
X141105D01*
Y35996D01*
X141071D01*
Y36031D01*
X141036D01*
Y36066D01*
X141001D01*
Y36101D01*
X140966D01*
Y36135D01*
X140932D01*
Y36205D01*
X140897D01*
Y36239D01*
X140862D01*
Y36274D01*
X140828D01*
Y36309D01*
X140793D01*
Y36343D01*
X140758D01*
Y36413D01*
X140724D01*
Y36447D01*
X140689D01*
Y36482D01*
X140654D01*
Y36517D01*
X140620D01*
Y36586D01*
X140585D01*
Y36621D01*
X140550D01*
Y36656D01*
X140516D01*
Y36725D01*
X140481D01*
Y36794D01*
X140446D01*
Y36829D01*
X140411D01*
Y36898D01*
X140377D01*
Y36933D01*
X140342D01*
Y37002D01*
X140307D01*
Y37072D01*
X140273D01*
Y37106D01*
X140238D01*
Y37176D01*
X140203D01*
Y37245D01*
X140169D01*
Y37315D01*
X140134D01*
Y37384D01*
X140099D01*
Y37453D01*
X140065D01*
Y37523D01*
X140030D01*
Y37627D01*
X139995D01*
Y37731D01*
X139961D01*
Y37835D01*
X139926D01*
Y37939D01*
X139891D01*
Y38043D01*
X139857D01*
Y38217D01*
X139822D01*
Y38390D01*
X139857D01*
Y38425D01*
X139891D01*
Y38459D01*
X139995D01*
Y38425D01*
X140030D01*
Y38390D01*
X140065D01*
Y38355D01*
X140099D01*
Y38321D01*
X140134D01*
Y38286D01*
X140169D01*
Y38251D01*
X140203D01*
Y38217D01*
X140238D01*
Y38182D01*
X140273D01*
Y38147D01*
X140307D01*
Y38112D01*
X140342D01*
Y38078D01*
X140377D01*
Y38043D01*
X140411D01*
Y38008D01*
X140446D01*
Y37974D01*
X140481D01*
Y37939D01*
X140516D01*
Y37904D01*
X140550D01*
Y37870D01*
X140585D01*
Y37835D01*
X140620D01*
Y37800D01*
X140654D01*
Y37766D01*
X140689D01*
Y37731D01*
X140724D01*
Y37696D01*
X140758D01*
Y37661D01*
X140793D01*
Y37627D01*
X140828D01*
Y37592D01*
X140862D01*
Y37557D01*
X140897D01*
Y37523D01*
X140932D01*
Y37488D01*
X140966D01*
Y37453D01*
X141036D01*
Y37419D01*
X141071D01*
Y37384D01*
X141105D01*
Y37349D01*
X141140D01*
Y37315D01*
X141175D01*
Y37280D01*
X141209D01*
Y37245D01*
X141279D01*
Y37211D01*
X141313D01*
Y37176D01*
X141348D01*
Y37141D01*
X141418D01*
Y37106D01*
X141452D01*
Y37072D01*
X141487D01*
Y37037D01*
X141556D01*
Y37002D01*
X141591D01*
Y36968D01*
X141626D01*
Y36933D01*
X141695D01*
Y36898D01*
X141730D01*
Y36864D01*
X141799D01*
Y36829D01*
X141834D01*
Y36794D01*
X141903D01*
Y36760D01*
X141938D01*
Y36725D01*
X142007D01*
Y36690D01*
X142042D01*
Y36656D01*
X142111D01*
Y36621D01*
X142181D01*
Y36586D01*
X142250D01*
Y36551D01*
X142285D01*
Y36517D01*
X142354D01*
Y36482D01*
X142423D01*
Y36447D01*
X142493D01*
Y36413D01*
X142527D01*
Y36378D01*
X142597D01*
Y36343D01*
X142666D01*
Y36309D01*
X142770D01*
Y36274D01*
X142840D01*
Y36239D01*
X142909D01*
Y36205D01*
X142979D01*
Y36239D01*
X142944D01*
Y36274D01*
X142909D01*
Y36309D01*
X142874D01*
Y36343D01*
X142840D01*
Y36413D01*
X142805D01*
Y36447D01*
X142770D01*
Y36482D01*
X142736D01*
Y36517D01*
X142701D01*
Y36551D01*
X142666D01*
Y36586D01*
X142632D01*
Y36656D01*
X142597D01*
Y36690D01*
X142562D01*
Y36725D01*
X142527D01*
Y36760D01*
X142493D01*
Y36794D01*
X142458D01*
Y36864D01*
X142423D01*
Y36898D01*
X142389D01*
Y36933D01*
X142354D01*
Y36968D01*
X142319D01*
Y37037D01*
X142285D01*
Y37072D01*
X142250D01*
Y37106D01*
X142215D01*
Y37176D01*
X142181D01*
Y37211D01*
X142146D01*
Y37280D01*
X142111D01*
Y37315D01*
X142077D01*
Y37384D01*
X142042D01*
Y37419D01*
X142007D01*
Y37488D01*
X141972D01*
Y37523D01*
X141938D01*
Y37592D01*
X141903D01*
Y37661D01*
X141868D01*
Y37731D01*
X141834D01*
Y37766D01*
X141799D01*
Y37835D01*
X141764D01*
Y37904D01*
X141730D01*
Y37974D01*
X141695D01*
Y38043D01*
X141660D01*
Y38112D01*
X141626D01*
Y38182D01*
X141591D01*
Y38251D01*
X141556D01*
Y38355D01*
X141522D01*
Y38425D01*
X141487D01*
Y38529D01*
X141452D01*
Y38598D01*
X141418D01*
Y38702D01*
X141383D01*
Y38806D01*
X141348D01*
Y38945D01*
X141313D01*
Y39049D01*
X141279D01*
Y39188D01*
X141244D01*
Y39361D01*
X141209D01*
Y39569D01*
X141175D01*
Y39882D01*
X141140D01*
Y40575D01*
X141175D01*
Y40888D01*
X141209D01*
Y41026D01*
X141244D01*
Y41130D01*
X141279D01*
Y41165D01*
X141313D01*
Y41200D01*
X141452D01*
Y41165D01*
X141487D01*
Y41096D01*
X141522D01*
Y40957D01*
X141556D01*
Y40784D01*
X141591D01*
Y40645D01*
X141626D01*
Y40506D01*
X141660D01*
Y40367D01*
X141695D01*
Y40263D01*
X141730D01*
Y40159D01*
X141764D01*
Y40055D01*
X141799D01*
Y39951D01*
X141834D01*
Y39882D01*
X141868D01*
Y39777D01*
X141903D01*
Y39708D01*
X141938D01*
Y39604D01*
X141972D01*
Y39535D01*
X142007D01*
Y39465D01*
X142042D01*
Y39396D01*
X142077D01*
Y39327D01*
X142111D01*
Y39257D01*
X142146D01*
Y39188D01*
X142181D01*
Y39118D01*
X142215D01*
Y39049D01*
X142250D01*
Y38980D01*
X142285D01*
Y38910D01*
X142319D01*
Y38876D01*
X142354D01*
Y38806D01*
X142389D01*
Y38737D01*
X142423D01*
Y38702D01*
X142458D01*
Y38633D01*
X142493D01*
Y38598D01*
X142527D01*
Y38529D01*
X142562D01*
Y38494D01*
X142597D01*
Y38425D01*
X142632D01*
Y38390D01*
X142666D01*
Y38321D01*
X142701D01*
Y38286D01*
X142736D01*
Y38217D01*
X142770D01*
Y38182D01*
X142805D01*
Y38147D01*
X142840D01*
Y38112D01*
X142874D01*
Y38043D01*
X142909D01*
Y38008D01*
X142944D01*
Y37974D01*
X142979D01*
Y37939D01*
X143013D01*
Y37904D01*
X143048D01*
Y37835D01*
X143082D01*
Y37800D01*
X143117D01*
Y37766D01*
X143152D01*
Y37731D01*
X143187D01*
Y37696D01*
X143221D01*
Y37661D01*
X143256D01*
Y37627D01*
X143291D01*
Y37592D01*
X143325D01*
Y37557D01*
X143360D01*
Y37523D01*
X143395D01*
Y37488D01*
X143429D01*
Y37453D01*
X143464D01*
Y37419D01*
X143499D01*
Y37384D01*
X143534D01*
Y37349D01*
X143568D01*
Y37315D01*
X143603D01*
Y37280D01*
X143638D01*
Y37245D01*
X143672D01*
Y37211D01*
X143707D01*
Y37176D01*
X143742D01*
Y37141D01*
X143811D01*
Y37176D01*
X143776D01*
Y37245D01*
X143742D01*
Y37280D01*
X143707D01*
Y37349D01*
X143672D01*
Y37384D01*
X143638D01*
Y37453D01*
X143603D01*
Y37488D01*
X143568D01*
Y37557D01*
X143534D01*
Y37627D01*
X143499D01*
Y37661D01*
X143464D01*
Y37731D01*
X143429D01*
Y37800D01*
X143395D01*
Y37835D01*
X143360D01*
Y37904D01*
X143325D01*
Y37974D01*
X143291D01*
Y38043D01*
X143256D01*
Y38112D01*
X143221D01*
Y38182D01*
X143187D01*
Y38217D01*
X143152D01*
Y38286D01*
X143117D01*
Y38355D01*
X143082D01*
Y38425D01*
X143048D01*
Y38494D01*
X143013D01*
Y38563D01*
X142979D01*
Y38633D01*
X142944D01*
Y38737D01*
X142909D01*
Y38806D01*
X142874D01*
Y38910D01*
X142840D01*
Y38980D01*
X142805D01*
Y39084D01*
X142770D01*
Y39188D01*
X142736D01*
Y39292D01*
X142701D01*
Y39396D01*
X142666D01*
Y39500D01*
X142632D01*
Y39639D01*
X142597D01*
Y39777D01*
X142562D01*
Y39916D01*
X142527D01*
Y40055D01*
X142493D01*
Y40263D01*
X142458D01*
Y40541D01*
X142423D01*
Y40957D01*
X142389D01*
Y41373D01*
X142423D01*
Y41789D01*
X142458D01*
Y42032D01*
X142493D01*
Y42206D01*
X142527D01*
Y42344D01*
X142562D01*
Y42483D01*
X142597D01*
Y42587D01*
X142632D01*
Y42691D01*
X142666D01*
Y42761D01*
X142701D01*
Y42865D01*
X142736D01*
Y42934D01*
X142770D01*
Y43004D01*
X142805D01*
Y43073D01*
X142840D01*
Y43142D01*
X142874D01*
Y43212D01*
X142909D01*
Y43281D01*
X142944D01*
Y43316D01*
X142979D01*
Y43385D01*
X143013D01*
Y43420D01*
X143048D01*
Y43455D01*
X143082D01*
Y43524D01*
X143117D01*
Y43559D01*
X143152D01*
Y43593D01*
X143221D01*
Y43628D01*
X143360D01*
Y43593D01*
D02*
G37*
G36*
X118800Y18027D02*
X118939D01*
Y17993D01*
X119043D01*
Y17958D01*
X119182D01*
Y17923D01*
X119321D01*
Y17889D01*
X119494D01*
Y17854D01*
X119633D01*
Y17819D01*
X119806D01*
Y17785D01*
X119980D01*
Y17750D01*
X120153D01*
Y17715D01*
X120361D01*
Y17681D01*
X120569D01*
Y17646D01*
X120777D01*
Y17611D01*
X121020D01*
Y17577D01*
X121263D01*
Y17542D01*
X121506D01*
Y17507D01*
X121783D01*
Y17472D01*
X122096D01*
Y17438D01*
X122477D01*
Y17403D01*
X122859D01*
Y17368D01*
X122928D01*
Y17334D01*
X122894D01*
Y17299D01*
X122824D01*
Y17264D01*
X122755D01*
Y17230D01*
X122685D01*
Y17195D01*
X122651D01*
Y17160D01*
X122581D01*
Y17126D01*
X122512D01*
Y17091D01*
X122443D01*
Y17056D01*
X122408D01*
Y17021D01*
X122338D01*
Y16987D01*
X122269D01*
Y16952D01*
X122234D01*
Y16917D01*
X122130D01*
Y16883D01*
X122026D01*
Y16848D01*
X121957D01*
Y16813D01*
X121853D01*
Y16779D01*
X121749D01*
Y16744D01*
X121645D01*
Y16709D01*
X121541D01*
Y16675D01*
X121437D01*
Y16640D01*
X121298D01*
Y16605D01*
X121194D01*
Y16571D01*
X121090D01*
Y16536D01*
X120986D01*
Y16501D01*
X120847D01*
Y16466D01*
X120743D01*
Y16432D01*
X120639D01*
Y16397D01*
X120500D01*
Y16362D01*
X120361D01*
Y16328D01*
X120257D01*
Y16293D01*
X120153D01*
Y16258D01*
X120049D01*
Y16224D01*
X119910D01*
Y16189D01*
X119772D01*
Y16154D01*
X119667D01*
Y16120D01*
X119529D01*
Y16085D01*
X119390D01*
Y16050D01*
X119251D01*
Y16015D01*
X119112D01*
Y15981D01*
X118974D01*
Y15946D01*
X118835D01*
Y15912D01*
X118696D01*
Y15877D01*
X118523D01*
Y15842D01*
X118384D01*
Y15807D01*
X118245D01*
Y15773D01*
X118072D01*
Y15738D01*
X117933D01*
Y15703D01*
X117760D01*
Y15669D01*
X117586D01*
Y15634D01*
X117413D01*
Y15599D01*
X117239D01*
Y15565D01*
X117031D01*
Y15530D01*
X116858D01*
Y15495D01*
X116649D01*
Y15461D01*
X116441D01*
Y15426D01*
X116233D01*
Y15391D01*
X115990D01*
Y15357D01*
X115782D01*
Y15322D01*
X115505D01*
Y15287D01*
X115227D01*
Y15252D01*
X114915D01*
Y15218D01*
X114568D01*
Y15183D01*
X114152D01*
Y15148D01*
X113666D01*
Y15114D01*
X112938D01*
Y15079D01*
X112383D01*
Y15114D01*
X111377D01*
Y15148D01*
X111099D01*
Y15183D01*
X110926D01*
Y15218D01*
X110822D01*
Y15252D01*
X110752D01*
Y15287D01*
X110718D01*
Y15322D01*
X110683D01*
Y15495D01*
X110718D01*
Y15530D01*
X110752D01*
Y15565D01*
X110787D01*
Y15599D01*
X110856D01*
Y15634D01*
X110960D01*
Y15669D01*
X111065D01*
Y15703D01*
X111169D01*
Y15738D01*
X111273D01*
Y15773D01*
X111342D01*
Y15807D01*
X111481D01*
Y15842D01*
X111550D01*
Y15877D01*
X111654D01*
Y15912D01*
X111758D01*
Y15946D01*
X111862D01*
Y15981D01*
X111967D01*
Y16015D01*
X112071D01*
Y16050D01*
X112175D01*
Y16085D01*
X112279D01*
Y16120D01*
X112383D01*
Y16154D01*
X112487D01*
Y16189D01*
X112591D01*
Y16224D01*
X112695D01*
Y16258D01*
X112764D01*
Y16293D01*
X112903D01*
Y16328D01*
X113007D01*
Y16362D01*
X113111D01*
Y16397D01*
X113215D01*
Y16432D01*
X113319D01*
Y16466D01*
X113423D01*
Y16501D01*
X113528D01*
Y16536D01*
X113632D01*
Y16571D01*
X113770D01*
Y16605D01*
X113874D01*
Y16640D01*
X113979D01*
Y16675D01*
X114083D01*
Y16709D01*
X114187D01*
Y16744D01*
X114291D01*
Y16779D01*
X114395D01*
Y16813D01*
X114499D01*
Y16848D01*
X114603D01*
Y16883D01*
X114742D01*
Y16917D01*
X114846D01*
Y16952D01*
X114950D01*
Y16987D01*
X115054D01*
Y17021D01*
X115158D01*
Y17056D01*
X115297D01*
Y17091D01*
X115401D01*
Y17126D01*
X115505D01*
Y17160D01*
X115644D01*
Y17195D01*
X115748D01*
Y17230D01*
X115852D01*
Y17264D01*
X115956D01*
Y17299D01*
X116095D01*
Y17334D01*
X116199D01*
Y17368D01*
X116303D01*
Y17403D01*
X116407D01*
Y17438D01*
X116545D01*
Y17472D01*
X116649D01*
Y17507D01*
X116788D01*
Y17542D01*
X116892D01*
Y17577D01*
X117031D01*
Y17611D01*
X117135D01*
Y17646D01*
X117274D01*
Y17681D01*
X117378D01*
Y17715D01*
X117482D01*
Y17750D01*
X117621D01*
Y17785D01*
X117725D01*
Y17819D01*
X117864D01*
Y17854D01*
X117968D01*
Y17889D01*
X118106D01*
Y17923D01*
X118210D01*
Y17958D01*
X118315D01*
Y17993D01*
X118453D01*
Y18027D01*
X118592D01*
Y18062D01*
X118800D01*
Y18027D01*
D02*
G37*
%LPC*%
G36*
X122373Y48623D02*
X122200D01*
Y48588D01*
X122096D01*
Y48554D01*
X122061D01*
Y48519D01*
X122026D01*
Y48484D01*
X121992D01*
Y48415D01*
X121957D01*
Y48346D01*
X121922D01*
Y48242D01*
X121888D01*
Y47999D01*
X121853D01*
Y47201D01*
X121888D01*
Y46854D01*
X121922D01*
Y46646D01*
X121957D01*
Y46472D01*
X121992D01*
Y46334D01*
X122026D01*
Y46195D01*
X122061D01*
Y46056D01*
X122096D01*
Y46022D01*
X122061D01*
Y45952D01*
X121888D01*
Y45917D01*
X121783D01*
Y45883D01*
X121714D01*
Y45848D01*
X121679D01*
Y45813D01*
X121645D01*
Y45709D01*
X121610D01*
Y45605D01*
X121645D01*
Y45467D01*
X121679D01*
Y45397D01*
X121714D01*
Y45328D01*
X121749D01*
Y45293D01*
X121783D01*
Y45224D01*
X121818D01*
Y45189D01*
X121853D01*
Y45120D01*
X121888D01*
Y45085D01*
X121922D01*
Y45050D01*
X121957D01*
Y44981D01*
X121992D01*
Y44946D01*
X122026D01*
Y44912D01*
X122061D01*
Y44946D01*
X122096D01*
Y44981D01*
X122130D01*
Y45016D01*
X122165D01*
Y45050D01*
X122200D01*
Y45085D01*
X122269D01*
Y45120D01*
X122304D01*
Y45154D01*
X122338D01*
Y45189D01*
X122373D01*
Y45224D01*
X122408D01*
Y45258D01*
X122443D01*
Y45293D01*
X122477D01*
Y45328D01*
X122547D01*
Y45362D01*
X122581D01*
Y45397D01*
X122651D01*
Y45432D01*
X122685D01*
Y45467D01*
X122720D01*
Y45501D01*
X122790D01*
Y45536D01*
X122824D01*
Y45571D01*
X122894D01*
Y45605D01*
X122963D01*
Y45640D01*
X122998D01*
Y45675D01*
X123067D01*
Y45709D01*
X123136D01*
Y45744D01*
X123206D01*
Y45779D01*
X123275D01*
Y45813D01*
X123345D01*
Y45848D01*
X123414D01*
Y45883D01*
X123483D01*
Y45917D01*
X123518D01*
Y45952D01*
X123483D01*
Y46022D01*
X123449D01*
Y46056D01*
X123414D01*
Y46091D01*
X123379D01*
Y46126D01*
X123345D01*
Y46195D01*
X123310D01*
Y46230D01*
X123275D01*
Y46264D01*
X123240D01*
Y46334D01*
X123206D01*
Y46472D01*
X123240D01*
Y46542D01*
X123310D01*
Y46577D01*
X123414D01*
Y46611D01*
X123691D01*
Y46646D01*
X123830D01*
Y46611D01*
X124177D01*
Y46577D01*
X124385D01*
Y46611D01*
X124351D01*
Y46715D01*
X124316D01*
Y46785D01*
X124281D01*
Y46819D01*
X124246D01*
Y46889D01*
X124212D01*
Y46958D01*
X124177D01*
Y46993D01*
X124142D01*
Y47062D01*
X124108D01*
Y47097D01*
X124073D01*
Y47166D01*
X124038D01*
Y47201D01*
X124004D01*
Y47270D01*
X123969D01*
Y47305D01*
X123934D01*
Y47340D01*
X123899D01*
Y47409D01*
X123865D01*
Y47444D01*
X123830D01*
Y47479D01*
X123795D01*
Y47513D01*
X123761D01*
Y47583D01*
X123726D01*
Y47617D01*
X123691D01*
Y47652D01*
X123657D01*
Y47687D01*
X123622D01*
Y47721D01*
X123587D01*
Y47756D01*
X123553D01*
Y47791D01*
X123518D01*
Y47825D01*
X123483D01*
Y47860D01*
X123449D01*
Y47895D01*
X123414D01*
Y47929D01*
X123379D01*
Y47964D01*
X123345D01*
Y47999D01*
X123310D01*
Y48033D01*
X123275D01*
Y48068D01*
X123240D01*
Y48103D01*
X123206D01*
Y48138D01*
X123171D01*
Y48172D01*
X123136D01*
Y48207D01*
X123067D01*
Y48242D01*
X123032D01*
Y48276D01*
X122998D01*
Y48311D01*
X122928D01*
Y48346D01*
X122894D01*
Y48380D01*
X122824D01*
Y48415D01*
X122790D01*
Y48450D01*
X122720D01*
Y48484D01*
X122651D01*
Y48519D01*
X122581D01*
Y48554D01*
X122477D01*
Y48588D01*
X122373D01*
Y48623D01*
D02*
G37*
G36*
X134029D02*
X133855D01*
Y48588D01*
X133716D01*
Y48554D01*
X133647D01*
Y48519D01*
X133578D01*
Y48484D01*
X133508D01*
Y48450D01*
X133439D01*
Y48415D01*
X133370D01*
Y48380D01*
X133335D01*
Y48346D01*
X133266D01*
Y48311D01*
X133231D01*
Y48276D01*
X133161D01*
Y48242D01*
X133127D01*
Y48207D01*
X133092D01*
Y48172D01*
X133023D01*
Y48138D01*
X132988D01*
Y48103D01*
X132953D01*
Y48068D01*
X132919D01*
Y48033D01*
X132884D01*
Y47999D01*
X132849D01*
Y47964D01*
X132815D01*
Y47929D01*
X132780D01*
Y47895D01*
X132745D01*
Y47860D01*
X132711D01*
Y47825D01*
X132676D01*
Y47791D01*
X132641D01*
Y47756D01*
X132606D01*
Y47721D01*
X132572D01*
Y47687D01*
X132537D01*
Y47652D01*
X132502D01*
Y47617D01*
X132468D01*
Y47583D01*
X132433D01*
Y47548D01*
X132398D01*
Y47479D01*
X132364D01*
Y47444D01*
X132329D01*
Y47409D01*
X132294D01*
Y47374D01*
X132260D01*
Y47305D01*
X132225D01*
Y47270D01*
X132190D01*
Y47236D01*
X132156D01*
Y47166D01*
X132121D01*
Y47132D01*
X132086D01*
Y47062D01*
X132051D01*
Y47028D01*
X132017D01*
Y46958D01*
X131982D01*
Y46923D01*
X131947D01*
Y46854D01*
X131913D01*
Y46785D01*
X131878D01*
Y46715D01*
X131843D01*
Y46611D01*
X131809D01*
Y46577D01*
X132017D01*
Y46611D01*
X132329D01*
Y46646D01*
X132537D01*
Y46611D01*
X132815D01*
Y46577D01*
X132919D01*
Y46542D01*
X132953D01*
Y46507D01*
X132988D01*
Y46472D01*
X133023D01*
Y46368D01*
X132988D01*
Y46299D01*
X132953D01*
Y46264D01*
X132919D01*
Y46195D01*
X132884D01*
Y46160D01*
X132849D01*
Y46126D01*
X132815D01*
Y46056D01*
X132780D01*
Y46022D01*
X132745D01*
Y45952D01*
X132711D01*
Y45917D01*
X132745D01*
Y45883D01*
X132815D01*
Y45848D01*
X132884D01*
Y45813D01*
X132953D01*
Y45779D01*
X133023D01*
Y45744D01*
X133092D01*
Y45709D01*
X133161D01*
Y45675D01*
X133196D01*
Y45640D01*
X133266D01*
Y45605D01*
X133335D01*
Y45571D01*
X133370D01*
Y45536D01*
X133439D01*
Y45501D01*
X133474D01*
Y45467D01*
X133543D01*
Y45432D01*
X133578D01*
Y45397D01*
X133647D01*
Y45362D01*
X133682D01*
Y45328D01*
X133716D01*
Y45293D01*
X133751D01*
Y45258D01*
X133821D01*
Y45224D01*
X133855D01*
Y45189D01*
X133890D01*
Y45154D01*
X133925D01*
Y45120D01*
X133994D01*
Y45085D01*
X134029D01*
Y45050D01*
X134063D01*
Y45016D01*
X134098D01*
Y44981D01*
X134133D01*
Y44946D01*
X134168D01*
Y44912D01*
X134202D01*
Y44946D01*
X134237D01*
Y45016D01*
X134272D01*
Y45050D01*
X134306D01*
Y45085D01*
X134341D01*
Y45154D01*
X134376D01*
Y45189D01*
X134410D01*
Y45258D01*
X134445D01*
Y45328D01*
X134480D01*
Y45397D01*
X134514D01*
Y45432D01*
Y45467D01*
X134549D01*
Y45605D01*
X134584D01*
Y45709D01*
X134549D01*
Y45779D01*
X134514D01*
Y45848D01*
X134480D01*
Y45883D01*
X134410D01*
Y45917D01*
X134272D01*
Y45952D01*
X134133D01*
Y46091D01*
X134168D01*
Y46230D01*
X134202D01*
Y46368D01*
X134237D01*
Y46542D01*
X134272D01*
Y46715D01*
X134306D01*
Y46923D01*
X134341D01*
Y47236D01*
X134376D01*
Y48068D01*
X134341D01*
Y48276D01*
X134306D01*
Y48380D01*
X134272D01*
Y48450D01*
X134237D01*
Y48484D01*
X134202D01*
Y48519D01*
X134168D01*
Y48554D01*
X134133D01*
Y48588D01*
X134029D01*
Y48623D01*
D02*
G37*
G36*
X131670Y43142D02*
X131358D01*
Y43108D01*
X131149D01*
Y43073D01*
X131045D01*
Y43038D01*
X130941D01*
Y43004D01*
X130872D01*
Y42969D01*
X130803D01*
Y42934D01*
X130768D01*
Y42900D01*
X130699D01*
Y42865D01*
X130664D01*
Y42830D01*
X130595D01*
Y42795D01*
X130560D01*
Y42761D01*
X130525D01*
Y42726D01*
X130490D01*
Y42691D01*
X130456D01*
Y42657D01*
X130421D01*
Y42622D01*
X130386D01*
Y42587D01*
X130352D01*
Y42553D01*
X130317D01*
Y42518D01*
X130282D01*
Y42449D01*
X130248D01*
Y42414D01*
X130213D01*
Y42344D01*
X130178D01*
Y42275D01*
X130143D01*
Y42206D01*
X130109D01*
Y42102D01*
X130074D01*
Y41963D01*
X130040D01*
Y41824D01*
X130005D01*
Y41373D01*
X130040D01*
Y41200D01*
X130074D01*
Y41096D01*
X130109D01*
Y40992D01*
X130143D01*
Y40922D01*
X130178D01*
Y40853D01*
X130213D01*
Y40784D01*
X130248D01*
Y40749D01*
Y40714D01*
X130282D01*
Y40679D01*
X130317D01*
Y40610D01*
X130352D01*
Y40575D01*
X130386D01*
Y40541D01*
X130421D01*
Y40506D01*
X130456D01*
Y40471D01*
X130490D01*
Y40437D01*
X130525D01*
Y40402D01*
X130560D01*
Y40367D01*
X130595D01*
Y40332D01*
X130629D01*
Y40298D01*
X130664D01*
Y40263D01*
X130733D01*
Y40229D01*
X130768D01*
Y40194D01*
X130837D01*
Y40159D01*
X130872D01*
Y40124D01*
X130976D01*
Y40090D01*
X131045D01*
Y40055D01*
X131149D01*
Y40020D01*
X131323D01*
Y39986D01*
X131739D01*
Y40020D01*
X131913D01*
Y40055D01*
X132051D01*
Y40090D01*
X132156D01*
Y40124D01*
X132225D01*
Y40159D01*
X132260D01*
Y40194D01*
X132329D01*
Y40229D01*
X132398D01*
Y40263D01*
X132433D01*
Y40298D01*
X132468D01*
Y40332D01*
X132537D01*
Y40367D01*
X132572D01*
Y40402D01*
X132606D01*
Y40437D01*
X132641D01*
Y40471D01*
X132676D01*
Y40506D01*
X132711D01*
Y40575D01*
X132745D01*
Y40610D01*
X132780D01*
Y40679D01*
X132815D01*
Y40714D01*
X132849D01*
Y40784D01*
X132884D01*
Y40818D01*
X132919D01*
Y40853D01*
X132953D01*
Y40888D01*
X133023D01*
Y40922D01*
X133161D01*
Y40957D01*
X133300D01*
Y40992D01*
X133370D01*
Y41026D01*
X133439D01*
Y41061D01*
X133508D01*
Y41096D01*
X133543D01*
Y41165D01*
X133578D01*
Y41304D01*
X133543D01*
Y41339D01*
X133508D01*
Y41373D01*
X133474D01*
Y41408D01*
X133439D01*
Y41443D01*
X133370D01*
Y41477D01*
X133266D01*
Y41512D01*
X133196D01*
Y41547D01*
X133161D01*
Y41581D01*
X133092D01*
Y41616D01*
X133057D01*
Y41720D01*
X133023D01*
Y41859D01*
X132988D01*
Y41998D01*
X132953D01*
Y42102D01*
X132919D01*
Y42171D01*
X132884D01*
Y42240D01*
X132849D01*
Y42310D01*
X132815D01*
Y42379D01*
X132780D01*
Y42414D01*
X132745D01*
Y42483D01*
X132711D01*
Y42518D01*
X132676D01*
Y42553D01*
X132641D01*
Y42587D01*
X132606D01*
Y42657D01*
X132572D01*
Y42691D01*
X132537D01*
Y42726D01*
X132502D01*
Y42761D01*
X132433D01*
Y42795D01*
X132398D01*
Y42830D01*
X132364D01*
Y42865D01*
X132294D01*
Y42900D01*
X132260D01*
Y42934D01*
X132190D01*
Y42969D01*
X132156D01*
Y43004D01*
X132051D01*
Y43038D01*
X131982D01*
Y43073D01*
X131843D01*
Y43108D01*
X131670D01*
Y43142D01*
D02*
G37*
G36*
X124975D02*
X124663D01*
Y43108D01*
X124454D01*
Y43073D01*
X124351D01*
Y43038D01*
X124246D01*
Y43004D01*
X124177D01*
Y42969D01*
X124108D01*
Y42934D01*
X124073D01*
Y42900D01*
X124004D01*
Y42865D01*
X123934D01*
Y42830D01*
X123899D01*
Y42795D01*
X123865D01*
Y42761D01*
X123830D01*
Y42726D01*
X123761D01*
Y42691D01*
X123726D01*
Y42622D01*
X123691D01*
Y42587D01*
X123657D01*
Y42553D01*
X123622D01*
Y42518D01*
X123587D01*
Y42483D01*
X123553D01*
Y42414D01*
X123518D01*
Y42344D01*
X123483D01*
Y42310D01*
X123449D01*
Y42240D01*
X123414D01*
Y42136D01*
X123379D01*
Y42067D01*
X123345D01*
Y41963D01*
X123310D01*
Y41824D01*
X123275D01*
Y41685D01*
X123240D01*
Y41651D01*
X123206D01*
Y41581D01*
X123136D01*
Y41547D01*
X123067D01*
Y41512D01*
X122998D01*
Y41477D01*
X122928D01*
Y41443D01*
X122859D01*
Y41408D01*
X122790D01*
Y41373D01*
X122755D01*
Y41339D01*
X122720D01*
Y41269D01*
X122685D01*
Y41200D01*
X122720D01*
Y41130D01*
X122755D01*
Y41096D01*
X122790D01*
Y41061D01*
X122824D01*
Y41026D01*
X122894D01*
Y40992D01*
X122963D01*
Y40957D01*
X123067D01*
Y40922D01*
X123275D01*
Y40888D01*
X123345D01*
Y40853D01*
X123414D01*
Y40784D01*
X123449D01*
Y40714D01*
X123483D01*
Y40679D01*
X123518D01*
Y40610D01*
X123553D01*
Y40575D01*
X123587D01*
Y40541D01*
X123622D01*
Y40471D01*
X123657D01*
Y40437D01*
X123726D01*
Y40402D01*
X123761D01*
Y40367D01*
X123795D01*
Y40332D01*
X123830D01*
Y40298D01*
X123865D01*
Y40263D01*
X123934D01*
Y40229D01*
X123969D01*
Y40194D01*
X124038D01*
Y40159D01*
X124108D01*
Y40124D01*
X124177D01*
Y40090D01*
X124246D01*
Y40055D01*
X124351D01*
Y40020D01*
X124559D01*
Y39986D01*
X125010D01*
Y40020D01*
X125183D01*
Y40055D01*
X125252D01*
Y40090D01*
X125356D01*
Y40124D01*
X125426D01*
Y40159D01*
X125495D01*
Y40194D01*
X125530D01*
Y40229D01*
X125599D01*
Y40263D01*
X125634D01*
Y40298D01*
X125703D01*
Y40332D01*
X125738D01*
Y40367D01*
X125773D01*
Y40402D01*
X125807D01*
Y40437D01*
X125842D01*
Y40471D01*
X125877D01*
Y40506D01*
X125911D01*
Y40541D01*
X125946D01*
Y40575D01*
X125981D01*
Y40645D01*
X126016D01*
Y40679D01*
X126050D01*
Y40749D01*
X126085D01*
Y40784D01*
X126120D01*
Y40853D01*
X126154D01*
Y40922D01*
X126189D01*
Y40992D01*
X126224D01*
Y41096D01*
X126258D01*
Y41234D01*
X126293D01*
Y41443D01*
X126328D01*
Y41720D01*
X126293D01*
Y41928D01*
X126258D01*
Y42067D01*
X126224D01*
Y42102D01*
Y42171D01*
X126189D01*
Y42240D01*
X126154D01*
Y42310D01*
X126120D01*
Y42379D01*
X126085D01*
Y42414D01*
X126050D01*
Y42483D01*
X126016D01*
Y42518D01*
X125981D01*
Y42587D01*
X125946D01*
Y42622D01*
X125911D01*
Y42657D01*
X125877D01*
Y42691D01*
X125842D01*
Y42726D01*
X125807D01*
Y42761D01*
X125773D01*
Y42795D01*
X125738D01*
Y42830D01*
X125669D01*
Y42865D01*
X125634D01*
Y42900D01*
X125565D01*
Y42934D01*
X125530D01*
Y42969D01*
X125461D01*
Y43004D01*
X125391D01*
Y43038D01*
X125287D01*
Y43073D01*
X125183D01*
Y43108D01*
X124975D01*
Y43142D01*
D02*
G37*
G36*
X128340Y40506D02*
X127993D01*
Y40471D01*
X127681D01*
Y40437D01*
X127507D01*
Y40402D01*
X127403D01*
Y40367D01*
X127299D01*
Y40332D01*
X127195D01*
Y40298D01*
X127091D01*
Y40263D01*
X127022D01*
Y40229D01*
X126952D01*
Y40194D01*
X126883D01*
Y40159D01*
X126848D01*
Y40124D01*
X126779D01*
Y40090D01*
X126709D01*
Y40055D01*
X126675D01*
Y40020D01*
X126605D01*
Y39986D01*
X126571D01*
Y39951D01*
X126536D01*
Y39916D01*
X126501D01*
Y39882D01*
X126467D01*
Y39847D01*
X126432D01*
Y39812D01*
X126397D01*
Y39777D01*
X126362D01*
Y39743D01*
X126328D01*
Y39708D01*
X126293D01*
Y39673D01*
X126258D01*
Y39639D01*
X126224D01*
Y39604D01*
X126189D01*
Y39535D01*
X126154D01*
Y39500D01*
X126120D01*
Y39465D01*
X126085D01*
Y39396D01*
X126050D01*
Y39327D01*
X126016D01*
Y39292D01*
X125981D01*
Y39222D01*
X125946D01*
Y39153D01*
X125911D01*
Y39084D01*
X125877D01*
Y39014D01*
X125842D01*
Y38945D01*
X125807D01*
Y38876D01*
X125773D01*
Y38841D01*
X125738D01*
Y38806D01*
X125669D01*
Y38772D01*
X125565D01*
Y38737D01*
X125461D01*
Y38702D01*
X125356D01*
Y38668D01*
X125252D01*
Y38633D01*
X125183D01*
Y38598D01*
X125148D01*
Y38563D01*
X125079D01*
Y38529D01*
X125044D01*
Y38494D01*
X124975D01*
Y38459D01*
X124940D01*
Y38390D01*
X124906D01*
Y38355D01*
X124871D01*
Y38286D01*
X124836D01*
Y38217D01*
X124801D01*
Y38112D01*
X124767D01*
Y37766D01*
X124801D01*
Y37661D01*
X124836D01*
Y37557D01*
X124871D01*
Y37523D01*
X124906D01*
Y37453D01*
X124940D01*
Y37384D01*
X124975D01*
Y37349D01*
X125010D01*
Y37315D01*
X125044D01*
Y37280D01*
X125079D01*
Y37245D01*
X125114D01*
Y37211D01*
X125148D01*
Y37176D01*
X125183D01*
Y37141D01*
X125218D01*
Y37106D01*
X125252D01*
Y37072D01*
X125287D01*
Y37037D01*
X125322D01*
Y37002D01*
X125391D01*
Y36968D01*
X125461D01*
Y36933D01*
X125495D01*
Y36898D01*
X125565D01*
Y36864D01*
X125634D01*
Y36829D01*
X125738D01*
Y36794D01*
X125807D01*
Y36760D01*
X125911D01*
Y36725D01*
X126050D01*
Y36690D01*
X126328D01*
Y36656D01*
X126536D01*
Y36690D01*
X126813D01*
Y36725D01*
X126987D01*
Y36760D01*
X127091D01*
Y36794D01*
X127160D01*
Y36829D01*
X127230D01*
Y36864D01*
X127299D01*
Y36898D01*
X127368D01*
Y36933D01*
X127438D01*
Y36968D01*
X127507D01*
Y37002D01*
X127542D01*
Y37037D01*
X127611D01*
Y37072D01*
X127646D01*
Y37106D01*
X127715D01*
Y37141D01*
X127750D01*
Y37176D01*
X127785D01*
Y37211D01*
X127819D01*
Y37245D01*
X127854D01*
Y37280D01*
X127889D01*
Y37349D01*
X127923D01*
Y37419D01*
X127958D01*
Y37696D01*
X127923D01*
Y37731D01*
X127889D01*
Y37766D01*
X127819D01*
Y37800D01*
X127750D01*
Y37835D01*
X127681D01*
Y37870D01*
X127611D01*
Y37904D01*
X127542D01*
Y37939D01*
X127507D01*
Y37974D01*
X127438D01*
Y38008D01*
X127403D01*
Y38043D01*
X127368D01*
Y38078D01*
X127299D01*
Y38112D01*
X127264D01*
Y38147D01*
X127230D01*
Y38217D01*
X127195D01*
Y38251D01*
X127160D01*
Y38286D01*
X127126D01*
Y38355D01*
X127091D01*
Y38390D01*
X127056D01*
Y38459D01*
X127022D01*
Y38563D01*
X126987D01*
Y38668D01*
X126952D01*
Y38980D01*
X126987D01*
Y39084D01*
X127022D01*
Y39153D01*
X127056D01*
Y39222D01*
X127091D01*
Y39257D01*
X127126D01*
Y39292D01*
X127160D01*
Y39327D01*
X127195D01*
Y39361D01*
X127230D01*
Y39396D01*
X127299D01*
Y39431D01*
X127334D01*
Y39465D01*
X127403D01*
Y39500D01*
X127507D01*
Y39535D01*
X127611D01*
Y39569D01*
X127750D01*
Y39604D01*
X127958D01*
Y39639D01*
X128374D01*
Y39604D01*
X128617D01*
Y39569D01*
X128756D01*
Y39535D01*
X128860D01*
Y39500D01*
X128929D01*
Y39465D01*
X128999D01*
Y39431D01*
X129068D01*
Y39396D01*
X129103D01*
Y39361D01*
X129138D01*
Y39327D01*
X129172D01*
Y39292D01*
X129207D01*
Y39257D01*
X129242D01*
Y39222D01*
X129276D01*
Y39188D01*
X129311D01*
Y39118D01*
X129346D01*
Y39049D01*
X129380D01*
Y38910D01*
X129415D01*
Y38772D01*
X129380D01*
Y38598D01*
X129346D01*
Y38494D01*
X129311D01*
Y38425D01*
X129276D01*
Y38390D01*
X129242D01*
Y38321D01*
X129207D01*
Y38286D01*
X129172D01*
Y38251D01*
X129138D01*
Y38182D01*
X129103D01*
Y38147D01*
X129068D01*
Y38112D01*
X129034D01*
Y38078D01*
X128964D01*
Y38043D01*
X128929D01*
Y38008D01*
X128895D01*
Y37974D01*
X128860D01*
Y37939D01*
X128791D01*
Y37904D01*
X128756D01*
Y37870D01*
X128687D01*
Y37835D01*
X128617D01*
Y37800D01*
X128513D01*
Y37766D01*
X128444D01*
Y37731D01*
X128409D01*
Y37384D01*
X128444D01*
Y37315D01*
X128479D01*
Y37280D01*
X128513D01*
Y37245D01*
X128548D01*
Y37211D01*
X128583D01*
Y37176D01*
X128617D01*
Y37141D01*
X128652D01*
Y37106D01*
X128687D01*
Y37072D01*
X128756D01*
Y37037D01*
X128791D01*
Y37002D01*
X128860D01*
Y36968D01*
X128895D01*
Y36933D01*
X128964D01*
Y36898D01*
X129034D01*
Y36864D01*
X129103D01*
Y36829D01*
X129172D01*
Y36794D01*
X129276D01*
Y36760D01*
X129380D01*
Y36725D01*
X129554D01*
Y36690D01*
X129866D01*
Y36656D01*
X129935D01*
Y36690D01*
X130213D01*
Y36725D01*
X130386D01*
Y36760D01*
X130490D01*
Y36794D01*
X130560D01*
Y36829D01*
X130664D01*
Y36864D01*
X130733D01*
Y36898D01*
X130803D01*
Y36933D01*
X130837D01*
Y36968D01*
X130907D01*
Y37002D01*
X130976D01*
Y37037D01*
X131011D01*
Y37072D01*
X131045D01*
Y37106D01*
X131080D01*
Y37141D01*
X131115D01*
Y37176D01*
X131149D01*
Y37211D01*
X131184D01*
Y37245D01*
X131219D01*
Y37280D01*
X131254D01*
Y37315D01*
X131288D01*
Y37349D01*
X131323D01*
Y37384D01*
X131358D01*
Y37453D01*
X131392D01*
Y37488D01*
X131427D01*
Y37557D01*
X131462D01*
Y37661D01*
X131496D01*
Y37800D01*
X131531D01*
Y38112D01*
X131496D01*
Y38217D01*
X131462D01*
Y38286D01*
X131427D01*
Y38355D01*
X131392D01*
Y38390D01*
X131358D01*
Y38425D01*
X131323D01*
Y38459D01*
X131288D01*
Y38494D01*
X131254D01*
Y38529D01*
X131219D01*
Y38563D01*
X131149D01*
Y38598D01*
X131115D01*
Y38633D01*
X131045D01*
Y38668D01*
X130941D01*
Y38702D01*
X130872D01*
Y38737D01*
X130733D01*
Y38772D01*
X130664D01*
Y38806D01*
X130595D01*
Y38841D01*
X130560D01*
Y38910D01*
X130525D01*
Y38945D01*
X130490D01*
Y39014D01*
X130456D01*
Y39084D01*
X130421D01*
Y39153D01*
X130386D01*
Y39222D01*
X130352D01*
Y39292D01*
X130317D01*
Y39361D01*
X130282D01*
Y39396D01*
X130248D01*
Y39465D01*
X130213D01*
Y39500D01*
X130178D01*
Y39535D01*
X130143D01*
Y39604D01*
X130109D01*
Y39639D01*
X130074D01*
Y39673D01*
X130040D01*
Y39708D01*
X130005D01*
Y39743D01*
X129970D01*
Y39777D01*
X129935D01*
Y39812D01*
X129901D01*
Y39847D01*
X129866D01*
Y39882D01*
X129831D01*
Y39916D01*
X129797D01*
Y39951D01*
X129762D01*
Y39986D01*
X129693D01*
Y40020D01*
X129658D01*
Y40055D01*
X129623D01*
Y40090D01*
X129554D01*
Y40124D01*
X129484D01*
Y40159D01*
X129450D01*
Y40194D01*
X129380D01*
Y40229D01*
X129311D01*
Y40263D01*
X129207D01*
Y40298D01*
X129138D01*
Y40332D01*
X129034D01*
Y40367D01*
X128929D01*
Y40402D01*
X128791D01*
Y40437D01*
X128652D01*
Y40471D01*
X128340D01*
Y40506D01*
D02*
G37*
G36*
X130040Y36239D02*
X129346D01*
Y36205D01*
X129311D01*
Y36170D01*
X129276D01*
Y36135D01*
X129242D01*
Y36101D01*
X129207D01*
Y36066D01*
X129172D01*
Y36031D01*
X129138D01*
Y35996D01*
X129103D01*
Y35962D01*
X129034D01*
Y35927D01*
X128999D01*
Y35892D01*
X128964D01*
Y35858D01*
X128895D01*
Y35823D01*
X128825D01*
Y35788D01*
X128756D01*
Y35754D01*
X128687D01*
Y35719D01*
X128583D01*
Y35684D01*
X128444D01*
Y35649D01*
X127854D01*
Y35684D01*
X127750D01*
Y35719D01*
X127646D01*
Y35754D01*
X127542D01*
Y35788D01*
X127472D01*
Y35823D01*
X127403D01*
Y35858D01*
X127368D01*
Y35892D01*
X127299D01*
Y35927D01*
X127264D01*
Y35962D01*
X127230D01*
Y35996D01*
X127160D01*
Y36031D01*
X127126D01*
Y36066D01*
X127091D01*
Y36101D01*
X127056D01*
Y36135D01*
X127022D01*
Y36205D01*
X126987D01*
Y36239D01*
X126293D01*
Y36101D01*
X126328D01*
Y35996D01*
X126362D01*
Y35927D01*
X126397D01*
Y35858D01*
X126432D01*
Y35788D01*
X126467D01*
Y35719D01*
X126501D01*
Y35684D01*
X126536D01*
Y35615D01*
X126571D01*
Y35580D01*
X126605D01*
Y35545D01*
X126640D01*
Y35476D01*
X126675D01*
Y35441D01*
X126709D01*
Y35407D01*
X126744D01*
Y35372D01*
X126779D01*
Y35337D01*
X126813D01*
Y35303D01*
X126848D01*
Y35268D01*
X126883D01*
Y35233D01*
X126952D01*
Y35199D01*
X126987D01*
Y35164D01*
X127056D01*
Y35129D01*
X127091D01*
Y35094D01*
X127160D01*
Y35060D01*
X127230D01*
Y35025D01*
X127299D01*
Y34990D01*
X127368D01*
Y34956D01*
X127472D01*
Y34921D01*
X127577D01*
Y34886D01*
X127715D01*
Y34852D01*
X127958D01*
Y34817D01*
X128340D01*
Y34852D01*
X128548D01*
Y34886D01*
X128721D01*
Y34921D01*
X128825D01*
Y34956D01*
X128929D01*
Y34990D01*
X128999D01*
Y35025D01*
X129068D01*
Y35060D01*
X129138D01*
Y35094D01*
X129207D01*
Y35129D01*
X129242D01*
Y35164D01*
X129311D01*
Y35199D01*
X129346D01*
Y35233D01*
X129380D01*
Y35268D01*
X129450D01*
Y35303D01*
X129484D01*
Y35337D01*
X129519D01*
Y35372D01*
X129554D01*
Y35407D01*
X129588D01*
Y35441D01*
X129623D01*
Y35476D01*
X129658D01*
Y35511D01*
X129693D01*
Y35580D01*
X129727D01*
Y35615D01*
X129762D01*
Y35649D01*
X129797D01*
Y35719D01*
X129831D01*
Y35754D01*
X129866D01*
Y35823D01*
X129901D01*
Y35892D01*
X129935D01*
Y35962D01*
X129970D01*
Y36031D01*
X130005D01*
Y36135D01*
X130040D01*
Y36239D01*
D02*
G37*
%LPD*%
G36*
X131739Y42414D02*
X131843D01*
Y42379D01*
X131913D01*
Y42344D01*
X131982D01*
Y42310D01*
X132017D01*
Y42275D01*
X132086D01*
Y42240D01*
X132121D01*
Y42206D01*
X132156D01*
Y42171D01*
X132190D01*
Y42136D01*
X132225D01*
Y42067D01*
X132260D01*
Y42032D01*
X132294D01*
Y41963D01*
X132329D01*
Y41894D01*
X132364D01*
Y41755D01*
X132398D01*
Y41304D01*
X132364D01*
Y41200D01*
X132329D01*
Y41130D01*
X132294D01*
Y41061D01*
X132260D01*
Y41026D01*
X132225D01*
Y40957D01*
X132190D01*
Y40922D01*
X132156D01*
Y40888D01*
X132121D01*
Y40853D01*
X132086D01*
Y40818D01*
X132017D01*
Y40784D01*
X131982D01*
Y40749D01*
X131913D01*
Y40714D01*
X131843D01*
Y40679D01*
X131739D01*
Y40645D01*
X131288D01*
Y40679D01*
X131184D01*
Y40714D01*
X131115D01*
Y40749D01*
X131045D01*
Y40784D01*
X130976D01*
Y40818D01*
X130941D01*
Y40853D01*
X130907D01*
Y40888D01*
X130872D01*
Y40922D01*
X130837D01*
Y40957D01*
X130803D01*
Y41026D01*
X130768D01*
Y41061D01*
X130733D01*
Y41130D01*
X130699D01*
Y41200D01*
X130664D01*
Y41304D01*
X130629D01*
Y41512D01*
X130595D01*
Y41616D01*
X130629D01*
Y41789D01*
X130664D01*
Y41894D01*
X130699D01*
Y41963D01*
X130733D01*
Y42032D01*
X130768D01*
Y42067D01*
X130803D01*
Y42136D01*
X130837D01*
Y42171D01*
X130872D01*
Y42206D01*
X130907D01*
Y42240D01*
X130941D01*
Y42275D01*
X131011D01*
Y42310D01*
X131045D01*
Y42344D01*
X131115D01*
Y42379D01*
X131184D01*
Y42414D01*
X131323D01*
Y42449D01*
X131739D01*
Y42414D01*
D02*
G37*
%LPC*%
G36*
X131843Y42067D02*
X131635D01*
Y42032D01*
X131600D01*
Y41998D01*
X131531D01*
Y41963D01*
X131496D01*
Y41894D01*
X131462D01*
Y41685D01*
X131496D01*
Y41616D01*
X131531D01*
Y41581D01*
X131566D01*
Y41547D01*
X131600D01*
Y41512D01*
X131670D01*
Y41477D01*
X131774D01*
Y41512D01*
X131878D01*
Y41547D01*
X131913D01*
Y41581D01*
X131947D01*
Y41616D01*
X131982D01*
Y41685D01*
X132017D01*
Y41894D01*
X131982D01*
Y41963D01*
X131947D01*
Y41998D01*
X131913D01*
Y42032D01*
X131843D01*
Y42067D01*
D02*
G37*
%LPD*%
G36*
X125044Y42414D02*
X125148D01*
Y42379D01*
X125218D01*
Y42344D01*
X125287D01*
Y42310D01*
X125322D01*
Y42275D01*
X125391D01*
Y42240D01*
X125426D01*
Y42206D01*
X125461D01*
Y42171D01*
X125495D01*
Y42136D01*
X125530D01*
Y42067D01*
X125565D01*
Y42032D01*
X125599D01*
Y41963D01*
X125634D01*
Y41894D01*
X125669D01*
Y41789D01*
X125703D01*
Y41304D01*
X125669D01*
Y41200D01*
X125634D01*
Y41165D01*
Y41130D01*
X125599D01*
Y41061D01*
X125565D01*
Y41026D01*
X125530D01*
Y40957D01*
X125495D01*
Y40922D01*
X125461D01*
Y40888D01*
X125426D01*
Y40853D01*
X125391D01*
Y40818D01*
X125322D01*
Y40784D01*
X125287D01*
Y40749D01*
X125218D01*
Y40714D01*
X125183D01*
Y40679D01*
X125044D01*
Y40645D01*
X124836D01*
Y40610D01*
X124767D01*
Y40645D01*
X124559D01*
Y40679D01*
X124454D01*
Y40714D01*
X124385D01*
Y40749D01*
X124351D01*
Y40784D01*
X124281D01*
Y40818D01*
X124246D01*
Y40853D01*
X124212D01*
Y40888D01*
X124177D01*
Y40922D01*
X124142D01*
Y40957D01*
X124108D01*
Y40992D01*
X124073D01*
Y41061D01*
X124038D01*
Y41096D01*
X124004D01*
Y41200D01*
X123969D01*
Y41304D01*
X123934D01*
Y41477D01*
X123899D01*
Y41651D01*
X123934D01*
Y41824D01*
X123969D01*
Y41894D01*
X124004D01*
Y41963D01*
X124038D01*
Y42032D01*
X124073D01*
Y42067D01*
X124108D01*
Y42136D01*
X124142D01*
Y42171D01*
X124177D01*
Y42206D01*
X124212D01*
Y42240D01*
X124246D01*
Y42275D01*
X124316D01*
Y42310D01*
X124351D01*
Y42344D01*
X124420D01*
Y42379D01*
X124489D01*
Y42414D01*
X124628D01*
Y42449D01*
X125044D01*
Y42414D01*
D02*
G37*
%LPC*%
G36*
X125114Y42067D02*
X124906D01*
Y42032D01*
X124836D01*
Y41998D01*
X124767D01*
Y41963D01*
Y41928D01*
X124732D01*
Y41859D01*
X124697D01*
Y41720D01*
X124732D01*
Y41651D01*
X124767D01*
Y41581D01*
X124801D01*
Y41547D01*
X124871D01*
Y41512D01*
X124975D01*
Y41477D01*
X125044D01*
Y41512D01*
X125148D01*
Y41547D01*
X125183D01*
Y41581D01*
X125218D01*
Y41616D01*
X125252D01*
Y41685D01*
X125287D01*
Y41859D01*
X125252D01*
Y41928D01*
X125218D01*
Y41998D01*
X125183D01*
Y42032D01*
X125114D01*
Y42067D01*
D02*
G37*
G36*
X144123Y33291D02*
X143811D01*
Y33256D01*
X143638D01*
Y33221D01*
X143534D01*
Y33187D01*
X143464D01*
Y33152D01*
X143395D01*
Y33117D01*
X143325D01*
Y33083D01*
X143291D01*
Y33048D01*
X143221D01*
Y33013D01*
X143187D01*
Y32978D01*
X143152D01*
Y32944D01*
X143117D01*
Y32909D01*
X143082D01*
Y32874D01*
X143048D01*
Y32840D01*
X143013D01*
Y32770D01*
X142979D01*
Y32736D01*
X142944D01*
Y32666D01*
X142909D01*
Y32597D01*
X142874D01*
Y32528D01*
X142840D01*
Y32458D01*
X142805D01*
Y32319D01*
X142770D01*
Y31868D01*
X142805D01*
Y31730D01*
X142840D01*
Y31626D01*
X142874D01*
Y31556D01*
X142909D01*
Y31487D01*
X142944D01*
Y31418D01*
X142979D01*
Y31383D01*
X143013D01*
Y31313D01*
X143048D01*
Y31279D01*
X143082D01*
Y31244D01*
X143117D01*
Y31209D01*
X143152D01*
Y31175D01*
X143187D01*
Y31140D01*
X143221D01*
Y31105D01*
X143291D01*
Y31071D01*
X143325D01*
Y31036D01*
X143395D01*
Y31001D01*
X143464D01*
Y30966D01*
X143534D01*
Y30932D01*
X143638D01*
Y30897D01*
X143846D01*
Y30862D01*
X144088D01*
Y30897D01*
X144262D01*
Y30932D01*
X144366D01*
Y30966D01*
X144435D01*
Y31001D01*
X144505D01*
Y31036D01*
X144574D01*
Y31071D01*
X144643D01*
Y31105D01*
X144678D01*
Y31140D01*
X144713D01*
Y31175D01*
X144748D01*
Y31209D01*
X144782D01*
Y31244D01*
X144817D01*
Y31279D01*
X144852D01*
Y31313D01*
X144886D01*
Y31348D01*
X144921D01*
Y31383D01*
X144956D01*
Y31452D01*
X144990D01*
Y31521D01*
X145025D01*
Y31591D01*
X145060D01*
Y31695D01*
X145095D01*
Y31799D01*
X145129D01*
Y31834D01*
Y31868D01*
Y32354D01*
X145095D01*
Y32458D01*
X145060D01*
Y32562D01*
X145025D01*
Y32632D01*
X144990D01*
Y32701D01*
X144956D01*
Y32736D01*
X144921D01*
Y32805D01*
X144886D01*
Y32840D01*
X144852D01*
Y32874D01*
X144817D01*
Y32909D01*
X144782D01*
Y32944D01*
X144748D01*
Y32978D01*
X144713D01*
Y33013D01*
X144678D01*
Y33048D01*
X144643D01*
Y33083D01*
X144574D01*
Y33117D01*
X144539D01*
Y33152D01*
X144470D01*
Y33187D01*
X144366D01*
Y33221D01*
X144297D01*
Y33256D01*
X144123D01*
Y33291D01*
D02*
G37*
G36*
X145268Y29891D02*
X145199D01*
Y29267D01*
X145164D01*
Y28920D01*
X145199D01*
Y28885D01*
X145268D01*
Y28850D01*
X145441D01*
Y28816D01*
X145719D01*
Y28850D01*
X145892D01*
Y28885D01*
X146031D01*
Y28920D01*
X146100D01*
Y28955D01*
X146170D01*
Y28989D01*
X146204D01*
Y29059D01*
X146170D01*
Y29128D01*
X146135D01*
Y29197D01*
X146100D01*
Y29232D01*
X146066D01*
Y29267D01*
X146031D01*
Y29336D01*
X145996D01*
Y29371D01*
X145962D01*
Y29406D01*
X145927D01*
Y29440D01*
X145892D01*
Y29475D01*
X145858D01*
Y29510D01*
X145788D01*
Y29544D01*
X145754D01*
Y29579D01*
X145719D01*
Y29614D01*
X145684D01*
Y29648D01*
X145615D01*
Y29683D01*
X145580D01*
Y29718D01*
X145545D01*
Y29752D01*
X145476D01*
Y29787D01*
X145407D01*
Y29822D01*
X145372D01*
Y29857D01*
X145268D01*
Y29891D01*
D02*
G37*
G36*
X146551Y32111D02*
X146517D01*
Y32077D01*
X146413D01*
Y32042D01*
X146378D01*
Y32007D01*
X146309D01*
Y31973D01*
X146239D01*
Y31938D01*
X146204D01*
Y31903D01*
X146170D01*
Y31868D01*
X146135D01*
Y31834D01*
X146100D01*
Y31799D01*
X146066D01*
Y31764D01*
X146031D01*
Y31730D01*
X145996D01*
Y31695D01*
X145962D01*
Y31660D01*
X145927D01*
Y31626D01*
X145892D01*
Y31591D01*
X145858D01*
Y31521D01*
X145823D01*
Y31487D01*
X145788D01*
Y31452D01*
X145754D01*
Y31383D01*
X145719D01*
Y31348D01*
X145684D01*
Y31279D01*
X145650D01*
Y31244D01*
X145615D01*
Y31175D01*
X145580D01*
Y31105D01*
X145545D01*
Y31036D01*
X145511D01*
Y30966D01*
X145476D01*
Y30897D01*
X145441D01*
Y30828D01*
X145407D01*
Y30758D01*
X145372D01*
Y30689D01*
X145337D01*
Y30585D01*
X145303D01*
Y30446D01*
X145268D01*
Y30342D01*
X145303D01*
Y30307D01*
X145337D01*
Y30273D01*
X145407D01*
Y30238D01*
X145476D01*
Y30203D01*
X145511D01*
Y30169D01*
X145580D01*
Y30134D01*
X145615D01*
Y30099D01*
X145684D01*
Y30065D01*
X145754D01*
Y30030D01*
X145788D01*
Y29995D01*
X145858D01*
Y29961D01*
X145892D01*
Y29926D01*
X145927D01*
Y29891D01*
X145996D01*
Y29857D01*
X146031D01*
Y29822D01*
X146066D01*
Y29787D01*
X146100D01*
Y29752D01*
X146135D01*
Y29718D01*
X146170D01*
Y29683D01*
X146204D01*
Y29648D01*
X146239D01*
Y29614D01*
X146274D01*
Y29579D01*
X146309D01*
Y29544D01*
X146343D01*
Y29510D01*
X146378D01*
Y29440D01*
X146413D01*
Y29406D01*
X146447D01*
Y29336D01*
X146482D01*
Y29301D01*
X146517D01*
Y29232D01*
X146551D01*
Y29163D01*
X146586D01*
Y29093D01*
X146621D01*
Y28989D01*
X146655D01*
Y28920D01*
X146690D01*
Y28816D01*
X146725D01*
Y28746D01*
X146794D01*
Y28816D01*
X146829D01*
Y28850D01*
X146864D01*
Y28885D01*
X146898D01*
Y28955D01*
X146933D01*
Y29024D01*
X146968D01*
Y29059D01*
X147002D01*
Y29128D01*
X147037D01*
Y29197D01*
X147072D01*
Y29301D01*
X147107D01*
Y29371D01*
X147141D01*
Y29475D01*
X147176D01*
Y29579D01*
X147211D01*
Y29683D01*
X147245D01*
Y29857D01*
X147280D01*
Y30134D01*
X147315D01*
Y30516D01*
X147280D01*
Y30793D01*
X147245D01*
Y30966D01*
X147211D01*
Y31071D01*
X147176D01*
Y31175D01*
X147141D01*
Y31279D01*
X147107D01*
Y31383D01*
X147072D01*
Y31452D01*
X147037D01*
Y31521D01*
X147002D01*
Y31591D01*
X146968D01*
Y31660D01*
X146933D01*
Y31695D01*
X146898D01*
Y31764D01*
X146864D01*
Y31799D01*
X146829D01*
Y31868D01*
X146794D01*
Y31903D01*
X146760D01*
Y31938D01*
X146725D01*
Y31973D01*
X146690D01*
Y32007D01*
X146655D01*
Y32042D01*
X146621D01*
Y32077D01*
X146551D01*
Y32111D01*
D02*
G37*
G36*
X141938Y31383D02*
X141452D01*
Y31348D01*
X141313D01*
Y31313D01*
X141175D01*
Y31279D01*
X141071D01*
Y31244D01*
X141001D01*
Y31209D01*
X140932D01*
Y31175D01*
X140862D01*
Y31140D01*
X140828D01*
Y31105D01*
X140758D01*
Y31071D01*
X140724D01*
Y31036D01*
X140654D01*
Y31001D01*
X140620D01*
Y30966D01*
X140585D01*
Y30932D01*
X140550D01*
Y30897D01*
X140516D01*
Y30862D01*
X140481D01*
Y30828D01*
X140446D01*
Y30758D01*
X140411D01*
Y30724D01*
X140377D01*
Y30689D01*
X140342D01*
Y30620D01*
X140307D01*
Y30550D01*
X140273D01*
Y30516D01*
X140238D01*
Y30411D01*
X140203D01*
Y30342D01*
X140169D01*
Y30238D01*
X140134D01*
Y30099D01*
X140099D01*
Y29891D01*
X140065D01*
Y29544D01*
X140099D01*
Y29336D01*
X140134D01*
Y29232D01*
X140169D01*
Y29128D01*
X140203D01*
Y29024D01*
X140238D01*
Y28955D01*
X140273D01*
Y28920D01*
X140307D01*
Y28850D01*
X140342D01*
Y28781D01*
X140377D01*
Y28746D01*
X140411D01*
Y28712D01*
X140446D01*
Y28677D01*
X140481D01*
Y28608D01*
X140516D01*
Y28573D01*
X140550D01*
Y28538D01*
X140585D01*
Y28504D01*
X140654D01*
Y28469D01*
X140689D01*
Y28434D01*
X140724D01*
Y28400D01*
X140793D01*
Y28365D01*
X140828D01*
Y28330D01*
X140897D01*
Y28295D01*
X140966D01*
Y28261D01*
X141036D01*
Y28226D01*
X141105D01*
Y28191D01*
X141175D01*
Y28157D01*
X141313D01*
Y28122D01*
X141487D01*
Y28087D01*
X141938D01*
Y28122D01*
X142111D01*
Y28157D01*
X142215D01*
Y28191D01*
X142319D01*
Y28226D01*
X142389D01*
Y28261D01*
X142458D01*
Y28295D01*
X142527D01*
Y28330D01*
X142562D01*
Y28365D01*
X142632D01*
Y28400D01*
X142666D01*
Y28434D01*
X142701D01*
Y28469D01*
X142736D01*
Y28504D01*
X142805D01*
Y28538D01*
X142840D01*
Y28573D01*
X142874D01*
Y28608D01*
X142909D01*
Y28642D01*
X142944D01*
Y28712D01*
X142979D01*
Y28746D01*
X143013D01*
Y28781D01*
X143048D01*
Y28850D01*
X143082D01*
Y28920D01*
X143117D01*
Y28955D01*
X143152D01*
Y29024D01*
X143187D01*
Y29128D01*
X143221D01*
Y29197D01*
X143256D01*
Y29336D01*
X143291D01*
Y29510D01*
X143325D01*
Y29961D01*
X143291D01*
Y30134D01*
X143256D01*
Y30273D01*
X143221D01*
Y30342D01*
X143187D01*
Y30411D01*
X143152D01*
Y30481D01*
X143117D01*
Y30550D01*
X143082D01*
Y30620D01*
X143048D01*
Y30654D01*
X143013D01*
Y30724D01*
X142979D01*
Y30758D01*
X142944D01*
Y30793D01*
X142909D01*
Y30828D01*
X142874D01*
Y30862D01*
X142840D01*
Y30897D01*
X142805D01*
Y30932D01*
X142770D01*
Y30966D01*
X142736D01*
Y31001D01*
X142701D01*
Y31036D01*
X142666D01*
Y31071D01*
X142632D01*
Y31105D01*
X142562D01*
Y31140D01*
X142493D01*
Y31175D01*
X142458D01*
Y31209D01*
X142389D01*
Y31244D01*
X142319D01*
Y31279D01*
X142215D01*
Y31313D01*
X142111D01*
Y31348D01*
X141938D01*
Y31383D01*
D02*
G37*
%LPD*%
G36*
X144158Y32736D02*
X144262D01*
Y32701D01*
X144297D01*
Y32666D01*
X144366D01*
Y32632D01*
X144401D01*
Y32597D01*
X144435D01*
Y32562D01*
X144470D01*
Y32528D01*
X144505D01*
Y32493D01*
X144539D01*
Y32423D01*
X144574D01*
Y32354D01*
X144609D01*
Y32250D01*
X144643D01*
Y31868D01*
X144609D01*
Y31799D01*
X144574D01*
Y31730D01*
X144539D01*
Y31660D01*
X144505D01*
Y31626D01*
X144470D01*
Y31591D01*
X144435D01*
Y31556D01*
X144401D01*
Y31521D01*
X144366D01*
Y31487D01*
X144297D01*
Y31452D01*
X144227D01*
Y31418D01*
X144123D01*
Y31383D01*
X143811D01*
Y31418D01*
X143672D01*
Y31452D01*
X143603D01*
Y31487D01*
X143568D01*
Y31521D01*
X143534D01*
Y31556D01*
X143464D01*
Y31591D01*
X143429D01*
Y31660D01*
X143395D01*
Y31695D01*
X143360D01*
Y31764D01*
X143325D01*
Y31834D01*
X143291D01*
Y31973D01*
X143256D01*
Y32181D01*
X143291D01*
Y32319D01*
X143325D01*
Y32389D01*
X143360D01*
Y32458D01*
X143395D01*
Y32493D01*
X143429D01*
Y32562D01*
X143464D01*
Y32597D01*
X143499D01*
Y32632D01*
X143568D01*
Y32666D01*
X143603D01*
Y32701D01*
X143672D01*
Y32736D01*
X143742D01*
Y32770D01*
X144158D01*
Y32736D01*
D02*
G37*
%LPC*%
G36*
X144123Y32493D02*
X144088D01*
Y32458D01*
X143984D01*
Y32423D01*
X143950D01*
Y32389D01*
X143915D01*
Y32354D01*
X143880D01*
Y32146D01*
X143915D01*
Y32077D01*
X143984D01*
Y32042D01*
X144019D01*
Y32007D01*
X144193D01*
Y32042D01*
X144227D01*
Y32077D01*
X144262D01*
Y32111D01*
X144297D01*
Y32146D01*
X144331D01*
Y32354D01*
X144297D01*
Y32389D01*
X144262D01*
Y32423D01*
X144227D01*
Y32458D01*
X144123D01*
Y32493D01*
D02*
G37*
%LPD*%
D16*
X195213Y60700D02*
D03*
X202300D02*
D03*
X195157Y72100D02*
D03*
X202243D02*
D03*
D17*
X181300Y19231D02*
D03*
Y24169D02*
D03*
X45000Y80260D02*
D03*
Y85000D02*
D03*
Y70000D02*
D03*
Y74740D02*
D03*
Y25000D02*
D03*
Y29740D02*
D03*
Y14630D02*
D03*
Y19370D02*
D03*
D19*
X75000Y54800D02*
D03*
X77981D02*
D03*
D20*
X58000Y36500D02*
D03*
Y39481D02*
D03*
D21*
X116900Y54284D02*
D03*
Y65116D02*
D03*
Y70984D02*
D03*
Y81816D02*
D03*
X181300Y29184D02*
D03*
Y40016D02*
D03*
D22*
X90284Y47900D02*
D03*
X101116D02*
D03*
X90184Y59600D02*
D03*
X101016D02*
D03*
D23*
X53182Y71500D02*
D03*
X57218D02*
D03*
X53182Y76500D02*
D03*
X57218D02*
D03*
X213282Y83700D02*
D03*
X217318D02*
D03*
X213282Y78500D02*
D03*
X217318D02*
D03*
D24*
X73300Y60000D02*
D03*
X79812D02*
D03*
X48300Y55500D02*
D03*
X54812D02*
D03*
X48344Y62600D02*
D03*
X54856D02*
D03*
X86244Y79200D02*
D03*
X92756D02*
D03*
X44988Y38000D02*
D03*
X51500D02*
D03*
X261444Y15100D02*
D03*
X267956D02*
D03*
X255444Y83600D02*
D03*
X261956D02*
D03*
X52044Y82900D02*
D03*
X58556D02*
D03*
D25*
X64600Y54544D02*
D03*
Y61056D02*
D03*
X281500Y86756D02*
D03*
Y80244D02*
D03*
X175900Y71900D02*
D03*
Y78412D02*
D03*
D27*
X151831Y70768D02*
D03*
Y79232D02*
D03*
X168169Y70768D02*
D03*
Y79232D02*
D03*
X151831Y20768D02*
D03*
Y29232D02*
D03*
X168169Y20768D02*
D03*
Y29232D02*
D03*
D28*
X184169Y60500D02*
D03*
X188500D02*
D03*
X183900Y72400D02*
D03*
X188231D02*
D03*
D29*
X36100Y77150D02*
D03*
Y79650D02*
D03*
X35900Y18950D02*
D03*
Y16450D02*
D03*
X36100Y72050D02*
D03*
Y69550D02*
D03*
X35900Y26050D02*
D03*
Y28550D02*
D03*
D30*
X35100Y34800D02*
D03*
X37600D02*
D03*
X35350Y62200D02*
D03*
X37850D02*
D03*
D31*
X25264Y19087D02*
D03*
Y17118D02*
D03*
Y21055D02*
D03*
Y28929D02*
D03*
Y30898D02*
D03*
Y24992D02*
D03*
Y23024D02*
D03*
Y26961D02*
D03*
Y71071D02*
D03*
Y69102D02*
D03*
Y73039D02*
D03*
Y80913D02*
D03*
Y82882D02*
D03*
Y76976D02*
D03*
Y75008D02*
D03*
Y78945D02*
D03*
D32*
Y11409D02*
D03*
Y14559D02*
D03*
Y36606D02*
D03*
Y33457D02*
D03*
Y63394D02*
D03*
Y66543D02*
D03*
Y88591D02*
D03*
Y85441D02*
D03*
D33*
X132424Y55960D02*
D03*
Y63440D02*
D03*
X140376Y59700D02*
D03*
X132524Y72660D02*
D03*
Y80140D02*
D03*
X140476Y76400D02*
D03*
D34*
X63459Y71063D02*
D03*
Y76968D02*
D03*
Y73032D02*
D03*
Y75000D02*
D03*
Y78937D02*
D03*
X78541Y71063D02*
D03*
Y76968D02*
D03*
Y73032D02*
D03*
Y75000D02*
D03*
Y78937D02*
D03*
D35*
X67063Y67459D02*
D03*
Y82541D02*
D03*
X72969Y67459D02*
D03*
X74937D02*
D03*
X69032D02*
D03*
X71000D02*
D03*
X69032Y82541D02*
D03*
X72969D02*
D03*
X71000D02*
D03*
D36*
X74937D02*
D03*
D43*
X58300Y21255D02*
D03*
Y27345D02*
D03*
X52000Y21255D02*
D03*
Y27345D02*
D03*
D44*
X267455Y83300D02*
D03*
X273545D02*
D03*
D45*
X89655Y67886D02*
D03*
X93002D02*
D03*
X73853Y48900D02*
D03*
X77200D02*
D03*
D03*
X80546D02*
D03*
X84953Y85600D02*
D03*
X88300D02*
D03*
X210653Y14300D02*
D03*
X214000D02*
D03*
X218527D02*
D03*
X221873D02*
D03*
X212154Y49600D02*
D03*
X215500D02*
D03*
X212154Y43000D02*
D03*
X215500D02*
D03*
Y49600D02*
D03*
X218847D02*
D03*
X215500Y43000D02*
D03*
X218847D02*
D03*
D46*
X59500Y58754D02*
D03*
Y62100D02*
D03*
D47*
X71000Y75000D02*
D03*
D48*
X65697Y19945D02*
D03*
Y38055D02*
D03*
Y29000D02*
D03*
D49*
X90303D02*
D03*
D50*
X226882Y27921D02*
D03*
Y34614D02*
D03*
Y31268D02*
D03*
Y24575D02*
D03*
Y37961D02*
D03*
Y44653D02*
D03*
Y41307D02*
D03*
Y58039D02*
D03*
Y64732D02*
D03*
Y61386D02*
D03*
Y48000D02*
D03*
Y54693D02*
D03*
Y51346D02*
D03*
Y68079D02*
D03*
Y71425D02*
D03*
X282000Y44653D02*
D03*
Y34614D02*
D03*
Y41307D02*
D03*
Y37961D02*
D03*
Y24575D02*
D03*
Y31268D02*
D03*
Y27921D02*
D03*
Y58039D02*
D03*
Y64732D02*
D03*
Y61386D02*
D03*
Y48000D02*
D03*
Y54693D02*
D03*
Y51346D02*
D03*
Y71425D02*
D03*
Y68079D02*
D03*
D51*
X231016Y20441D02*
D03*
X244402D02*
D03*
X254441D02*
D03*
X247748D02*
D03*
X251095D02*
D03*
X234362D02*
D03*
X237709D02*
D03*
X241055D02*
D03*
X237709Y75559D02*
D03*
X231016D02*
D03*
X234362D02*
D03*
X254441D02*
D03*
X257787D02*
D03*
X241055D02*
D03*
X251095D02*
D03*
X244402D02*
D03*
X247748D02*
D03*
X267827Y20441D02*
D03*
X261134D02*
D03*
X264480D02*
D03*
X277866D02*
D03*
X271173D02*
D03*
X274520D02*
D03*
X257787D02*
D03*
X274520Y75559D02*
D03*
X267827D02*
D03*
X261134D02*
D03*
X264480D02*
D03*
X271173D02*
D03*
X277866D02*
D03*
D52*
X226882Y20441D02*
D03*
Y75559D02*
D03*
X282000Y20441D02*
D03*
Y75559D02*
D03*
D53*
X247945Y41504D02*
D03*
X254441D02*
D03*
X247945Y48000D02*
D03*
Y54496D02*
D03*
X254441D02*
D03*
Y48000D02*
D03*
X260937Y41504D02*
D03*
Y48000D02*
D03*
D54*
X123000Y94000D02*
D03*
X53000D02*
D03*
X133000D02*
D03*
X83000D02*
D03*
X93000D02*
D03*
X43000D02*
D03*
X73000D02*
D03*
X63000D02*
D03*
X103000D02*
D03*
X113000D02*
D03*
X243000D02*
D03*
X253000D02*
D03*
X213000D02*
D03*
X233000D02*
D03*
X223000D02*
D03*
X263000D02*
D03*
X273000D02*
D03*
X173000D02*
D03*
X143000D02*
D03*
X163000D02*
D03*
X153000D02*
D03*
X183000D02*
D03*
X203000D02*
D03*
X193000D02*
D03*
X123000Y6000D02*
D03*
X43000D02*
D03*
X133000D02*
D03*
X83000D02*
D03*
X93000D02*
D03*
X53000D02*
D03*
X73000D02*
D03*
X63000D02*
D03*
X103000D02*
D03*
X113000D02*
D03*
X243000D02*
D03*
X253000D02*
D03*
X213000D02*
D03*
X233000D02*
D03*
X223000D02*
D03*
X273000D02*
D03*
X263000D02*
D03*
X173000D02*
D03*
X143000D02*
D03*
X163000D02*
D03*
X153000D02*
D03*
X183000D02*
D03*
X203000D02*
D03*
X193000D02*
D03*
D55*
X7252Y7000D02*
D03*
Y41016D02*
D03*
Y58984D02*
D03*
Y93000D02*
D03*
D56*
X23000Y7000D02*
D03*
Y41016D02*
D03*
Y58984D02*
D03*
Y93000D02*
D03*
D57*
X37500Y44500D02*
D03*
Y49500D02*
D03*
X162500Y50000D02*
D03*
D58*
X37500Y54500D02*
D03*
D59*
X157500Y50000D02*
D03*
M02*
