G04*
G04 #@! TF.GenerationSoftware,Altium Limited,Altium Designer,26.9.1 (10)*
G04*
G04 Layer_Color=32896*
G04 Board_Origin=100000000|100000000*
%FSLAX25Y25*%
%MOIN*%
G70*
G04*
G04 #@! TF.SameCoordinates,6EF0B23D-BCFA-4A29-A2E0-F4787A1BABFB*
G04*
G04*
G04 #@! TF.FilePolarity,Positive*
G04*
G01*
G75*
%ADD11C,0.02000*%
%ADD13C,0.00600*%
%ADD82C,0.01000*%
D11*
X283500Y94000D02*
G03*
X283500Y94000I-1500J0D01*
G01*
Y6000D02*
G03*
X283500Y6000I-1500J0D01*
G01*
D13*
X271100Y28099D02*
X273099Y26100D01*
X275099Y28099D01*
X273099Y30099D02*
Y32765D01*
Y34097D02*
Y36763D01*
Y38096D02*
Y40762D01*
X271100Y42095D02*
X275099D01*
Y44094D01*
X274432Y44761D01*
X273099D01*
X272433Y44094D01*
Y42095D01*
X275099Y46093D02*
Y47426D01*
Y46760D01*
X271100D01*
Y46093D01*
Y47426D01*
Y49426D02*
X275099D01*
X271100Y52092D01*
X275099D01*
X271100Y53425D02*
Y54757D01*
Y54091D01*
X275099D01*
X274432Y53425D01*
X273099Y56757D02*
Y59423D01*
Y60755D02*
Y63421D01*
Y64754D02*
Y67420D01*
X271100Y68753D02*
X273099Y70752D01*
X275099Y68753D01*
X95099Y74100D02*
Y75433D01*
Y74766D01*
X91100D01*
Y74100D01*
Y75433D01*
X95099Y79432D02*
Y78099D01*
X94432Y77432D01*
X91766D01*
X91100Y78099D01*
Y79432D01*
X91766Y80098D01*
X94432D01*
X95099Y79432D01*
X91100Y81431D02*
Y82764D01*
Y82097D01*
X95099D01*
X94432Y81431D01*
X95099Y87429D02*
X94432Y86096D01*
X93099Y84763D01*
X91766D01*
X91100Y85430D01*
Y86763D01*
X91766Y87429D01*
X92433D01*
X93099Y86763D01*
Y84763D01*
X45599Y12600D02*
Y13933D01*
Y13266D01*
X41600D01*
Y12600D01*
Y13933D01*
X45599Y17932D02*
Y16599D01*
X44932Y15932D01*
X42266D01*
X41600Y16599D01*
Y17932D01*
X42266Y18598D01*
X44932D01*
X45599Y17932D01*
X41600Y21930D02*
X45599D01*
X43599Y19931D01*
Y22597D01*
X45599Y26596D02*
X44932Y25263D01*
X43599Y23930D01*
X42266D01*
X41600Y24596D01*
Y25929D01*
X42266Y26596D01*
X42933D01*
X43599Y25929D01*
Y23930D01*
X55599Y12600D02*
Y13933D01*
Y13266D01*
X51600D01*
Y12600D01*
Y13933D01*
X55599Y17932D02*
Y16599D01*
X54932Y15932D01*
X52266D01*
X51600Y16599D01*
Y17932D01*
X52266Y18598D01*
X54932D01*
X55599Y17932D01*
X51600Y21930D02*
X55599D01*
X53599Y19931D01*
Y22597D01*
X55599Y23930D02*
Y26596D01*
X54932D01*
X52266Y23930D01*
X51600D01*
X75099Y12600D02*
X71766D01*
X71100Y13266D01*
Y14599D01*
X71766Y15266D01*
X75099D01*
X74432Y19264D02*
X75099Y18598D01*
Y17265D01*
X74432Y16599D01*
X73766D01*
X73099Y17265D01*
Y18598D01*
X72433Y19264D01*
X71766D01*
X71100Y18598D01*
Y17265D01*
X71766Y16599D01*
X75099Y20597D02*
X71100D01*
Y22597D01*
X71766Y23263D01*
X72433D01*
X73099Y22597D01*
Y20597D01*
Y22597D01*
X73766Y23263D01*
X74432D01*
X75099Y22597D01*
Y20597D01*
X73099Y24596D02*
Y27262D01*
X65099Y12600D02*
Y13933D01*
Y13266D01*
X61100D01*
Y12600D01*
Y13933D01*
X65099Y17932D02*
Y16599D01*
X64432Y15932D01*
X61766D01*
X61100Y16599D01*
Y17932D01*
X61766Y18598D01*
X64432D01*
X65099Y17932D01*
X61100Y21930D02*
X65099D01*
X63099Y19931D01*
Y22597D01*
X64432Y23930D02*
X65099Y24596D01*
Y25929D01*
X64432Y26596D01*
X63766D01*
X63099Y25929D01*
X62433Y26596D01*
X61766D01*
X61100Y25929D01*
Y24596D01*
X61766Y23930D01*
X62433D01*
X63099Y24596D01*
X63766Y23930D01*
X64432D01*
X63099Y24596D02*
Y25929D01*
X95099Y12600D02*
Y13933D01*
Y13266D01*
X91100D01*
Y12600D01*
Y13933D01*
X95099Y17932D02*
Y16599D01*
X94432Y15932D01*
X91766D01*
X91100Y16599D01*
Y17932D01*
X91766Y18598D01*
X94432D01*
X95099Y17932D01*
X91100Y22597D02*
Y19931D01*
X93766Y22597D01*
X94432D01*
X95099Y21930D01*
Y20597D01*
X94432Y19931D01*
X91100Y23930D02*
Y25263D01*
Y24596D01*
X95099D01*
X94432Y23930D01*
X85099Y12600D02*
X81766D01*
X81100Y13266D01*
Y14599D01*
X81766Y15266D01*
X85099D01*
X84432Y19264D02*
X85099Y18598D01*
Y17265D01*
X84432Y16599D01*
X83766D01*
X83099Y17265D01*
Y18598D01*
X82433Y19264D01*
X81766D01*
X81100Y18598D01*
Y17265D01*
X81766Y16599D01*
X85099Y20597D02*
X81100D01*
Y22597D01*
X81766Y23263D01*
X82433D01*
X83099Y22597D01*
Y20597D01*
Y22597D01*
X83766Y23263D01*
X84432D01*
X85099Y22597D01*
Y20597D01*
X83099Y24596D02*
Y27262D01*
X84432Y25929D02*
X81766D01*
X115099Y12600D02*
Y13933D01*
Y13266D01*
X111100D01*
Y12600D01*
Y13933D01*
X115099Y17932D02*
Y16599D01*
X114432Y15932D01*
X111767D01*
X111100Y16599D01*
Y17932D01*
X111767Y18598D01*
X114432D01*
X115099Y17932D01*
X114432Y19931D02*
X115099Y20597D01*
Y21930D01*
X114432Y22597D01*
X113766D01*
X113099Y21930D01*
Y21264D01*
Y21930D01*
X112433Y22597D01*
X111767D01*
X111100Y21930D01*
Y20597D01*
X111767Y19931D01*
X114432Y23930D02*
X115099Y24596D01*
Y25929D01*
X114432Y26596D01*
X113766D01*
X113099Y25929D01*
Y25263D01*
Y25929D01*
X112433Y26596D01*
X111767D01*
X111100Y25929D01*
Y24596D01*
X111767Y23930D01*
X105099Y12600D02*
Y13933D01*
Y13266D01*
X101100D01*
Y12600D01*
Y13933D01*
X105099Y17932D02*
Y16599D01*
X104432Y15932D01*
X101766D01*
X101100Y16599D01*
Y17932D01*
X101766Y18598D01*
X104432D01*
X105099Y17932D01*
X101100Y22597D02*
Y19931D01*
X103766Y22597D01*
X104432D01*
X105099Y21930D01*
Y20597D01*
X104432Y19931D01*
X105099Y26596D02*
X104432Y25263D01*
X103099Y23930D01*
X101766D01*
X101100Y24596D01*
Y25929D01*
X101766Y26596D01*
X102433D01*
X103099Y25929D01*
Y23930D01*
X135099Y12600D02*
Y13933D01*
Y13266D01*
X131100D01*
Y12600D01*
Y13933D01*
X135099Y17932D02*
Y16599D01*
X134432Y15932D01*
X131766D01*
X131100Y16599D01*
Y17932D01*
X131766Y18598D01*
X134432D01*
X135099Y17932D01*
X134432Y19931D02*
X135099Y20597D01*
Y21930D01*
X134432Y22597D01*
X133766D01*
X133099Y21930D01*
Y21264D01*
Y21930D01*
X132433Y22597D01*
X131766D01*
X131100Y21930D01*
Y20597D01*
X131766Y19931D01*
X135099Y26596D02*
Y23930D01*
X133099D01*
X133766Y25263D01*
Y25929D01*
X133099Y26596D01*
X131766D01*
X131100Y25929D01*
Y24596D01*
X131766Y23930D01*
X125099Y12600D02*
Y13933D01*
Y13266D01*
X121100D01*
Y12600D01*
Y13933D01*
X125099Y17932D02*
Y16599D01*
X124432Y15932D01*
X121766D01*
X121100Y16599D01*
Y17932D01*
X121766Y18598D01*
X124432D01*
X125099Y17932D01*
X124432Y19931D02*
X125099Y20597D01*
Y21930D01*
X124432Y22597D01*
X123766D01*
X123099Y21930D01*
Y21264D01*
Y21930D01*
X122433Y22597D01*
X121766D01*
X121100Y21930D01*
Y20597D01*
X121766Y19931D01*
X121100Y25929D02*
X125099D01*
X123099Y23930D01*
Y26596D01*
X165599Y12600D02*
Y13933D01*
Y13266D01*
X161600D01*
Y12600D01*
Y13933D01*
X165599Y17932D02*
Y16599D01*
X164932Y15932D01*
X162267D01*
X161600Y16599D01*
Y17932D01*
X162267Y18598D01*
X164932D01*
X165599Y17932D01*
X164932Y19931D02*
X165599Y20597D01*
Y21930D01*
X164932Y22597D01*
X164266D01*
X163599Y21930D01*
Y21264D01*
Y21930D01*
X162933Y22597D01*
X162267D01*
X161600Y21930D01*
Y20597D01*
X162267Y19931D01*
X164932Y23930D02*
X165599Y24596D01*
Y25929D01*
X164932Y26596D01*
X164266D01*
X163599Y25929D01*
X162933Y26596D01*
X162267D01*
X161600Y25929D01*
Y24596D01*
X162267Y23930D01*
X162933D01*
X163599Y24596D01*
X164266Y23930D01*
X164932D01*
X163599Y24596D02*
Y25929D01*
X175599Y12600D02*
Y13933D01*
Y13266D01*
X171600D01*
Y12600D01*
Y13933D01*
X175599Y17932D02*
Y16599D01*
X174932Y15932D01*
X172266D01*
X171600Y16599D01*
Y17932D01*
X172266Y18598D01*
X174932D01*
X175599Y17932D01*
X174932Y19931D02*
X175599Y20597D01*
Y21930D01*
X174932Y22597D01*
X174266D01*
X173599Y21930D01*
Y21264D01*
Y21930D01*
X172933Y22597D01*
X172266D01*
X171600Y21930D01*
Y20597D01*
X172266Y19931D01*
Y23930D02*
X171600Y24596D01*
Y25929D01*
X172266Y26596D01*
X174932D01*
X175599Y25929D01*
Y24596D01*
X174932Y23930D01*
X174266D01*
X173599Y24596D01*
Y26596D01*
X145599Y12600D02*
Y13933D01*
Y13266D01*
X141600D01*
Y12600D01*
Y13933D01*
X145599Y17932D02*
Y16599D01*
X144932Y15932D01*
X142266D01*
X141600Y16599D01*
Y17932D01*
X142266Y18598D01*
X144932D01*
X145599Y17932D01*
X144932Y19931D02*
X145599Y20597D01*
Y21930D01*
X144932Y22597D01*
X144266D01*
X143599Y21930D01*
Y21264D01*
Y21930D01*
X142933Y22597D01*
X142266D01*
X141600Y21930D01*
Y20597D01*
X142266Y19931D01*
X145599Y26596D02*
X144932Y25263D01*
X143599Y23930D01*
X142266D01*
X141600Y24596D01*
Y25929D01*
X142266Y26596D01*
X142933D01*
X143599Y25929D01*
Y23930D01*
X155599Y12600D02*
Y13933D01*
Y13266D01*
X151600D01*
Y12600D01*
Y13933D01*
X155599Y17932D02*
Y16599D01*
X154932Y15932D01*
X152267D01*
X151600Y16599D01*
Y17932D01*
X152267Y18598D01*
X154932D01*
X155599Y17932D01*
X154932Y19931D02*
X155599Y20597D01*
Y21930D01*
X154932Y22597D01*
X154266D01*
X153599Y21930D01*
Y21264D01*
Y21930D01*
X152933Y22597D01*
X152267D01*
X151600Y21930D01*
Y20597D01*
X152267Y19931D01*
X155599Y23930D02*
Y26596D01*
X154932D01*
X152267Y23930D01*
X151600D01*
X205599Y12600D02*
Y13933D01*
Y13266D01*
X201600D01*
Y12600D01*
Y13933D01*
X205599Y17932D02*
Y16599D01*
X204932Y15932D01*
X202267D01*
X201600Y16599D01*
Y17932D01*
X202267Y18598D01*
X204932D01*
X205599Y17932D01*
X201600Y21930D02*
X205599D01*
X203599Y19931D01*
Y22597D01*
X201600Y26596D02*
Y23930D01*
X204266Y26596D01*
X204932D01*
X205599Y25929D01*
Y24596D01*
X204932Y23930D01*
X215599Y12600D02*
Y15266D01*
Y13933D01*
X211600D01*
X215599Y16599D02*
X211600Y19264D01*
X215599D02*
X211600Y16599D01*
X215599Y20597D02*
X211600D01*
Y22597D01*
X212266Y23263D01*
X214932D01*
X215599Y22597D01*
Y20597D01*
X185599Y12600D02*
Y13933D01*
Y13266D01*
X181600D01*
Y12600D01*
Y13933D01*
X185599Y17932D02*
Y16599D01*
X184932Y15932D01*
X182266D01*
X181600Y16599D01*
Y17932D01*
X182266Y18598D01*
X184932D01*
X185599Y17932D01*
X181600Y21930D02*
X185599D01*
X183599Y19931D01*
Y22597D01*
X184932Y23930D02*
X185599Y24596D01*
Y25929D01*
X184932Y26596D01*
X182266D01*
X181600Y25929D01*
Y24596D01*
X182266Y23930D01*
X184932D01*
X195599Y12600D02*
Y13933D01*
Y13266D01*
X191600D01*
Y12600D01*
Y13933D01*
X195599Y17932D02*
Y16599D01*
X194932Y15932D01*
X192266D01*
X191600Y16599D01*
Y17932D01*
X192266Y18598D01*
X194932D01*
X195599Y17932D01*
X191600Y21930D02*
X195599D01*
X193599Y19931D01*
Y22597D01*
X191600Y23930D02*
Y25263D01*
Y24596D01*
X195599D01*
X194932Y23930D01*
X245599Y12600D02*
Y13933D01*
Y13266D01*
X241600D01*
Y12600D01*
Y13933D01*
X245599Y17932D02*
Y16599D01*
X244932Y15932D01*
X242266D01*
X241600Y16599D01*
Y17932D01*
X242266Y18598D01*
X244932D01*
X245599Y17932D01*
X241600Y21930D02*
X245599D01*
X243599Y19931D01*
Y22597D01*
X245599Y26596D02*
X244932Y25263D01*
X243599Y23930D01*
X242266D01*
X241600Y24596D01*
Y25929D01*
X242266Y26596D01*
X242933D01*
X243599Y25929D01*
Y23930D01*
X255599Y15266D02*
Y12600D01*
X251600D01*
Y15266D01*
X253599Y12600D02*
Y13933D01*
X251600Y16599D02*
X255599D01*
X251600Y19264D01*
X255599D01*
X221600Y12600D02*
X225599D01*
Y14599D01*
X224932Y15266D01*
X223599D01*
X222933Y14599D01*
Y12600D01*
Y13933D02*
X221600Y15266D01*
X225599Y16599D02*
X221600Y19264D01*
X225599D02*
X221600Y16599D01*
X225599Y20597D02*
X221600D01*
Y22597D01*
X222266Y23263D01*
X224932D01*
X225599Y22597D01*
Y20597D01*
X235599Y12600D02*
Y13933D01*
Y13266D01*
X231600D01*
Y12600D01*
Y13933D01*
X235599Y17932D02*
Y16599D01*
X234932Y15932D01*
X232266D01*
X231600Y16599D01*
Y17932D01*
X232266Y18598D01*
X234932D01*
X235599Y17932D01*
X231600Y21930D02*
X235599D01*
X233599Y19931D01*
Y22597D01*
X235599Y26596D02*
Y23930D01*
X233599D01*
X234266Y25263D01*
Y25929D01*
X233599Y26596D01*
X232266D01*
X231600Y25929D01*
Y24596D01*
X232266Y23930D01*
X264932Y15266D02*
X265599Y14599D01*
Y13266D01*
X264932Y12600D01*
X262266D01*
X261600Y13266D01*
Y14599D01*
X262266Y15266D01*
X263599D01*
Y13933D01*
X261600Y16599D02*
X265599D01*
X261600Y19264D01*
X265599D01*
Y20597D02*
X261600D01*
Y22597D01*
X262266Y23263D01*
X264932D01*
X265599Y22597D01*
Y20597D01*
X274932Y12600D02*
X275599Y13266D01*
Y14599D01*
X274932Y15266D01*
X274266D01*
X273599Y14599D01*
Y13933D01*
Y14599D01*
X272933Y15266D01*
X272266D01*
X271600Y14599D01*
Y13266D01*
X272266Y12600D01*
X275599Y16599D02*
X272933D01*
X271600Y17932D01*
X272933Y19264D01*
X275599D01*
X274932Y20597D02*
X275599Y21264D01*
Y22597D01*
X274932Y23263D01*
X274266D01*
X273599Y22597D01*
Y21930D01*
Y22597D01*
X272933Y23263D01*
X272266D01*
X271600Y22597D01*
Y21264D01*
X272266Y20597D01*
X40100Y74600D02*
X44099D01*
X40100Y77266D01*
X44099D01*
X43432Y81265D02*
X44099Y80598D01*
Y79265D01*
X43432Y78599D01*
X40766D01*
X40100Y79265D01*
Y80598D01*
X40766Y81265D01*
X52932Y77266D02*
X53599Y76599D01*
Y75266D01*
X52932Y74600D01*
X50266D01*
X49600Y75266D01*
Y76599D01*
X50266Y77266D01*
X51599D01*
Y75933D01*
X49600Y78599D02*
X53599D01*
X49600Y81265D01*
X53599D01*
Y82597D02*
X49600D01*
Y84597D01*
X50266Y85263D01*
X52932D01*
X53599Y84597D01*
Y82597D01*
X84599Y74100D02*
Y75433D01*
Y74766D01*
X80600D01*
Y74100D01*
Y75433D01*
X84599Y79432D02*
Y78099D01*
X83932Y77432D01*
X81266D01*
X80600Y78099D01*
Y79432D01*
X81266Y80098D01*
X83932D01*
X84599Y79432D01*
X80600Y81431D02*
Y82764D01*
Y82097D01*
X84599D01*
X83932Y81431D01*
X84599Y84763D02*
Y87429D01*
X83932D01*
X81266Y84763D01*
X80600D01*
X63099Y77266D02*
Y74600D01*
X61099D01*
X61766Y75933D01*
Y76599D01*
X61099Y77266D01*
X59766D01*
X59100Y76599D01*
Y75266D01*
X59766Y74600D01*
X63099Y78599D02*
X60433D01*
X59100Y79932D01*
X60433Y81265D01*
X63099D01*
X73099Y74100D02*
Y75433D01*
Y74766D01*
X69100D01*
Y74100D01*
Y75433D01*
X73099Y79432D02*
Y78099D01*
X72432Y77432D01*
X69766D01*
X69100Y78099D01*
Y79432D01*
X69766Y80098D01*
X72432D01*
X73099Y79432D01*
X69100Y81431D02*
Y82764D01*
Y82097D01*
X73099D01*
X72432Y81431D01*
Y84763D02*
X73099Y85430D01*
Y86763D01*
X72432Y87429D01*
X71766D01*
X71099Y86763D01*
X70433Y87429D01*
X69766D01*
X69100Y86763D01*
Y85430D01*
X69766Y84763D01*
X70433D01*
X71099Y85430D01*
X71766Y84763D01*
X72432D01*
X71099Y85430D02*
Y86763D01*
X125599Y74100D02*
Y75433D01*
Y74766D01*
X121600D01*
Y74100D01*
Y75433D01*
X125599Y79432D02*
Y78099D01*
X124932Y77432D01*
X122266D01*
X121600Y78099D01*
Y79432D01*
X122266Y80098D01*
X124932D01*
X125599Y79432D01*
X121600Y81431D02*
Y82764D01*
Y82097D01*
X125599D01*
X124932Y81431D01*
Y84763D02*
X125599Y85430D01*
Y86763D01*
X124932Y87429D01*
X124266D01*
X123599Y86763D01*
Y86096D01*
Y86763D01*
X122933Y87429D01*
X122266D01*
X121600Y86763D01*
Y85430D01*
X122266Y84763D01*
X135099Y74100D02*
Y75433D01*
Y74766D01*
X131100D01*
Y74100D01*
Y75433D01*
X135099Y79432D02*
Y78099D01*
X134432Y77432D01*
X131766D01*
X131100Y78099D01*
Y79432D01*
X131766Y80098D01*
X134432D01*
X135099Y79432D01*
X131100Y81431D02*
Y82764D01*
Y82097D01*
X135099D01*
X134432Y81431D01*
X131100Y87429D02*
Y84763D01*
X133766Y87429D01*
X134432D01*
X135099Y86763D01*
Y85430D01*
X134432Y84763D01*
X105599Y74100D02*
Y75433D01*
Y74766D01*
X101600D01*
Y74100D01*
Y75433D01*
X105599Y79432D02*
Y78099D01*
X104932Y77432D01*
X102266D01*
X101600Y78099D01*
Y79432D01*
X102266Y80098D01*
X104932D01*
X105599Y79432D01*
X101600Y81431D02*
Y82764D01*
Y82097D01*
X105599D01*
X104932Y81431D01*
X105599Y87429D02*
Y84763D01*
X103599D01*
X104266Y86096D01*
Y86763D01*
X103599Y87429D01*
X102266D01*
X101600Y86763D01*
Y85430D01*
X102266Y84763D01*
X115099Y74100D02*
Y75433D01*
Y74766D01*
X111100D01*
Y74100D01*
Y75433D01*
X115099Y79432D02*
Y78099D01*
X114432Y77432D01*
X111767D01*
X111100Y78099D01*
Y79432D01*
X111767Y80098D01*
X114432D01*
X115099Y79432D01*
X111100Y81431D02*
Y82764D01*
Y82097D01*
X115099D01*
X114432Y81431D01*
X111100Y86763D02*
X115099D01*
X113099Y84763D01*
Y87429D01*
X165599Y74600D02*
Y75933D01*
Y75266D01*
X161600D01*
Y74600D01*
Y75933D01*
X165599Y79932D02*
Y78599D01*
X164932Y77932D01*
X162267D01*
X161600Y78599D01*
Y79932D01*
X162267Y80598D01*
X164932D01*
X165599Y79932D01*
X162267Y81931D02*
X161600Y82597D01*
Y83930D01*
X162267Y84597D01*
X164932D01*
X165599Y83930D01*
Y82597D01*
X164932Y81931D01*
X164266D01*
X163599Y82597D01*
Y84597D01*
X175099Y74600D02*
Y75933D01*
Y75266D01*
X171100D01*
Y74600D01*
Y75933D01*
X175099Y79932D02*
Y78599D01*
X174432Y77932D01*
X171766D01*
X171100Y78599D01*
Y79932D01*
X171766Y80598D01*
X174432D01*
X175099Y79932D01*
X174432Y81931D02*
X175099Y82597D01*
Y83930D01*
X174432Y84597D01*
X173766D01*
X173099Y83930D01*
X172433Y84597D01*
X171766D01*
X171100Y83930D01*
Y82597D01*
X171766Y81931D01*
X172433D01*
X173099Y82597D01*
X173766Y81931D01*
X174432D01*
X173099Y82597D02*
Y83930D01*
X145099Y74100D02*
Y75433D01*
Y74766D01*
X141100D01*
Y74100D01*
Y75433D01*
X145099Y79432D02*
Y78099D01*
X144432Y77432D01*
X141767D01*
X141100Y78099D01*
Y79432D01*
X141767Y80098D01*
X144432D01*
X145099Y79432D01*
X141100Y81431D02*
Y82764D01*
Y82097D01*
X145099D01*
X144432Y81431D01*
X141100Y84763D02*
Y86096D01*
Y85430D01*
X145099D01*
X144432Y84763D01*
X155099Y74100D02*
Y75433D01*
Y74766D01*
X151100D01*
Y74100D01*
Y75433D01*
X155099Y79432D02*
Y78099D01*
X154432Y77432D01*
X151767D01*
X151100Y78099D01*
Y79432D01*
X151767Y80098D01*
X154432D01*
X155099Y79432D01*
X151100Y81431D02*
Y82764D01*
Y82097D01*
X155099D01*
X154432Y81431D01*
Y84763D02*
X155099Y85430D01*
Y86763D01*
X154432Y87429D01*
X151767D01*
X151100Y86763D01*
Y85430D01*
X151767Y84763D01*
X154432D01*
X195099Y74600D02*
Y75933D01*
Y75266D01*
X191100D01*
Y74600D01*
Y75933D01*
X195099Y79932D02*
Y78599D01*
X194432Y77932D01*
X191767D01*
X191100Y78599D01*
Y79932D01*
X191767Y80598D01*
X194432D01*
X195099Y79932D01*
Y84597D02*
X194432Y83264D01*
X193099Y81931D01*
X191767D01*
X191100Y82597D01*
Y83930D01*
X191767Y84597D01*
X192433D01*
X193099Y83930D01*
Y81931D01*
X184099Y74600D02*
Y75933D01*
Y75266D01*
X180100D01*
Y74600D01*
Y75933D01*
X184099Y79932D02*
Y78599D01*
X183432Y77932D01*
X180766D01*
X180100Y78599D01*
Y79932D01*
X180766Y80598D01*
X183432D01*
X184099Y79932D01*
Y81931D02*
Y84597D01*
X183432D01*
X180766Y81931D01*
X180100D01*
X215099Y74600D02*
Y75933D01*
Y75266D01*
X211100D01*
Y74600D01*
Y75933D01*
X215099Y79932D02*
Y78599D01*
X214432Y77932D01*
X211766D01*
X211100Y78599D01*
Y79932D01*
X211766Y80598D01*
X214432D01*
X215099Y79932D01*
X211100Y83930D02*
X215099D01*
X213099Y81931D01*
Y84597D01*
X204599Y74600D02*
Y75933D01*
Y75266D01*
X200600D01*
Y74600D01*
Y75933D01*
X204599Y79932D02*
Y78599D01*
X203932Y77932D01*
X201267D01*
X200600Y78599D01*
Y79932D01*
X201267Y80598D01*
X203932D01*
X204599Y79932D01*
Y84597D02*
Y81931D01*
X202599D01*
X203266Y83264D01*
Y83930D01*
X202599Y84597D01*
X201267D01*
X200600Y83930D01*
Y82597D01*
X201267Y81931D01*
X234599Y74600D02*
Y75933D01*
Y75266D01*
X230600D01*
Y74600D01*
Y75933D01*
X234599Y79932D02*
Y78599D01*
X233932Y77932D01*
X231266D01*
X230600Y78599D01*
Y79932D01*
X231266Y80598D01*
X233932D01*
X234599Y79932D01*
X230600Y84597D02*
Y81931D01*
X233266Y84597D01*
X233932D01*
X234599Y83930D01*
Y82597D01*
X233932Y81931D01*
X225099Y74600D02*
Y75933D01*
Y75266D01*
X221100D01*
Y74600D01*
Y75933D01*
X225099Y79932D02*
Y78599D01*
X224432Y77932D01*
X221766D01*
X221100Y78599D01*
Y79932D01*
X221766Y80598D01*
X224432D01*
X225099Y79932D01*
X224432Y81931D02*
X225099Y82597D01*
Y83930D01*
X224432Y84597D01*
X223766D01*
X223099Y83930D01*
Y83264D01*
Y83930D01*
X222433Y84597D01*
X221766D01*
X221100Y83930D01*
Y82597D01*
X221766Y81931D01*
X255099Y74100D02*
Y75433D01*
Y74766D01*
X251100D01*
Y74100D01*
Y75433D01*
X255099Y79432D02*
Y78099D01*
X254432Y77432D01*
X251766D01*
X251100Y78099D01*
Y79432D01*
X251766Y80098D01*
X254432D01*
X255099Y79432D01*
X254432Y81431D02*
X255099Y82097D01*
Y83430D01*
X254432Y84097D01*
X251766D01*
X251100Y83430D01*
Y82097D01*
X251766Y81431D01*
X254432D01*
X245099Y74600D02*
Y75933D01*
Y75266D01*
X241100D01*
Y74600D01*
Y75933D01*
X245099Y79932D02*
Y78599D01*
X244432Y77932D01*
X241766D01*
X241100Y78599D01*
Y79932D01*
X241766Y80598D01*
X244432D01*
X245099Y79932D01*
X241100Y81931D02*
Y83264D01*
Y82597D01*
X245099D01*
X244432Y81931D01*
X263132Y73800D02*
X263799Y74466D01*
Y75799D01*
X263132Y76466D01*
X262466D01*
X261799Y75799D01*
Y75133D01*
Y75799D01*
X261133Y76466D01*
X260466D01*
X259800Y75799D01*
Y74466D01*
X260466Y73800D01*
X263799Y77799D02*
X261133D01*
X259800Y79132D01*
X261133Y80465D01*
X263799D01*
X263132Y81797D02*
X263799Y82464D01*
Y83797D01*
X263132Y84463D01*
X262466D01*
X261799Y83797D01*
Y83130D01*
Y83797D01*
X261133Y84463D01*
X260466D01*
X259800Y83797D01*
Y82464D01*
X260466Y81797D01*
X274332Y76366D02*
X274999Y75699D01*
Y74366D01*
X274332Y73700D01*
X271666D01*
X271000Y74366D01*
Y75699D01*
X271666Y76366D01*
X272999D01*
Y75033D01*
X271000Y77699D02*
X274999D01*
X271000Y80365D01*
X274999D01*
Y81697D02*
X271000D01*
Y83697D01*
X271666Y84363D01*
X274332D01*
X274999Y83697D01*
Y81697D01*
D82*
X189000Y38500D02*
X187001D01*
X188000D01*
Y44498D01*
X189000Y43498D01*
X180003D02*
X181003Y44498D01*
X183002D01*
X184002Y43498D01*
Y42499D01*
X183002Y41499D01*
X181003D01*
X180003Y40499D01*
Y39500D01*
X181003Y38500D01*
X183002D01*
X184002Y39500D01*
X178004Y44498D02*
X174005D01*
X176004D01*
Y38500D01*
X171006Y45498D02*
Y43498D01*
X172005Y42499D01*
X165008Y44498D02*
X167007D01*
X168007Y43498D01*
Y39500D01*
X167007Y38500D01*
X165008D01*
X164008Y39500D01*
Y43498D01*
X165008Y44498D01*
X162009Y38500D02*
Y44498D01*
X158010Y38500D01*
Y44498D01*
X152012D02*
X156011D01*
Y38500D01*
X152012D01*
X156011Y41499D02*
X154011D01*
X144015Y44498D02*
Y40499D01*
X142015Y38500D01*
X140016Y40499D01*
Y44498D01*
X138016Y38500D02*
X136017D01*
X137017D01*
Y44498D01*
X138016Y43498D01*
X133018Y44498D02*
X131019D01*
X132018D01*
Y38500D01*
X133018D01*
X131019D01*
X128020D02*
X126020D01*
X127020D01*
Y44498D01*
X128020Y43498D01*
X188501Y56000D02*
X191500Y58999D01*
X188501Y61998D01*
X181503Y60998D02*
X182503Y61998D01*
X184502D01*
X185502Y60998D01*
Y57000D01*
X184502Y56000D01*
X182503D01*
X181503Y57000D01*
X179504Y56000D02*
X176505Y58999D01*
X179504Y61998D01*
X170507Y56000D02*
X174505D01*
X170507Y59999D01*
Y60998D01*
X171507Y61998D01*
X173506D01*
X174505Y60998D01*
X168507D02*
X167508Y61998D01*
X165508D01*
X164509Y60998D01*
Y57000D01*
X165508Y56000D01*
X167508D01*
X168507Y57000D01*
Y60998D01*
X158511Y56000D02*
X162509D01*
X158511Y59999D01*
Y60998D01*
X159510Y61998D01*
X161510D01*
X162509Y60998D01*
X152513Y61998D02*
X154512Y60998D01*
X156511Y58999D01*
Y57000D01*
X155512Y56000D01*
X153512D01*
X152513Y57000D01*
Y57999D01*
X153512Y58999D01*
X156511D01*
X144515Y61998D02*
Y56000D01*
Y58999D01*
X140516D01*
Y61998D01*
Y56000D01*
X138517D02*
Y59999D01*
X136518Y61998D01*
X134518Y59999D01*
Y56000D01*
Y58999D01*
X138517D01*
X132519Y56000D02*
Y61998D01*
X129520D01*
X128520Y60998D01*
Y58999D01*
X129520Y57999D01*
X132519D01*
X130520D02*
X128520Y56000D01*
X123522Y61998D02*
X125521D01*
X126521Y60998D01*
Y57000D01*
X125521Y56000D01*
X123522D01*
X122522Y57000D01*
Y60998D01*
X123522Y61998D01*
M02*
