M48
;Layer_Color=9474304
;FILE_FORMAT=2:5
INCH,LZ
;TYPE=PLATED
T01F00S00C0.01200
T03F00S00C0.02800
T04F00S00C0.04200
%
T01
X00306Y00112
X0033749Y0021251
Y0023749
X004Y0024609
Y0021409
X003885Y001645
X0047058Y001834
X00511Y00172
X00554Y00173
X00597Y00171
X00724Y00153
X00764Y00152
X0080021Y0015101
X0083215Y00153
X00829Y00511
X00806Y00548
X00837Y00588
X0072065Y0064192
X00728Y00732
Y00771
X00686Y00772
X00689Y00731
X0064786Y00678
X00497Y00663
X00508Y00715
Y00765
X00484Y00789
X00521Y00865
X00698Y00875
X00759Y0087
X00833Y00834
X0088163Y0083392
X00937Y00829
X00701Y00497
X00646Y00511
X00549Y00519
X00515Y00348
X00512Y00314
X00483Y00303
X00554Y00314
X00594
X00392Y00289
X00396Y00348
X00311Y00392
X00354Y00599
X0029Y00634
X00388Y007
X0037746Y0074623
X0034454Y0074577
X00412Y00737
X00361Y00818
X00292Y00886
X01005Y00735
X0096528Y0067986
X01041Y00606
X01044Y00478
X01048Y00365
X01076Y00364
X01075Y00327
X01047Y00328
X01017
X00985Y00329
X00956Y00328
Y00291
X00985Y00292
X01017Y00291
X01047
X01075Y0029
X01018Y00365
X00986Y00366
X00957Y00365
X0158163Y00293
X01682Y00317
X01694Y0037402
X0195Y00417
X01927Y00517
X0192727Y0054927
X01896Y00566
X01845Y00573
X01787Y00588
X01745Y00647
X01854Y00767
X0180438Y0086238
X01636Y00877
X020219Y006629
X0209522Y0069422
X0214382Y00722
X02162Y00666
X0216Y00612
X0222461Y0058039
X02226Y00647
X0231016Y006652
X02312Y00608
X02307Y00562
X023048Y0049695
X0230516Y0042869
X02217Y0043
Y00496
X02198Y00366
X02118Y00361
X0208726Y0038674
X02052Y0038021
X0208282Y00273
X02145Y0030621
X02221Y00213
X0231Y00326
X02342Y00339
X02343Y0029358
X02376Y00326
X02444Y00306
X02482Y00317
X0247748Y0024827
X02411Y00262
X02435Y0041508
X0247945Y0041504
X02435Y0048004
Y00545
X0238Y00609
X0237709Y006652
X0244402
X0241055Y0071173
X0247748
X0234362
X02076Y00545
X0203Y00521
X0184298Y0020002
X0254441Y0024827
X02546Y00312
X0257787Y002948
X026448
X0267827Y0024827
X0271173
X0277614Y0024575
Y0027921
Y0031268
Y0034614
Y0037961
Y0041307
Y0044653
Y0048
Y0051346
Y0054693
Y0058039
Y0061386
Y0064732
Y0068079
Y0071425
X027452Y0071173
X02796Y00772
X0278Y00859
X02737Y00874
X02676Y00877
X0261134Y0071173
X0254441
X0257787Y006652
X026448
X02623Y00631
X0265382Y0054492
Y0047996
Y00415
X02574Y00447
X02512Y00449
X02511Y00512
X02577Y00515
X0254445Y0058941
X0251095Y006652
X0254437Y0037059
X0251095Y002948
X0261134Y0024827
X02572Y00151
X02711
T03
X00375Y00445
Y00495
Y00545
X01575Y005
X01625
T04
X0043Y0006
X0053
X0063
X0073
X0083
X0093
X0103
X0113
X0123
X0133
X0143
X0153
X0163
X0173
X0183
X0193
X0203
X0213
X0223
X0233
X0243
X0253
X0263
X0273
Y0094
X0263
X0253
X0243
X0233
X0223
X0213
X0203
X0193
X0183
X0173
X0163
X0153
X0143
X0133
X0123
X0113
X0103
X0093
X0083
X0073
X0063
X0053
X0043
M30
